<svg width="19" height="19" viewBox="0 0 19 19" fill="none" xmlns="http://www.w3.org/2000/svg">
<path d="M9.83527 9.10815L8.79358 10.1498C8.21732 10.7261 8.21732 11.6644 8.79358 12.2406C9.36983 12.8169 10.3081 12.8169 10.8844 12.2406L12.5245 10.6005C13.0779 10.0454 13.3887 9.29358 13.3887 8.50973C13.3887 7.72588 13.0779 6.97401 12.5245 6.41895C11.9694 5.86549 11.2175 5.55469 10.4337 5.55469C9.64984 5.55469 8.89798 5.86549 8.34291 6.41895L6.55504 8.20683C6.31964 8.44202 6.1329 8.72131 6.00549 9.02872C5.87808 9.33612 5.8125 9.66563 5.8125 9.99839C5.8125 10.3312 5.87808 10.6607 6.00549 10.9681C6.1329 11.2755 6.31964 11.5548 6.55504 11.79" stroke="#797979" stroke-width="1.10819" stroke-linecap="round" stroke-linejoin="round"/>
<path d="M7.46841 16.643H11.9012C15.5951 16.643 17.0727 15.1654 17.0727 11.4715V7.03872C17.0727 3.34477 15.5951 1.86719 11.9012 1.86719H7.46841C3.77446 1.86719 2.29688 3.34477 2.29688 7.03872V11.4715C2.29688 15.1654 3.77446 16.643 7.46841 16.643Z" stroke="#797979" stroke-width="1.10819" stroke-linecap="round" stroke-linejoin="round"/>
</svg>
