<svg width="16" height="16" viewBox="0 0 16 16" fill="none" xmlns="http://www.w3.org/2000/svg">
<path d="M13.3346 13.3281L2.66797 13.3281" stroke="#797979" stroke-linecap="round"/>
<path d="M12.7998 13.3385V4.80521C12.7998 3.79955 12.7998 3.29671 12.4873 2.98429C12.1749 2.67188 11.6721 2.67188 10.6664 2.67188H9.59977C8.5941 2.67188 8.09127 2.67188 7.77885 2.98429C7.52736 3.23578 7.47832 3.61066 7.46875 4.27188" stroke="#797979"/>
<path d="M9.59922 13.3323V6.39896C9.59922 5.3933 9.59922 4.89046 9.2868 4.57804C8.97438 4.26562 8.47155 4.26562 7.46589 4.26562H5.33255C4.32689 4.26562 3.82406 4.26562 3.51164 4.57804C3.19922 4.89046 3.19922 5.3933 3.19922 6.39896V13.3323" stroke="#797979"/>
<path d="M6.39844 13.3344V11.7344" stroke="#797979" stroke-linecap="round"/>
<path d="M4.80078 5.86719H8.00078" stroke="#797979" stroke-linecap="round"/>
<path d="M4.80078 7.46875H8.00078" stroke="#797979" stroke-linecap="round"/>
<path d="M4.80078 9.0625H8.00078" stroke="#797979" stroke-linecap="round"/>
</svg>
