<svg width="12" height="12" viewBox="0 0 12 12" fill="none" xmlns="http://www.w3.org/2000/svg">
<path d="M4.77349 1.82261L5.17913 2.54944C5.54519 3.20536 5.39824 4.06583 4.8217 4.64237C4.82169 4.64238 4.82169 4.64237 4.82169 4.64238C4.82161 4.64246 4.12244 5.34179 5.39032 6.60968C6.65772 7.87707 7.35702 7.17891 7.35762 7.17831C7.35764 7.17829 7.35763 7.1783 7.35765 7.17828C7.9342 6.60176 8.79465 6.45482 9.45056 6.82087L10.1774 7.22651C11.1679 7.77927 11.2848 9.16828 10.4142 10.0389C9.8911 10.562 9.25025 10.969 8.54182 10.9959C7.34924 11.0411 5.32392 10.7393 3.29231 8.70769C1.2607 6.67608 0.958884 4.65077 1.00409 3.45818C1.03095 2.74975 1.438 2.1089 1.96113 1.58577C2.83172 0.715176 4.22073 0.832148 4.77349 1.82261Z" stroke="#797979" stroke-linecap="round"/>
</svg>
