<svg width="16" height="16" viewBox="0 0 16 16" fill="none" xmlns="http://www.w3.org/2000/svg">
<circle cx="7.99844" cy="8.53359" r="1.6" stroke="#2D2D2D" stroke-width="0.8"/>
<path d="M6.82002 12.7992H9.19039C10.8549 12.7992 11.6872 12.7992 12.2851 12.407C12.5439 12.2372 12.7661 12.019 12.9391 11.7649C13.3385 11.1779 13.3385 10.3608 13.3385 8.72649C13.3385 7.09221 13.3385 6.27507 12.9391 5.68807C12.7661 5.43396 12.5439 5.21578 12.2851 5.04598C11.9009 4.79396 11.42 4.70387 10.6836 4.67168C10.3322 4.67168 10.0297 4.41025 9.96076 4.07195C9.85739 3.56449 9.40358 3.19922 8.87649 3.19922H7.13392C6.60684 3.19922 6.15302 3.56449 6.04965 4.07195C5.98074 4.41025 5.6782 4.67168 5.32681 4.67168C4.59045 4.70387 4.1095 4.79396 3.72534 5.04598C3.46652 5.21578 3.24429 5.43396 3.07135 5.68807C2.67188 6.27507 2.67188 7.09221 2.67188 8.72649C2.67188 10.3608 2.67188 11.1779 3.07135 11.7649C3.24429 12.019 3.46652 12.2372 3.72534 12.407C4.3232 12.7992 5.15548 12.7992 6.82002 12.7992Z" stroke="#2D2D2D" stroke-width="0.8"/>
<path d="M11.7326 6.93359H11.1992" stroke="#2D2D2D" stroke-width="0.8" stroke-linecap="round"/>
</svg>
