<svg width="11" height="11" viewBox="0 0 11 11" fill="none" xmlns="http://www.w3.org/2000/svg">
<path d="M1.375 5.5C1.375 7.22847 1.375 9.00941 1.97909 9.54635C2.58318 10.0833 3.55546 10.0833 5.5 10.0833C7.44453 10.0833 8.41683 10.0833 9.02092 9.54635C9.625 9.00941 9.625 7.22847 9.625 5.5" stroke="#6A6A75" stroke-width="0.8"/>
<path d="M6.7167 6.50855L9.47005 5.68254C9.74298 5.60069 9.87947 5.55971 9.96605 5.46158C9.98292 5.44247 9.99818 5.42198 10.0116 5.40035C10.0807 5.2892 10.0807 5.14675 10.0807 4.86176C10.0807 3.73879 10.0807 3.17729 9.77227 2.7982C9.71301 2.72535 9.64641 2.65875 9.57354 2.59946C9.19445 2.29102 8.63295 2.29102 7.50998 2.29102H3.48482C2.36183 2.29102 1.80034 2.29102 1.42125 2.59946C1.34839 2.65875 1.2818 2.72535 1.22251 2.7982C0.914063 3.17729 0.914063 3.73879 0.914063 4.86176C0.914063 5.14675 0.914062 5.2892 0.98317 5.40035C0.996631 5.42198 1.01188 5.44247 1.02874 5.46158C1.11534 5.55971 1.25181 5.60069 1.52475 5.68254L4.27808 6.50855" stroke="#6A6A75" stroke-width="0.8"/>
<path d="M2.97656 2.29102C3.35397 2.28145 3.73705 2.04118 3.86547 1.68616C3.86942 1.67524 3.87348 1.66309 3.88157 1.63879L3.89333 1.60352C3.91267 1.54551 3.92234 1.5165 3.93268 1.49077C4.06477 1.1622 4.3743 0.939102 4.72776 0.917693C4.75545 0.916016 4.78602 0.916016 4.8472 0.916016H6.14782C6.20896 0.916016 6.23953 0.916016 6.26721 0.917693C6.62068 0.939102 6.93024 1.1622 7.06233 1.49077C7.07264 1.5165 7.08231 1.5455 7.10165 1.60352L7.11343 1.63879C7.1215 1.66295 7.12558 1.67527 7.12952 1.68616C7.25795 2.04118 7.64084 2.28145 8.01823 2.29102" stroke="#6A6A75" stroke-width="0.8"/>
<path d="M6.41406 5.72852H4.58073C4.45417 5.72852 4.35156 5.83114 4.35156 5.95768V6.94837C4.35156 7.04205 4.40862 7.12634 4.49562 7.16113L4.8165 7.28951C5.25361 7.46432 5.74118 7.46432 6.1783 7.28951L6.49918 7.16113C6.58617 7.12634 6.64323 7.04205 6.64323 6.94837V5.95768C6.64323 5.83114 6.54061 5.72852 6.41406 5.72852Z" stroke="#6A6A75" stroke-width="0.8" stroke-linecap="round"/>
</svg>
