<svg width="20" height="20" viewBox="0 0 20 20" fill="none" xmlns="http://www.w3.org/2000/svg">
<path d="M5 9.16406C5 6.8074 5 5.62823 5.7325 4.89656C6.46417 4.16406 7.64333 4.16406 10 4.16406H12.5C14.8567 4.16406 16.0358 4.16406 16.7675 4.89656C17.5 5.62823 17.5 6.8074 17.5 9.16406V13.3307C17.5 15.6874 17.5 16.8666 16.7675 17.5982C16.0358 18.3307 14.8567 18.3307 12.5 18.3307H10C7.64333 18.3307 6.46417 18.3307 5.7325 17.5982C5 16.8666 5 15.6874 5 13.3307V9.16406Z" stroke="#2D2D2D" stroke-width="1.5"/>
<path d="M5 15.8307C4.33696 15.8307 3.70107 15.5673 3.23223 15.0985C2.76339 14.6297 2.5 13.9938 2.5 13.3307V8.33073C2.5 5.18823 2.5 3.61656 3.47667 2.64073C4.4525 1.66406 6.02417 1.66406 9.16667 1.66406H12.5C13.163 1.66406 13.7989 1.92745 14.2678 2.3963C14.7366 2.86514 15 3.50102 15 4.16406" stroke="#2D2D2D" stroke-width="1.5"/>
</svg>
