<svg width="16" height="16" viewBox="0 0 16 16" fill="none" xmlns="http://www.w3.org/2000/svg">
<path d="M9.42726 5.37795C9.04288 5.37795 8.65694 5.37795 8.27257 5.37795C7.74913 5.37795 7.22569 5.37795 6.70226 5.37795C6.66007 5.37795 6.61944 5.37795 6.57726 5.37795C6.56163 5.37795 6.54757 5.37639 6.53194 5.37639C6.57726 5.37951 6.51788 5.3717 6.50226 5.36858C6.49601 5.36701 6.45382 5.35295 6.48194 5.36389C6.50851 5.37326 6.45538 5.34983 6.45538 5.34983C6.44601 5.34358 6.39444 5.3092 6.41163 5.32326C6.43194 5.34045 6.40694 5.31858 6.40382 5.31545C6.39601 5.30608 6.38507 5.29514 6.37569 5.28733C6.36944 5.28108 6.34913 5.25295 6.37413 5.28889C6.36788 5.28108 6.36163 5.2717 6.35694 5.26389C6.35069 5.25295 6.34288 5.24045 6.33663 5.22951C6.33038 5.21858 6.31944 5.17795 6.33194 5.22014C6.32413 5.1967 6.31788 5.17483 6.31319 5.14983C6.30694 5.12326 6.31476 5.15608 6.31476 5.16076C6.31476 5.1467 6.31319 5.13264 6.31319 5.11858C6.31319 5.11545 6.31319 5.11389 6.31319 5.11076C6.31319 5.09514 6.31319 5.07951 6.31319 5.06389C6.31319 4.99045 6.31319 4.91701 6.31319 4.84358C6.31319 4.28108 6.31319 3.71858 6.31319 3.15608C6.31319 2.91858 6.31319 2.68264 6.31319 2.44514C6.31319 2.39045 6.31319 2.33576 6.31319 2.28264C6.31319 2.27795 6.31319 2.27326 6.31319 2.26858C6.31319 2.2592 6.31632 2.2092 6.31319 2.23264C6.31007 2.25608 6.32413 2.19358 6.32569 2.18264C6.33351 2.14358 6.32882 2.16858 6.32413 2.18108C6.32882 2.1717 6.33194 2.16233 6.33819 2.15451C6.34913 2.1342 6.36163 2.11389 6.37569 2.09514C6.34913 2.13264 6.40382 2.07014 6.41319 2.06076C6.43194 2.04358 6.40851 2.06389 6.40538 2.06545C6.41632 2.05764 6.42726 2.04983 6.43976 2.04358C6.45069 2.03733 6.46319 2.03108 6.47569 2.02483C6.47882 2.02326 6.51007 2.01076 6.48507 2.02014C6.46319 2.02795 6.52413 2.01076 6.53507 2.00764C6.57726 1.99514 6.54601 2.00608 6.53507 2.00608C6.54913 2.00451 6.56319 2.00451 6.57726 2.00451C6.58663 2.00451 6.59444 2.00451 6.60382 2.00451C6.66319 2.00451 6.72257 2.00451 6.78351 2.00451C7.02726 2.00451 7.27101 2.00451 7.51319 2.00451C8.07101 2.00451 8.62726 2.00451 9.18507 2.00451C9.25226 2.00451 9.31944 2.00451 9.38819 2.00451C9.40226 2.00451 9.41476 2.00451 9.42882 2.00451C9.43819 2.00451 9.49288 2.00764 9.46476 2.00451C9.44444 2.00295 9.50226 2.01545 9.51476 2.01701C9.52257 2.01858 9.55851 2.03264 9.51632 2.01545C9.52882 2.02014 9.54132 2.02639 9.55226 2.0342C9.56319 2.04045 9.62257 2.08576 9.58819 2.05451C9.60538 2.07014 9.62257 2.08576 9.63819 2.10295C9.65538 2.1217 9.63507 2.09826 9.63351 2.09514C9.64132 2.10608 9.64913 2.11701 9.65538 2.12951C9.66476 2.14358 9.68819 2.20764 9.67569 2.16545C9.68351 2.18889 9.68976 2.21233 9.69444 2.23576C9.69601 2.19983 9.70226 2.27014 9.69444 2.23576C9.69444 2.2467 9.69601 2.25764 9.69601 2.26858C9.69601 2.2717 9.69601 2.27326 9.69601 2.27639C9.69601 2.32326 9.69601 2.3717 9.69601 2.41858C9.69601 2.94983 9.69601 3.48264 9.69601 4.01389C9.69601 4.27639 9.69601 4.54045 9.69601 4.80295C9.69601 4.88264 9.69601 4.96389 9.69601 5.04358C9.69601 5.06389 9.69601 5.0842 9.69601 5.10451C9.69601 5.12483 9.68976 5.18576 9.69757 5.14358C9.69288 5.16701 9.68663 5.19045 9.68038 5.21389C9.67257 5.23889 9.68351 5.2092 9.68507 5.20608C9.68038 5.21858 9.67413 5.23108 9.66632 5.24201C9.66007 5.25451 9.65226 5.26545 9.64601 5.27639C9.64444 5.27951 9.62413 5.30608 9.63976 5.28576C9.65382 5.26858 9.61163 5.31389 9.60382 5.3217C9.57569 5.35139 9.59444 5.32951 9.60538 5.32326C9.59444 5.33108 9.58351 5.33889 9.57101 5.34514C9.56163 5.35139 9.50538 5.37639 9.52569 5.36858C9.54444 5.36076 9.48819 5.37795 9.47569 5.38108C9.46476 5.3842 9.43194 5.38576 9.47569 5.38264C9.45538 5.37639 9.44132 5.37795 9.42726 5.37795C9.30538 5.38108 9.18663 5.4842 9.19288 5.61233C9.19913 5.73733 9.29601 5.84983 9.42726 5.8467C9.85226 5.83733 10.1585 5.4967 10.1585 5.08108C10.1585 4.8967 10.1585 4.71233 10.1585 4.52951C10.1585 3.92639 10.1585 3.32483 10.1585 2.7217C10.1585 2.5717 10.1601 2.42014 10.1585 2.27014C10.1523 1.8592 9.82726 1.53576 9.41476 1.53264C8.95382 1.52951 8.49288 1.53264 8.03194 1.53264C7.55382 1.53264 7.07726 1.53108 6.59913 1.53264C6.18663 1.5342 5.85069 1.8467 5.84288 2.26389C5.84132 2.39826 5.84288 2.5342 5.84288 2.66858C5.84288 3.26701 5.84288 3.86545 5.84288 4.46233C5.84288 4.66076 5.84288 4.8592 5.84288 5.0592C5.84288 5.15139 5.84757 5.24514 5.87569 5.33264C5.95538 5.58264 6.17413 5.79045 6.43663 5.83264C6.58819 5.85764 6.74444 5.8467 6.89757 5.8467C7.17413 5.8467 7.45069 5.8467 7.72882 5.8467C8.26319 5.8467 8.79757 5.8467 9.33194 5.8467C9.36319 5.8467 9.39601 5.8467 9.42726 5.8467C9.54913 5.8467 9.66788 5.73889 9.66163 5.61233C9.65538 5.48576 9.55851 5.37795 9.42726 5.37795ZM9.42726 14.003C9.04288 14.003 8.65694 14.003 8.27257 14.003C7.74913 14.003 7.22569 14.003 6.70226 14.003C6.66007 14.003 6.61944 14.003 6.57726 14.003C6.56163 14.003 6.54757 14.0014 6.53194 14.0014C6.57726 14.0045 6.51788 13.9967 6.50226 13.9936C6.49601 13.992 6.45382 13.978 6.48194 13.9889C6.50851 13.9983 6.45538 13.9748 6.45538 13.9748C6.44601 13.9686 6.39444 13.9342 6.41163 13.9483C6.43194 13.9655 6.40694 13.9436 6.40382 13.9405C6.39601 13.9311 6.38507 13.9201 6.37569 13.9123C6.36944 13.9061 6.34913 13.878 6.37413 13.9139C6.36788 13.9061 6.36163 13.8967 6.35694 13.8889C6.35069 13.878 6.34288 13.8655 6.33663 13.8545C6.33038 13.8436 6.31944 13.803 6.33194 13.8451C6.32413 13.8217 6.31788 13.7998 6.31319 13.7748C6.30694 13.7483 6.31476 13.7811 6.31476 13.7858C6.31476 13.7717 6.31319 13.7576 6.31319 13.7436C6.31319 13.7405 6.31319 13.7389 6.31319 13.7358C6.31319 13.7201 6.31319 13.7045 6.31319 13.6889C6.31319 13.6155 6.31319 13.542 6.31319 13.4686C6.31319 12.9061 6.31319 12.3436 6.31319 11.7811C6.31319 11.5436 6.31319 11.3076 6.31319 11.0701C6.31319 11.0155 6.31319 10.9608 6.31319 10.9076C6.31319 10.903 6.31319 10.8983 6.31319 10.8936C6.31319 10.8842 6.31632 10.8342 6.31319 10.8576C6.31007 10.8811 6.32413 10.8186 6.32569 10.8076C6.33351 10.7686 6.32882 10.7936 6.32413 10.8061C6.32882 10.7967 6.33194 10.7873 6.33819 10.7795C6.34913 10.7592 6.36163 10.7389 6.37569 10.7201C6.34913 10.7576 6.40382 10.6951 6.41319 10.6858C6.43194 10.6686 6.40851 10.6889 6.40538 10.6905C6.41632 10.6826 6.42726 10.6748 6.43976 10.6686C6.45069 10.6623 6.46319 10.6561 6.47569 10.6498C6.47882 10.6483 6.51007 10.6358 6.48507 10.6451C6.46319 10.653 6.52413 10.6358 6.53507 10.6326C6.57726 10.6201 6.54601 10.6311 6.53507 10.6311C6.54913 10.6295 6.56319 10.6295 6.57726 10.6295C6.58663 10.6295 6.59444 10.6295 6.60382 10.6295C6.66319 10.6295 6.72257 10.6295 6.78351 10.6295C7.02726 10.6295 7.27101 10.6295 7.51319 10.6295C8.07101 10.6295 8.62726 10.6295 9.18507 10.6295C9.25226 10.6295 9.31944 10.6295 9.38819 10.6295C9.40226 10.6295 9.41476 10.6295 9.42882 10.6295C9.43819 10.6295 9.49288 10.6326 9.46476 10.6295C9.44444 10.628 9.50226 10.6405 9.51476 10.642C9.52257 10.6436 9.55851 10.6576 9.51632 10.6405C9.52882 10.6451 9.54132 10.6514 9.55226 10.6592C9.56319 10.6655 9.62257 10.7108 9.58819 10.6795C9.60538 10.6951 9.62257 10.7108 9.63819 10.728C9.65538 10.7467 9.63507 10.7233 9.63351 10.7201C9.64132 10.7311 9.64913 10.742 9.65538 10.7545C9.66476 10.7686 9.68819 10.8326 9.67569 10.7905C9.68351 10.8139 9.68976 10.8373 9.69444 10.8608C9.69601 10.8248 9.70226 10.8951 9.69444 10.8608C9.69444 10.8717 9.69601 10.8826 9.69601 10.8936C9.69601 10.8967 9.69601 10.8983 9.69601 10.9014C9.69601 10.9483 9.69601 10.9967 9.69601 11.0436C9.69601 11.5748 9.69601 12.1076 9.69601 12.6389C9.69601 12.9014 9.69601 13.1655 9.69601 13.428C9.69601 13.5076 9.69601 13.5889 9.69601 13.6686C9.69601 13.6889 9.69601 13.7092 9.69601 13.7295C9.69601 13.7498 9.68976 13.8108 9.69757 13.7686C9.69288 13.792 9.68663 13.8155 9.68038 13.8389C9.67257 13.8639 9.68351 13.8342 9.68507 13.8311C9.68038 13.8436 9.67413 13.8561 9.66632 13.867C9.66007 13.8795 9.65226 13.8905 9.64601 13.9014C9.64444 13.9045 9.62413 13.9311 9.63976 13.9108C9.65382 13.8936 9.61163 13.9389 9.60382 13.9467C9.57569 13.9764 9.59444 13.9545 9.60538 13.9483C9.59444 13.9561 9.58351 13.9639 9.57101 13.9701C9.56163 13.9764 9.50538 14.0014 9.52569 13.9936C9.54444 13.9858 9.48819 14.003 9.47569 14.0061C9.46476 14.0092 9.43194 14.0108 9.47569 14.0076C9.45538 14.0014 9.44132 14.003 9.42726 14.003C9.30538 14.0061 9.18663 14.1092 9.19288 14.2373C9.19913 14.3623 9.29601 14.4748 9.42726 14.4717C9.85226 14.4623 10.1585 14.1217 10.1585 13.7061C10.1585 13.5217 10.1585 13.3373 10.1585 13.1545C10.1585 12.5514 10.1585 11.9498 10.1585 11.3467C10.1585 11.1967 10.1601 11.0451 10.1585 10.8951C10.1523 10.4842 9.82726 10.1608 9.41476 10.1576C8.95382 10.1545 8.49288 10.1576 8.03194 10.1576C7.55382 10.1576 7.07726 10.1561 6.59913 10.1576C6.18663 10.1592 5.85069 10.4717 5.84288 10.8889C5.84132 11.0233 5.84288 11.1592 5.84288 11.2936C5.84288 11.892 5.84288 12.4905 5.84288 13.0873C5.84288 13.2858 5.84288 13.4842 5.84288 13.6842C5.84288 13.7764 5.84757 13.8701 5.87569 13.9576C5.95538 14.2076 6.17413 14.4155 6.43663 14.4576C6.58819 14.4826 6.74444 14.4717 6.89757 14.4717C7.17413 14.4717 7.45069 14.4717 7.72882 14.4717C8.26319 14.4717 8.79757 14.4717 9.33194 14.4717C9.36319 14.4717 9.39601 14.4717 9.42726 14.4717C9.54913 14.4717 9.66788 14.3639 9.66163 14.2373C9.65538 14.1108 9.55851 14.003 9.42726 14.003ZM3.97569 14.003C3.59132 14.003 3.20538 14.003 2.82101 14.003C2.29757 14.003 1.77413 14.003 1.25069 14.003C1.20851 14.003 1.16788 14.003 1.12569 14.003C1.11007 14.003 1.09601 14.0014 1.08038 14.0014C1.12569 14.0045 1.06632 13.9967 1.05069 13.9936C1.04444 13.992 1.00226 13.978 1.03038 13.9889C1.05694 13.9983 1.00382 13.9748 1.00382 13.9748C0.994444 13.9686 0.942882 13.9342 0.960069 13.9483C0.980382 13.9655 0.955382 13.9436 0.952257 13.9405C0.944444 13.9311 0.933507 13.9201 0.924132 13.9123C0.917882 13.9061 0.897569 13.878 0.922569 13.9139C0.916319 13.9061 0.910069 13.8967 0.905382 13.8889C0.899132 13.878 0.891319 13.8655 0.885069 13.8545C0.878819 13.8436 0.867882 13.803 0.880382 13.8451C0.872569 13.8217 0.866319 13.7998 0.861632 13.7748C0.855382 13.7483 0.863194 13.7811 0.863194 13.7858C0.863194 13.7717 0.861632 13.7576 0.861632 13.7436C0.861632 13.7405 0.861632 13.7389 0.861632 13.7358C0.861632 13.7201 0.861632 13.7045 0.861632 13.6889C0.861632 13.6155 0.861632 13.542 0.861632 13.4686C0.861632 12.9061 0.861632 12.3436 0.861632 11.7811C0.861632 11.5436 0.861632 11.3076 0.861632 11.0701C0.861632 11.0155 0.861632 10.9608 0.861632 10.9076C0.861632 10.903 0.861632 10.8983 0.861632 10.8936C0.861632 10.8842 0.864757 10.8342 0.861632 10.8576C0.858507 10.8811 0.872569 10.8186 0.874132 10.8076C0.881944 10.7686 0.877257 10.7936 0.872569 10.8061C0.877257 10.7967 0.880382 10.7873 0.886632 10.7795C0.897569 10.7592 0.910069 10.7389 0.924132 10.7201C0.897569 10.7576 0.952257 10.6951 0.961632 10.6858C0.980382 10.6686 0.956944 10.6889 0.953819 10.6905C0.964757 10.6826 0.975694 10.6748 0.988194 10.6686C0.999132 10.6623 1.01163 10.6561 1.02413 10.6498C1.02726 10.6483 1.05851 10.6358 1.03351 10.6451C1.01163 10.653 1.07257 10.6358 1.08351 10.6326C1.12569 10.6201 1.09444 10.6311 1.08351 10.6311C1.09757 10.6295 1.11163 10.6295 1.12569 10.6295C1.13507 10.6295 1.14288 10.6295 1.15226 10.6295C1.21163 10.6295 1.27101 10.6295 1.33194 10.6295C1.57569 10.6295 1.81944 10.6295 2.06163 10.6295C2.61944 10.6295 3.17569 10.6295 3.73351 10.6295C3.80069 10.6295 3.86788 10.6295 3.93663 10.6295C3.95069 10.6295 3.96319 10.6295 3.97726 10.6295C3.98663 10.6295 4.04132 10.6326 4.01319 10.6295C3.99288 10.628 4.05069 10.6405 4.06319 10.642C4.07101 10.6436 4.10694 10.6576 4.06476 10.6405C4.07726 10.6451 4.08976 10.6514 4.10069 10.6592C4.11163 10.6655 4.17101 10.7108 4.13663 10.6795C4.15382 10.6951 4.17101 10.7108 4.18663 10.728C4.20382 10.7467 4.18351 10.7233 4.18194 10.7201C4.18976 10.7311 4.19757 10.742 4.20382 10.7545C4.21319 10.7686 4.23663 10.8326 4.22413 10.7905C4.23194 10.8139 4.23819 10.8373 4.24288 10.8608C4.24444 10.8248 4.25069 10.8951 4.24288 10.8608C4.24288 10.8717 4.24444 10.8826 4.24444 10.8936C4.24444 10.8967 4.24444 10.8983 4.24444 10.9014C4.24444 10.9483 4.24444 10.9967 4.24444 11.0436C4.24444 11.5748 4.24444 12.1076 4.24444 12.6389C4.24444 12.9014 4.24444 13.1655 4.24444 13.428C4.24444 13.5076 4.24444 13.5889 4.24444 13.6686C4.24444 13.6889 4.24444 13.7092 4.24444 13.7295C4.24444 13.7498 4.23819 13.8108 4.24601 13.7686C4.24132 13.792 4.23507 13.8155 4.22882 13.8389C4.22101 13.8639 4.23194 13.8342 4.23351 13.8311C4.22882 13.8436 4.22257 13.8561 4.21476 13.867C4.20851 13.8795 4.20069 13.8905 4.19444 13.9014C4.19288 13.9045 4.17257 13.9311 4.18819 13.9108C4.20226 13.8936 4.16007 13.9389 4.15226 13.9467C4.12413 13.9764 4.14288 13.9545 4.15382 13.9483C4.14288 13.9561 4.13194 13.9639 4.11944 13.9701C4.11007 13.9764 4.05382 14.0014 4.07413 13.9936C4.09288 13.9858 4.03663 14.003 4.02413 14.0061C4.01319 14.0092 3.98038 14.0108 4.02413 14.0076C4.00382 14.0014 3.98976 14.003 3.97569 14.003C3.85382 14.0061 3.73507 14.1092 3.74132 14.2373C3.74757 14.3623 3.84444 14.4748 3.97569 14.4717C4.40069 14.4623 4.70694 14.1217 4.70694 13.7061C4.70694 13.5217 4.70694 13.3373 4.70694 13.1545C4.70694 12.5514 4.70694 11.9498 4.70694 11.3467C4.70694 11.1967 4.70851 11.0451 4.70694 10.8951C4.70069 10.4842 4.37569 10.1608 3.96319 10.1576C3.50226 10.1545 3.04132 10.1576 2.58038 10.1576C2.10226 10.1576 1.62569 10.1561 1.14757 10.1576C0.735069 10.1576 0.399132 10.4701 0.391319 10.8889C0.389757 11.0233 0.391319 11.1592 0.391319 11.2936C0.391319 11.892 0.391319 12.4905 0.391319 13.0873C0.391319 13.2858 0.391319 13.4842 0.391319 13.6842C0.391319 13.7764 0.396007 13.8701 0.424132 13.9576C0.503819 14.2076 0.722569 14.4155 0.985069 14.4576C1.13663 14.4826 1.29288 14.4717 1.44601 14.4717C1.72257 14.4717 1.99913 14.4717 2.27726 14.4717C2.81163 14.4717 3.34601 14.4717 3.88038 14.4717C3.91163 14.4717 3.94444 14.4717 3.97569 14.4717C4.09757 14.4717 4.21632 14.3639 4.21007 14.2373C4.20382 14.1108 4.10694 14.003 3.97569 14.003ZM14.8788 14.003C14.4944 14.003 14.1085 14.003 13.7241 14.003C13.2007 14.003 12.6773 14.003 12.1538 14.003C12.1116 14.003 12.071 14.003 12.0288 14.003C12.0132 14.003 11.9991 14.0014 11.9835 14.0014C12.0288 14.0045 11.9694 13.9967 11.9538 13.9936C11.9476 13.992 11.9054 13.978 11.9335 13.9889C11.9601 13.9983 11.9069 13.9748 11.9069 13.9748C11.8976 13.9686 11.846 13.9342 11.8632 13.9483C11.8835 13.9655 11.8585 13.9436 11.8554 13.9405C11.8476 13.9311 11.8366 13.9201 11.8273 13.9123C11.821 13.9061 11.8007 13.878 11.8257 13.9139C11.8194 13.9061 11.8132 13.8967 11.8085 13.8889C11.8023 13.878 11.7944 13.8655 11.7882 13.8545C11.7819 13.8436 11.771 13.803 11.7835 13.8451C11.7757 13.8217 11.7694 13.7998 11.7648 13.7748C11.7585 13.7483 11.7663 13.7811 11.7663 13.7858C11.7663 13.7717 11.7648 13.7576 11.7648 13.7436C11.7648 13.7405 11.7648 13.7389 11.7648 13.7358C11.7648 13.7201 11.7648 13.7045 11.7648 13.6889C11.7648 13.6155 11.7648 13.542 11.7648 13.4686C11.7648 12.9061 11.7648 12.3436 11.7648 11.7811C11.7648 11.5436 11.7648 11.3076 11.7648 11.0701C11.7648 11.0155 11.7648 10.9608 11.7648 10.9076C11.7648 10.903 11.7648 10.8983 11.7648 10.8936C11.7648 10.8842 11.7679 10.8342 11.7648 10.8576C11.7616 10.8811 11.7757 10.8186 11.7773 10.8076C11.7851 10.7686 11.7804 10.7936 11.7757 10.8061C11.7804 10.7967 11.7835 10.7873 11.7898 10.7795C11.8007 10.7592 11.8132 10.7389 11.8273 10.7201C11.8007 10.7576 11.8554 10.6951 11.8648 10.6858C11.8835 10.6686 11.8601 10.6889 11.8569 10.6905C11.8679 10.6826 11.8788 10.6748 11.8913 10.6686C11.9023 10.6623 11.9148 10.6561 11.9273 10.6498C11.9304 10.6483 11.9616 10.6358 11.9366 10.6451C11.9148 10.653 11.9757 10.6358 11.9866 10.6326C12.0288 10.6201 11.9976 10.6311 11.9866 10.6311C12.0007 10.6295 12.0148 10.6295 12.0288 10.6295C12.0382 10.6295 12.046 10.6295 12.0554 10.6295C12.1148 10.6295 12.1741 10.6295 12.2351 10.6295C12.4788 10.6295 12.7226 10.6295 12.9648 10.6295C13.5226 10.6295 14.0788 10.6295 14.6366 10.6295C14.7038 10.6295 14.771 10.6295 14.8398 10.6295C14.8538 10.6295 14.8663 10.6295 14.8804 10.6295C14.8898 10.6295 14.9444 10.6326 14.9163 10.6295C14.896 10.628 14.9538 10.6405 14.9663 10.642C14.9741 10.6436 15.0101 10.6576 14.9679 10.6405C14.9804 10.6451 14.9929 10.6514 15.0038 10.6592C15.0148 10.6655 15.0741 10.7108 15.0398 10.6795C15.0569 10.6951 15.0741 10.7108 15.0898 10.728C15.1069 10.7467 15.0866 10.7233 15.0851 10.7201C15.0929 10.7311 15.1007 10.742 15.1069 10.7545C15.1163 10.7686 15.1398 10.8326 15.1273 10.7905C15.1351 10.8139 15.1413 10.8373 15.146 10.8608C15.1476 10.8248 15.1538 10.8951 15.146 10.8608C15.146 10.8717 15.1476 10.8826 15.1476 10.8936C15.1476 10.8967 15.1476 10.8983 15.1476 10.9014C15.1476 10.9483 15.1476 10.9967 15.1476 11.0436C15.1476 11.5748 15.1476 12.1076 15.1476 12.6389C15.1476 12.9014 15.1476 13.1655 15.1476 13.428C15.1476 13.5076 15.1476 13.5889 15.1476 13.6686C15.1476 13.6889 15.1476 13.7092 15.1476 13.7295C15.1476 13.7498 15.1413 13.8108 15.1491 13.7686C15.1444 13.792 15.1382 13.8155 15.1319 13.8389C15.1241 13.8639 15.1351 13.8342 15.1366 13.8311C15.1319 13.8436 15.1257 13.8561 15.1179 13.867C15.1116 13.8795 15.1038 13.8905 15.0976 13.9014C15.096 13.9045 15.0757 13.9311 15.0913 13.9108C15.1054 13.8936 15.0632 13.9389 15.0554 13.9467C15.0273 13.9764 15.046 13.9545 15.0569 13.9483C15.046 13.9561 15.0351 13.9639 15.0226 13.9701C15.0132 13.9764 14.9569 14.0014 14.9773 13.9936C14.996 13.9858 14.9398 14.003 14.9273 14.0061C14.9163 14.0092 14.8835 14.0108 14.9273 14.0076C14.9069 14.0014 14.8929 14.003 14.8788 14.003C14.7569 14.0061 14.6382 14.1092 14.6444 14.2373C14.6507 14.3623 14.7476 14.4748 14.8788 14.4717C15.3038 14.4623 15.6101 14.1217 15.6101 13.7061C15.6101 13.5217 15.6101 13.3373 15.6101 13.1545C15.6101 12.5514 15.6101 11.9498 15.6101 11.3467C15.6101 11.1967 15.6116 11.0451 15.6101 10.8951C15.6038 10.4842 15.2788 10.1608 14.8663 10.1576C14.4054 10.1545 13.9444 10.1576 13.4835 10.1576C13.0054 10.1576 12.5288 10.1561 12.0507 10.1576C11.6382 10.1592 11.3023 10.4717 11.2944 10.8889C11.2929 11.0233 11.2944 11.1592 11.2944 11.2936C11.2944 11.892 11.2944 12.4905 11.2944 13.0873C11.2944 13.2858 11.2944 13.4842 11.2944 13.6842C11.2944 13.7764 11.2991 13.8701 11.3273 13.9576C11.4069 14.2076 11.6257 14.4155 11.8882 14.4576C12.0398 14.4826 12.196 14.4717 12.3491 14.4717C12.6257 14.4717 12.9023 14.4717 13.1804 14.4717C13.7148 14.4717 14.2491 14.4717 14.7835 14.4717C14.8148 14.4717 14.8476 14.4717 14.8788 14.4717C15.0007 14.4717 15.1194 14.3639 15.1132 14.2373C15.1085 14.1108 15.0101 14.003 14.8788 14.003Z" fill="black"/>
<path d="M8.23438 10.3893C8.23438 9.8518 8.23438 9.3143 8.23438 8.77524C8.23438 7.91742 8.23438 7.05961 8.23438 6.2018C8.23438 6.00492 8.23438 5.80649 8.23438 5.60961C8.23438 5.48774 8.12656 5.36899 8 5.37524C7.87344 5.38149 7.76562 5.47836 7.76562 5.60961C7.76562 6.14711 7.76562 6.68461 7.76562 7.22367C7.76562 8.08149 7.76562 8.9393 7.76562 9.79711C7.76562 9.99399 7.76562 10.1924 7.76562 10.3893C7.76562 10.5112 7.87344 10.6299 8 10.6237C8.12656 10.619 8.23438 10.5205 8.23438 10.3893Z" fill="black"/>
<path d="M2.78125 10.3889C2.78125 9.69358 2.78125 8.9967 2.78125 8.30139C2.78125 8.20139 2.78125 8.10139 2.78125 8.00139C2.70312 8.07951 2.625 8.15764 2.54688 8.23576C2.64375 8.23576 2.74206 8.30139 2.83893 8.30139C3.10456 8.30139 3.34577 8.30139 3.6114 8.30139C4.00202 8.30139 4.39521 8.30139 4.78427 8.30139C5.2624 8.30139 5.76717 8.30139 6.24685 8.30139C6.76873 8.30139 7.26923 8.30139 7.8145 8.30139C8.35976 8.30139 8.79482 8.30139 9.42 8.30139C9.92741 8.30139 10.2842 8.30139 10.8816 8.30139C11.2972 8.30139 11.2927 8.30139 12.0757 8.30139C12.5 8.30139 12.9629 8.30139 13.2629 8.30139C13.4035 8.30139 13.2922 8.24201 13.4328 8.23576C13.4391 8.23576 13.4453 8.23576 13.4516 8.23576C13.3734 8.15764 13.2953 8.07951 13.2172 8.00139C13.2172 8.6967 13.2172 9.39358 13.2172 10.0889C13.2172 10.1889 13.2172 10.2889 13.2172 10.3889C13.2172 10.5108 13.325 10.6295 13.4516 10.6233C13.5781 10.617 13.6859 10.5201 13.6859 10.3889C13.6859 9.69358 13.6859 8.9967 13.6859 8.30139C13.6859 8.20139 13.6859 8.10139 13.6859 8.00139C13.6859 7.87483 13.5781 7.76701 13.4516 7.76701C13.3547 7.76701 13.2578 7.76701 13.1609 7.76701C12.8953 7.76701 12.6313 7.76701 12.3656 7.76701C11.975 7.76701 11.5844 7.76701 11.1953 7.76701C10.7172 7.76701 10.2391 7.76701 9.75938 7.76701C9.2375 7.76701 8.71562 7.76701 8.19375 7.76701C7.66719 7.76701 7.14062 7.76701 6.61406 7.76701C6.12031 7.76701 5.62656 7.76701 5.13438 7.76701C4.71875 7.76701 4.30469 7.76701 3.88906 7.76701C3.58906 7.76701 3.28906 7.76701 2.98906 7.76701C2.84844 7.76701 2.70625 7.76389 2.56562 7.76701C2.55937 7.76701 2.55312 7.76701 2.54688 7.76701C2.42031 7.76701 2.3125 7.87483 2.3125 8.00139C2.3125 8.6967 2.3125 9.39358 2.3125 10.0889C2.3125 10.1889 2.3125 10.2889 2.3125 10.3889C2.3125 10.5108 2.42031 10.6295 2.54688 10.6233C2.67344 10.6186 2.78125 10.5201 2.78125 10.3889Z" fill="black"/>
</svg>
