<svg width="16" height="16" viewBox="0 0 16 16" fill="none" xmlns="http://www.w3.org/2000/svg">
<path d="M12.12 5.35695L12.429 5.04799C12.9409 4.53609 13.7709 4.53609 14.2827 5.04799C14.7947 5.55989 14.7947 6.38985 14.2827 6.90173L13.9738 7.21073M12.12 5.35695C12.12 5.35695 12.1587 6.01349 12.7379 6.59279C13.3173 7.17206 13.9738 7.21073 13.9738 7.21073M12.12 5.35695L9.27961 8.19733C9.08721 8.38973 8.99101 8.48593 8.90828 8.59199C8.81074 8.71713 8.72708 8.85253 8.65881 8.99573C8.60094 9.11719 8.55788 9.24619 8.47188 9.50433L8.19641 10.3307L8.10728 10.5981M13.9738 7.21073L11.1334 10.0511C10.941 10.2435 10.8448 10.3397 10.7387 10.4225C10.6136 10.52 10.4782 10.6037 10.335 10.6719C10.2135 10.7298 10.0845 10.7729 9.82641 10.8589L9.00001 11.1343L8.73268 11.2235M8.10728 10.5981L8.01814 10.8655C7.97581 10.9925 8.00888 11.1325 8.10354 11.2272C8.19821 11.3219 8.33828 11.3549 8.46528 11.3126L8.73268 11.2235M8.10728 10.5981L8.73268 11.2235" stroke="#797979"/>
<path d="M5.33398 8.66406H7.00065" stroke="#797979" stroke-linecap="round"/>
<path d="M5.33398 6H9.66732" stroke="#797979" stroke-linecap="round"/>
<path d="M5.33398 11.3359H6.33398" stroke="#797979" stroke-linecap="round"/>
<path d="M13.2189 2.11698C12.4379 1.33594 11.1808 1.33594 8.66667 1.33594H7.33333C4.81917 1.33594 3.5621 1.33594 2.78105 2.11698C2 2.89804 2 4.15511 2 6.66927V9.33594C2 11.8501 2 13.1072 2.78105 13.8882C3.5621 14.6693 4.81917 14.6693 7.33333 14.6693H8.66667C11.1808 14.6693 12.4379 14.6693 13.2189 13.8882C13.8477 13.2595 13.9703 12.3223 13.9942 10.6693" stroke="#797979" stroke-linecap="round"/>
</svg>
