<svg width="22" height="23" viewBox="0 0 22 23" fill="none" xmlns="http://www.w3.org/2000/svg">
<path d="M16 8.5C18.175 8.512 19.353 8.609 20.121 9.377C21 10.256 21 11.67 21 14.498V15.498C21 18.327 21 19.741 20.121 20.62C19.243 21.498 17.828 21.498 15 21.498H7C4.172 21.498 2.757 21.498 1.879 20.62C1 19.74 1 18.327 1 15.498V14.498C1 11.67 1 10.256 1.879 9.377C2.647 8.609 3.825 8.512 6 8.5" stroke="black" stroke-width="1.5" stroke-linecap="round"/>
<path d="M11 1.5V14.5M11 14.5L8 11M11 14.5L14 11" stroke="black" stroke-width="1.5" stroke-linecap="round" stroke-linejoin="round"/>
</svg>
