<svg width="16" height="16" viewBox="0 0 16 16" fill="none" xmlns="http://www.w3.org/2000/svg">
<path d="M14.6693 6.9987V7.9987C14.6693 11.1414 14.6693 12.7128 13.6929 13.689C12.7167 14.6654 11.1453 14.6654 8.0026 14.6654C4.8599 14.6654 3.28856 14.6654 2.31225 13.689C1.33594 12.7128 1.33594 11.1414 1.33594 7.9987C1.33594 4.856 1.33594 3.28465 2.31225 2.30834C3.28856 1.33203 4.8599 1.33203 8.0026 1.33203H9.0026" stroke="#2D2D2D" stroke-width="1.19712" stroke-linecap="round"/>
<path d="M11.1039 2.30207L11.5365 1.86953C12.2532 1.15287 13.4151 1.15287 14.1318 1.86953C14.8484 2.58619 14.8484 3.74813 14.1318 4.46479L13.6992 4.89733M11.1039 2.30207C11.1039 2.30207 11.158 3.22123 11.9691 4.03225C12.7801 4.84327 13.6992 4.89733 13.6992 4.89733M11.1039 2.30207L7.12741 6.27865C6.85807 6.54799 6.72341 6.68263 6.60756 6.83117C6.47093 7.0063 6.3538 7.19583 6.25823 7.39637C6.17721 7.56637 6.11699 7.74703 5.99653 8.10843L5.61089 9.26537M13.6992 4.89733L9.72267 8.8739C9.45334 9.14323 9.31867 9.2779 9.17014 9.39377C8.99501 9.53037 8.80547 9.6475 8.60494 9.7431C8.43494 9.8241 8.25427 9.8843 7.89287 10.0048L6.73594 10.3904M5.61089 9.26537L5.36135 10.014C5.30207 10.1918 5.34835 10.3878 5.4809 10.5204C5.61345 10.653 5.80951 10.6992 5.98733 10.64L6.73594 10.3904M5.61089 9.26537L6.73594 10.3904" stroke="#2D2D2D" stroke-width="1.19712"/>
</svg>
