<svg width="16" height="16" viewBox="0 0 16 16" fill="none" xmlns="http://www.w3.org/2000/svg">
<path d="M15.6961 14.4869H15.073L15.0574 8.80116C15.0691 8.76704 15.073 8.72865 15.073 8.69452C15.073 8.65613 15.0691 8.61775 15.0535 8.58362L15.0496 6.48505C15.0496 6.29737 14.9094 6.15234 14.7458 6.15234H12.6348C12.553 6.15234 12.4751 6.18647 12.4206 6.25045C12.3622 6.31443 12.331 6.39974 12.331 6.48505L12.3544 14.4827H11.2443V8.37462C11.2443 8.19121 11.1041 8.04192 10.9405 8.04192H8.82956C8.66208 8.04192 8.52576 8.19547 8.52576 8.37462V14.4869H7.43521V6.90306C7.43521 6.71538 7.29889 6.57035 7.13142 6.57035H5.02432C4.85295 6.57035 4.72052 6.71964 4.72052 6.90306V14.4827H3.64945V9.98694C3.64945 9.79926 3.51313 9.64997 3.34565 9.64997H1.23466C1.06718 9.64997 0.930862 9.80353 0.930862 9.98694V14.4869H0.307691C0.136319 14.4869 0 14.6362 0 14.8196C0 15.0031 0.140214 15.1523 0.307691 15.1523H15.6961C15.8636 15.1523 15.9999 14.9988 15.9999 14.8196C16.0038 14.632 15.8636 14.4869 15.6961 14.4869ZM3.03017 14.4869H1.53456V12.1111H3.03017V14.4869ZM6.81983 14.4869H5.32422V9.03149H6.81983V14.4869ZM10.629 14.4869H9.13335V10.5031H10.629V14.4869ZM12.962 14.4869L12.9464 9.03149H14.442L14.4576 14.4869H12.962Z" fill="black"/>
<path d="M12.4671 3.30427C12.3752 3.30427 12.2871 3.32788 12.2064 3.37148L12.0621 3.22979C12.2964 2.95731 12.4221 2.61762 12.4221 2.26703C12.4221 1.91462 12.2964 1.57493 12.0639 1.30245L12.2083 1.1644C12.2871 1.20799 12.3752 1.22979 12.4671 1.22979C12.6095 1.22979 12.7445 1.1753 12.8439 1.07902C13.052 0.877384 13.052 0.550409 12.8439 0.348774C12.7427 0.250681 12.6095 0.198002 12.4671 0.198002C12.3246 0.198002 12.1896 0.250681 12.0902 0.348774C11.9214 0.512262 11.8858 0.764759 12.0002 0.964578L11.8558 1.10263C11.5746 0.875568 11.2221 0.752044 10.8584 0.752044C10.4946 0.752044 10.144 0.875568 9.8609 1.10263L9.71841 0.964578C9.83091 0.764759 9.79903 0.512262 9.62841 0.348774C9.52717 0.250681 9.39217 0.198002 9.25155 0.198002C9.10906 0.198002 8.97406 0.250681 8.87282 0.348774C8.77157 0.44505 8.7172 0.57584 8.7172 0.713896C8.7172 0.851953 8.77345 0.982743 8.87282 1.07902C8.97406 1.1753 9.10906 1.22979 9.25155 1.22979C9.34342 1.22979 9.42967 1.20799 9.51029 1.1644L9.65279 1.30245C9.4203 1.57675 9.29468 1.91644 9.29468 2.26703C9.29468 2.61762 9.42217 2.95731 9.65466 3.22979L9.51029 3.36966C9.43155 3.32607 9.34342 3.30245 9.24968 3.30245C9.10906 3.30245 8.97406 3.35695 8.87282 3.45322C8.77157 3.55132 8.7172 3.68211 8.7172 3.81835C8.7172 3.9564 8.77345 4.08719 8.87282 4.18529C8.97406 4.28338 9.10906 4.33606 9.25155 4.33606C9.39217 4.33606 9.52904 4.28156 9.62841 4.18529C9.79528 4.0218 9.83091 3.7693 9.71841 3.56948L9.86278 3.42961C10.144 3.65668 10.4965 3.7802 10.8584 3.7802C11.2221 3.7802 11.5727 3.65668 11.8558 3.42961L11.9983 3.56948C11.8858 3.7693 11.9196 4.0218 12.0902 4.18529C12.1896 4.28338 12.3246 4.33606 12.4671 4.33606C12.6095 4.33606 12.7445 4.28156 12.8439 4.18529C13.052 3.98365 13.052 3.65486 12.8439 3.45322C12.7427 3.35695 12.6095 3.30427 12.4671 3.30427ZM10.8584 2.12352C11.1602 2.12352 11.4058 2.36331 11.4058 2.65395C11.4058 2.89373 11.2409 3.10263 11.0046 3.1644V3.27157C11.0046 3.34968 10.939 3.41326 10.8584 3.41326C10.7777 3.41326 10.7121 3.34787 10.7121 3.27157V3.1644C10.4778 3.10082 10.3109 2.89192 10.3109 2.65395C10.3109 2.57402 10.3784 2.51226 10.459 2.51226C10.5396 2.51226 10.6053 2.57584 10.6053 2.65395C10.6053 2.78837 10.7177 2.89918 10.8584 2.89918C10.9971 2.89918 11.1134 2.79019 11.1134 2.65395C11.1134 2.51953 10.999 2.40872 10.8584 2.40872C10.5565 2.40872 10.3109 2.17075 10.3109 1.87829C10.3109 1.63851 10.4778 1.43143 10.7121 1.36785V1.26249C10.7121 1.18256 10.7796 1.11898 10.8584 1.11898C10.9409 1.11898 11.0046 1.18438 11.0046 1.26249V1.36966C11.2409 1.43324 11.4058 1.64033 11.4058 1.87829C11.4058 1.95822 11.3383 2.01998 11.2596 2.01998C11.1771 2.01998 11.1134 1.9564 11.1134 1.87829C11.1134 1.74387 10.999 1.63306 10.8584 1.63306C10.7196 1.63306 10.6053 1.74205 10.6053 1.87829C10.6053 2.01453 10.7177 2.12352 10.8584 2.12352ZM6.45979 0.708447C5.98731 0.250681 5.35921 0 4.69173 0C4.02426 0 3.39616 0.252498 2.92555 0.708447C1.98434 1.61853 1.94496 3.06812 2.82618 4.02725L2.58056 4.26521L2.41744 4.10717C2.38932 4.07993 2.35182 4.0654 2.31245 4.0654C2.27308 4.0654 2.23558 4.07993 2.20933 4.10717L1.13499 5.14805C0.955002 5.32243 0.955002 5.60945 1.13499 5.78565L1.22124 5.86921C1.30936 5.95459 1.42561 6 1.54935 6C1.6731 6 1.79122 5.95277 1.87747 5.86921L2.9518 4.82834C2.97992 4.80109 2.99492 4.76476 2.99492 4.72843C2.99492 4.69028 2.97805 4.65395 2.9518 4.62852L2.78868 4.47048L3.0343 4.23252C3.49365 4.62852 4.0805 4.84469 4.69361 4.84469C5.36108 4.84469 5.98918 4.59401 6.45979 4.13806C7.43475 3.18801 7.43475 1.65123 6.45979 0.708447ZM6.0923 3.77838C5.71919 4.13987 5.22046 4.33969 4.69173 4.33969C4.16113 4.33969 3.6624 4.13987 3.28929 3.77838C2.91618 3.41689 2.70993 2.9337 2.70993 2.41962C2.70993 1.90736 2.9143 1.42416 3.28929 1.06085C3.6624 0.699364 4.16113 0.499546 4.69173 0.499546C5.22046 0.499546 5.71919 0.699364 6.0923 1.06085C6.46729 1.42416 6.67165 1.90736 6.67165 2.41962C6.67353 2.93551 6.46916 3.41689 6.0923 3.77838Z" fill="black"/>
</svg>
