<svg width="24" height="24" viewBox="0 0 24 24" fill="none" xmlns="http://www.w3.org/2000/svg">
<path d="M17 9.00391C19.175 9.01591 20.353 9.11291 21.121 9.88091C22 10.7599 22 12.1739 22 15.0019V16.0019C22 18.8309 22 20.2449 21.121 21.1239C20.243 22.0019 18.828 22.0019 16 22.0019H8C5.172 22.0019 3.757 22.0019 2.879 21.1239C2 20.2439 2 18.8309 2 16.0019V15.0019C2 12.1739 2 10.7599 2.879 9.88091C3.647 9.11291 4.825 9.01591 7 9.00391" stroke="#797979" stroke-width="1.5" stroke-linecap="round"/>
<path d="M12 15L12 2M12 2L15 5.5M12 2L9 5.5" stroke="#797979" stroke-width="1.5" stroke-linecap="round" stroke-linejoin="round"/>
</svg>
