<svg width="19" height="20" viewBox="0 0 19 20" fill="none" xmlns="http://www.w3.org/2000/svg">
<path d="M14.6149 7.96429V2.53571C14.6149 1.99581 14.3839 1.47802 13.9728 1.09625C13.5617 0.714476 13.0041 0.5 12.4227 0.5H2.19224C1.61082 0.5 1.05321 0.714476 0.642091 1.09625C0.230967 1.47802 0 1.99581 0 2.53571V17.4643C0 18.0042 0.230967 18.522 0.642091 18.9038C1.05321 19.2855 1.61082 19.5 2.19224 19.5H12.4227C13.0041 19.5 13.5617 19.2855 13.9728 18.9038C14.3839 18.522 14.6149 18.0042 14.6149 17.4643V12.7143C14.2273 12.7143 13.8556 12.8573 13.5815 13.1118C13.3074 13.3663 13.1534 13.7115 13.1534 14.0714V17.4643C13.1534 17.6443 13.0764 17.8169 12.9394 17.9441C12.8023 18.0714 12.6165 18.1429 12.4227 18.1429H2.19224C1.99843 18.1429 1.81256 18.0714 1.67552 17.9441C1.53848 17.8169 1.46149 17.6443 1.46149 17.4643V2.53571C1.46149 2.35575 1.53848 2.18315 1.67552 2.05589C1.81256 1.92864 1.99843 1.85714 2.19224 1.85714H12.4227C12.6165 1.85714 12.8023 1.92864 12.9394 2.05589C13.0764 2.18315 13.1534 2.35575 13.1534 2.53571V9.32143C13.541 9.32143 13.9128 9.17844 14.1868 8.92393C14.4609 8.66942 14.6149 8.32422 14.6149 7.96429Z" fill="#171938"/>
<path d="M10.9601 3.89258H3.65262C3.45881 3.89258 3.27295 3.96407 3.13591 4.09133C2.99886 4.21858 2.92188 4.39118 2.92188 4.57115C2.92188 4.75112 2.99886 4.92371 3.13591 5.05097C3.27295 5.17823 3.45881 5.24972 3.65262 5.24972H10.9601C11.1539 5.24972 11.3397 5.17823 11.4768 5.05097C11.6138 4.92371 11.6908 4.75112 11.6908 4.57115C11.6908 4.39118 11.6138 4.21858 11.4768 4.09133C11.3397 3.96407 11.1539 3.89258 10.9601 3.89258ZM11.6908 7.28544C11.6908 7.10547 11.6138 6.93287 11.4768 6.80561C11.3397 6.67836 11.1539 6.60686 10.9601 6.60686H3.65262C3.45881 6.60686 3.27295 6.67836 3.13591 6.80561C2.99886 6.93287 2.92188 7.10547 2.92188 7.28544C2.92188 7.4654 2.99886 7.638 3.13591 7.76526C3.27295 7.89251 3.45881 7.96401 3.65262 7.96401H10.9601C11.1539 7.96401 11.3397 7.89251 11.4768 7.76526C11.6138 7.638 11.6908 7.4654 11.6908 7.28544ZM3.65262 9.32115C3.45881 9.32115 3.27295 9.39264 3.13591 9.5199C2.99886 9.64716 2.92188 9.81975 2.92188 9.99972C2.92188 10.1797 2.99886 10.3523 3.13591 10.4795C3.27295 10.6068 3.45881 10.6783 3.65262 10.6783H6.5756C6.76941 10.6783 6.95527 10.6068 7.09232 10.4795C7.22936 10.3523 7.30635 10.1797 7.30635 9.99972C7.30635 9.81975 7.22936 9.64716 7.09232 9.5199C6.95527 9.39264 6.76941 9.32115 6.5756 9.32115H3.65262Z" fill="#171938"/>
<path d="M8.33972 16.7862C8.23101 16.7861 8.12369 16.7636 8.02558 16.7201C7.92746 16.6767 7.84102 16.6134 7.77255 16.535C7.70408 16.4566 7.65531 16.365 7.62979 16.2669C7.60428 16.1688 7.60266 16.0666 7.62505 15.9678L8.17457 13.5379C8.20383 13.4094 8.27262 13.2915 8.3726 13.1986L15.2562 6.80713C15.6739 6.43698 16.2291 6.23047 16.8065 6.23047C17.3839 6.23047 17.9391 6.43698 18.3568 6.80713C18.5604 6.99616 18.7219 7.2206 18.8321 7.4676C18.9423 7.71461 18.999 7.97935 18.999 8.24672C18.999 8.51408 18.9423 8.77882 18.8321 9.02583C18.7219 9.27284 18.5604 9.49727 18.3568 9.68631L11.4717 16.0764C11.3719 16.1697 11.2449 16.2339 11.1063 16.261L8.48952 16.7719C8.44022 16.7813 8.39004 16.7861 8.33972 16.7862ZM9.56372 14.0149L9.28895 15.2296L10.5948 14.9744L17.3235 8.72545C17.4605 8.5982 17.5374 8.42563 17.5374 8.2457C17.5374 8.06577 17.4605 7.8932 17.3235 7.76595C17.1846 7.64212 16.9994 7.57297 16.8069 7.57297C16.6143 7.57297 16.4292 7.64212 16.2902 7.76595L9.56372 14.0149Z" fill="black"/>
</svg>
