<svg width="23" height="23" viewBox="0 0 23 23" fill="none" xmlns="http://www.w3.org/2000/svg">
<path d="M9.10352 13.4141C10.6914 13.4141 11.9785 14.7012 11.9785 16.2891C11.9785 17.8768 10.6914 19.1641 9.10352 19.1641C7.5157 19.1641 6.22852 17.8768 6.22852 16.2891C6.22852 14.7012 7.5157 13.4141 9.10352 13.4141Z" stroke="#797979" stroke-width="1.4375"/>
<path d="M13.8965 3.83594C12.3086 3.83594 11.0215 5.12311 11.0215 6.71094C11.0215 8.29875 12.3086 9.58594 13.8965 9.58594C15.4843 9.58594 16.7715 8.29875 16.7715 6.71094C16.7715 5.12311 15.4843 3.83594 13.8965 3.83594Z" stroke="#797979" stroke-width="1.4375"/>
<path d="M14.375 16.2578H21.0833" stroke="#797979" stroke-width="1.4375" stroke-linecap="round"/>
<path d="M8.62435 6.67188H1.91602" stroke="#797979" stroke-width="1.4375" stroke-linecap="round"/>
<path d="M1.91602 16.2578H3.83268" stroke="#797979" stroke-width="1.4375" stroke-linecap="round"/>
<path d="M21.0827 6.67188H19.166" stroke="#797979" stroke-width="1.4375" stroke-linecap="round"/>
</svg>
