<svg width="50" height="40" viewBox="0 0 50 40" fill="none" xmlns="http://www.w3.org/2000/svg">
<path d="M30.2083 39.0026H10.4167C7.70833 39.0026 5.625 37.3359 5.625 35.1693V6.16927C5.625 4.0026 7.70833 2.33594 10.4167 2.33594H38.3333C41.0417 2.33594 43.125 4.0026 43.125 6.16927V28.6693C43.125 29.1693 42.7083 29.5026 42.0833 29.5026C41.4583 29.5026 41.0417 29.1693 41.0417 28.6693V6.16927C41.0417 5.0026 39.7917 4.0026 38.3333 4.0026H10.4167C8.95833 4.0026 7.70833 5.0026 7.70833 6.16927V35.0026C7.70833 36.1693 8.95833 37.1693 10.4167 37.1693H30.2083C30.8333 37.1693 31.25 37.5026 31.25 38.0026C31.25 38.5026 30.8333 39.0026 30.2083 39.0026Z" fill="#2D2D2D"/>
<path d="M37.9141 38.9974H33.3307C32.7057 38.9974 32.2891 38.6641 32.2891 38.1641C32.2891 37.6641 32.7057 37.3307 33.3307 37.3307H37.9141C39.5807 37.3307 41.0391 36.1641 41.0391 34.8307V31.4974C41.0391 30.9974 41.4557 30.6641 42.0807 30.6641C42.7057 30.6641 43.1224 30.9974 43.1224 31.4974V34.8307C43.1224 36.9974 40.8307 38.9974 37.9141 38.9974Z" fill="#9E9E9E"/>
<path d="M30.6319 11.4199C32.2991 11.4199 33.7579 12.8787 33.7579 14.5459C33.7579 16.2131 32.2991 17.6719 30.6319 17.6719C28.9647 17.6719 27.5059 16.2131 27.5059 14.5459C27.5059 12.8787 28.7563 11.4199 30.6319 11.4199ZM30.6319 9.33594C27.7143 9.33594 25.4219 11.6283 25.4219 14.5459C25.4219 17.4635 27.7143 19.7559 30.6319 19.7559C33.5495 19.7559 35.8419 17.4635 35.8419 14.5459C35.8419 11.6283 33.3411 9.33594 30.6319 9.33594Z" fill="#2D2D2D"/>
<path d="M42.0826 29.4974C41.6659 29.4974 41.4576 29.3307 41.2493 29.1641L36.6659 24.3307C36.4576 24.1641 36.2493 23.9974 35.8326 23.9974C35.4159 23.9974 35.2076 24.1641 34.9993 24.3307L32.0826 27.4974C31.4576 28.1641 30.6243 28.4974 29.5826 28.4974C28.5409 28.4974 27.7076 28.1641 27.0826 27.4974L18.9576 19.1641C18.7493 18.9974 18.5409 18.8307 18.1243 18.8307C17.7076 18.8307 17.4993 18.9974 17.2909 19.1641L7.49925 29.1641C7.08259 29.4974 6.45759 29.6641 6.04092 29.3307C5.62425 28.9974 5.41592 28.4974 5.83259 28.1641L15.6243 18.1641C16.2493 17.4974 17.0826 17.1641 18.1243 17.1641C19.1659 17.1641 19.9993 17.4974 20.6243 18.1641L28.7493 26.4974C28.9576 26.6641 29.1659 26.6641 29.5826 26.6641C29.9993 26.6641 30.2076 26.4974 30.4159 26.3307L33.3326 23.1641C33.9576 22.4974 34.7909 22.1641 35.8326 22.1641C36.8743 22.1641 37.7076 22.4974 38.3326 23.1641L42.9159 27.9974C43.3326 28.3307 43.1243 28.8307 42.7076 29.1641C42.4993 29.3307 42.2909 29.4974 42.0826 29.4974Z" fill="#2D2D2D"/>
</svg>
