<svg width="26" height="26" viewBox="0 0 26 26" fill="none" xmlns="http://www.w3.org/2000/svg">
<path d="M9.05335 14.5777C9.68149 14.5777 10.2839 14.8272 10.7281 15.2714C11.1722 15.7156 11.4218 16.318 11.4218 16.9461V23.2619C11.4218 23.8901 11.1722 24.4925 10.7281 24.9366C10.2839 25.3808 9.68149 25.6303 9.05335 25.6303H2.73756C2.10942 25.6303 1.507 25.3808 1.06284 24.9366C0.61867 24.4925 0.369141 23.8901 0.369141 23.2619V16.9461C0.369141 16.318 0.61867 15.7156 1.06284 15.2714C1.507 14.8272 2.10942 14.5777 2.73756 14.5777H9.05335ZM23.2639 14.5777C23.892 14.5777 24.4944 14.8272 24.9386 15.2714C25.3828 15.7156 25.6323 16.318 25.6323 16.9461V23.2619C25.6323 23.8901 25.3828 24.4925 24.9386 24.9366C24.4944 25.3808 23.892 25.6303 23.2639 25.6303H16.9481C16.3199 25.6303 15.7175 25.3808 15.2734 24.9366C14.8292 24.4925 14.5797 23.8901 14.5797 23.2619V16.9461C14.5797 16.318 14.8292 15.7156 15.2734 15.2714C15.7175 14.8272 16.3199 14.5777 16.9481 14.5777H23.2639ZM9.05335 16.1567H2.73756C2.52818 16.1567 2.32737 16.2398 2.17932 16.3879C2.03126 16.5359 1.94809 16.7368 1.94809 16.9461V23.2619C1.94809 23.4713 2.03126 23.6721 2.17932 23.8202C2.32737 23.9682 2.52818 24.0514 2.73756 24.0514H9.05335C9.26273 24.0514 9.46354 23.9682 9.61159 23.8202C9.75965 23.6721 9.84282 23.4713 9.84282 23.2619V16.9461C9.84282 16.7368 9.75965 16.5359 9.61159 16.3879C9.46354 16.2398 9.26273 16.1567 9.05335 16.1567ZM23.2639 16.1567H16.9481C16.7387 16.1567 16.5379 16.2398 16.3898 16.3879C16.2418 16.5359 16.1586 16.7368 16.1586 16.9461V23.2619C16.1586 23.4713 16.2418 23.6721 16.3898 23.8202C16.5379 23.9682 16.7387 24.0514 16.9481 24.0514H23.2639C23.4733 24.0514 23.6741 23.9682 23.8221 23.8202C23.9702 23.6721 24.0534 23.4713 24.0534 23.2619V16.9461C24.0534 16.7368 23.9702 16.5359 23.8221 16.3879C23.6741 16.2398 23.4733 16.1567 23.2639 16.1567ZM9.05335 0.367188C9.68149 0.367188 10.2839 0.616717 10.7281 1.06088C11.1722 1.50505 11.4218 2.10746 11.4218 2.73561V9.0514C11.4218 9.67954 11.1722 10.282 10.7281 10.7261C10.2839 11.1703 9.68149 11.4198 9.05335 11.4198H2.73756C2.10942 11.4198 1.507 11.1703 1.06284 10.7261C0.61867 10.282 0.369141 9.67954 0.369141 9.0514V2.73561C0.369141 2.10746 0.61867 1.50505 1.06284 1.06088C1.507 0.616717 2.10942 0.367188 2.73756 0.367188H9.05335ZM23.2639 0.367188C23.892 0.367188 24.4944 0.616717 24.9386 1.06088C25.3828 1.50505 25.6323 2.10746 25.6323 2.73561V9.0514C25.6323 9.67954 25.3828 10.282 24.9386 10.7261C24.4944 11.1703 23.892 11.4198 23.2639 11.4198H16.9481C16.3199 11.4198 15.7175 11.1703 15.2734 10.7261C14.8292 10.282 14.5797 9.67954 14.5797 9.0514V2.73561C14.5797 2.10746 14.8292 1.50505 15.2734 1.06088C15.7175 0.616717 16.3199 0.367188 16.9481 0.367188H23.2639ZM9.05335 1.94613H2.73756C2.52818 1.94613 2.32737 2.02931 2.17932 2.17737C2.03126 2.32542 1.94809 2.52623 1.94809 2.73561V9.0514C1.94809 9.26078 2.03126 9.46159 2.17932 9.60964C2.32737 9.7577 2.52818 9.84087 2.73756 9.84087H9.05335C9.26273 9.84087 9.46354 9.7577 9.61159 9.60964C9.75965 9.46159 9.84282 9.26078 9.84282 9.0514V2.73561C9.84282 2.52623 9.75965 2.32542 9.61159 2.17737C9.46354 2.02931 9.26273 1.94613 9.05335 1.94613ZM23.2639 1.94613H16.9481C16.7387 1.94613 16.5379 2.02931 16.3898 2.17737C16.2418 2.32542 16.1586 2.52623 16.1586 2.73561V9.0514C16.1586 9.26078 16.2418 9.46159 16.3898 9.60964C16.5379 9.7577 16.7387 9.84087 16.9481 9.84087H23.2639C23.4733 9.84087 23.6741 9.7577 23.8221 9.60964C23.9702 9.46159 24.0534 9.26078 24.0534 9.0514V2.73561C24.0534 2.52623 23.9702 2.32542 23.8221 2.17737C23.6741 2.02931 23.4733 1.94613 23.2639 1.94613Z" fill="black"/>
</svg>
