<svg width="50" height="50" viewBox="0 0 50 50" fill="none" xmlns="http://www.w3.org/2000/svg">
<path d="M49.5446 13.5076L25.4375 0.115706C25.3018 0.0373466 25.1478 -0.00390625 24.9911 -0.00390625C24.8344 -0.00390625 24.6804 0.0373466 24.5447 0.115706L0.437542 13.5076C0.302949 13.5874 0.191687 13.7011 0.114903 13.8375C0.0381195 13.9738 -0.00149006 14.1279 4.28621e-05 14.2843V49.1033C4.28621e-05 49.3401 0.0941116 49.5672 0.261555 49.7346C0.428998 49.902 0.656099 49.9961 0.892899 49.9961H49.1071C49.3439 49.9961 49.571 49.902 49.7385 49.7346C49.9059 49.5672 50 49.3401 50 49.1033V14.2843C49.9997 14.1261 49.9574 13.9709 49.8774 13.8344C49.7974 13.6979 49.6826 13.5851 49.5446 13.5076ZM48.2143 48.2105H1.78576V14.8111L25 1.91022L48.2143 14.8111V48.2105Z" fill="#D8A353"/>
<path d="M42.8571 17.8555H7.14286C6.90606 17.8555 6.67895 17.9495 6.51151 18.117C6.34407 18.2844 6.25 18.5115 6.25 18.7483V49.1033C6.25 49.34 6.34407 49.5671 6.51151 49.7346C6.67895 49.902 6.90606 49.996 7.14286 49.996H42.8571C43.0939 49.996 43.321 49.902 43.4885 49.7346C43.6559 49.5671 43.75 49.34 43.75 49.1033V18.7483C43.75 18.5115 43.6559 18.2844 43.4885 18.117C43.321 17.9495 43.0939 17.8555 42.8571 17.8555ZM8.03571 48.2105V19.6411H41.9643V48.2105H8.03571Z" fill="#D8A353"/>
<path d="M42.8571 24.105H7.14286C6.90606 24.105 6.67895 24.011 6.51151 23.8435C6.34407 23.6761 6.25 23.449 6.25 23.2122V18.7483C6.25 18.5115 6.34407 18.2844 6.51151 18.117C6.67895 17.9495 6.90606 17.8555 7.14286 17.8555H42.8571C43.0939 17.8555 43.321 17.9495 43.4885 18.117C43.6559 18.2844 43.75 18.5115 43.75 18.7483V23.2122C43.75 23.449 43.6559 23.6761 43.4885 23.8435C43.321 24.011 43.0939 24.105 42.8571 24.105ZM8.03571 22.3194H41.9643V19.6411H8.03571V22.3194Z" fill="#D8A353"/>
<path d="M42.8571 22.3203H7.14286C6.90606 22.3203 6.67895 22.4144 6.51151 22.5818C6.34407 22.7492 6.25 22.9763 6.25 23.2131V27.6771C6.25 27.9139 6.34407 28.1409 6.51151 28.3084C6.67895 28.4758 6.90606 28.5699 7.14286 28.5699H42.8571C43.0939 28.5699 43.321 28.4758 43.4885 28.3084C43.6559 28.1409 43.75 27.9139 43.75 27.6771V23.2131C43.75 22.9763 43.6559 22.7492 43.4885 22.5818C43.321 22.4144 43.0939 22.3203 42.8571 22.3203ZM41.9643 26.7843H8.03571V24.1059H41.9643V26.7843ZM42.8571 30.3555H32.1428C31.906 30.3555 31.6789 30.4495 31.5115 30.6169C31.344 30.7844 31.25 31.0115 31.25 31.2483V40.1762C31.25 40.413 31.344 40.6401 31.5115 40.8075C31.6789 40.9749 31.906 41.069 32.1428 41.069H42.8571C43.0939 41.069 43.321 40.9749 43.4885 40.8075C43.6559 40.6401 43.75 40.413 43.75 40.1762V31.2483C43.75 31.0115 43.6559 30.7844 43.4885 30.6169C43.321 30.4495 43.0939 30.3555 42.8571 30.3555ZM33.0357 39.2834V32.141H41.9643V39.2834H33.0357Z" fill="#D8A353"/>
<path d="M32.1462 39.2812H21.4319C21.1951 39.2812 20.968 39.3753 20.8006 39.5427C20.6331 39.7102 20.5391 39.9373 20.5391 40.174V49.102C20.5391 49.3388 20.6331 49.5659 20.8006 49.7333C20.968 49.9007 21.1951 49.9948 21.4319 49.9948H32.1462C32.383 49.9948 32.6101 49.9007 32.7775 49.7333C32.945 49.5659 33.0391 49.3388 33.0391 49.102V40.174C33.0391 39.9373 32.945 39.7102 32.7775 39.5427C32.6101 39.3753 32.383 39.2812 32.1462 39.2812ZM22.3248 48.2092V41.0668H31.2533V48.2092H22.3248Z" fill="#D8A353"/>
<path d="M42.8571 49.9948H32.1429C31.9061 49.9948 31.679 49.9007 31.5115 49.7333C31.3441 49.5659 31.25 49.3388 31.25 49.102V40.174C31.25 39.9373 31.3441 39.7102 31.5115 39.5427C31.679 39.3753 31.9061 39.2812 32.1429 39.2812H42.8571C43.0939 39.2812 43.321 39.3753 43.4885 39.5427C43.6559 39.7102 43.75 39.9373 43.75 40.174V49.102C43.75 49.3388 43.6559 49.5659 43.4885 49.7333C43.321 49.9007 43.0939 49.9948 42.8571 49.9948ZM33.0357 48.2092H41.9643V41.0668H33.0357V48.2092Z" fill="#D8A353"/>
<path opacity="0.5" d="M41.9676 28.5703V30.3559H32.1462C31.9094 30.3559 31.6823 30.45 31.5148 30.6174C31.3474 30.7848 31.2533 31.0119 31.2533 31.2487V39.2838H21.4319C21.1951 39.2838 20.968 39.3779 20.8006 39.5453C20.6331 39.7128 20.5391 39.9398 20.5391 40.1766V48.2118H8.03906V28.5703H41.9676Z" fill="#D8A353"/>
<path opacity="0.5" d="M33.0324 10.7148H16.9609V14.286H33.0324V10.7148Z" fill="#D8A353"/>
<path opacity="0.5" d="M26.7835 42.8546C26.5467 42.8546 26.3196 42.7605 26.1521 42.5931C25.9847 42.4257 25.8906 42.1986 25.8906 41.9618V40.1762C25.8906 39.9394 25.9847 39.7123 26.1521 39.5449C26.3196 39.3775 26.5467 39.2834 26.7835 39.2834C27.0203 39.2834 27.2474 39.3775 27.4148 39.5449C27.5823 39.7123 27.6763 39.9394 27.6763 40.1762V41.9618C27.6763 42.1986 27.5823 42.4257 27.4148 42.5931C27.2474 42.7605 27.0203 42.8546 26.7835 42.8546ZM37.4978 42.8546C37.261 42.8546 37.0339 42.7605 36.8664 42.5931C36.699 42.4257 36.6049 42.1986 36.6049 41.9618V40.1762C36.6049 39.9394 36.699 39.7123 36.8664 39.5449C37.0339 39.3775 37.261 39.2834 37.4978 39.2834C37.7346 39.2834 37.9617 39.3775 38.1291 39.5449C38.2965 39.7123 38.3906 39.9394 38.3906 40.1762V41.9618C38.3906 42.1986 38.2965 42.4257 38.1291 42.5931C37.9617 42.7605 37.7346 42.8546 37.4978 42.8546ZM37.4978 33.9266C37.261 33.9266 37.0339 33.8326 36.8664 33.6652C36.699 33.4977 36.6049 33.2706 36.6049 33.0339V31.2483C36.6049 31.0115 36.699 30.7844 36.8664 30.617C37.0339 30.4495 37.261 30.3555 37.4978 30.3555C37.7346 30.3555 37.9617 30.4495 38.1291 30.617C38.2965 30.7844 38.3906 31.0115 38.3906 31.2483V33.0339C38.3906 33.2706 38.2965 33.4977 38.1291 33.6652C37.9617 33.8326 37.7346 33.9266 37.4978 33.9266Z" fill="#D8A353"/>
</svg>
