<svg width="16" height="16" viewBox="0 0 16 16" fill="none" xmlns="http://www.w3.org/2000/svg">
<g clip-path="url(#clip0_1666_54155)">
<path d="M10.4856 2.59219C11.4416 1.63219 12.8403 1.61219 13.6143 2.38953C14.3903 3.16819 14.3696 4.57619 13.4123 5.53619L11.797 7.15819C11.706 7.25262 11.6558 7.37899 11.6571 7.5101C11.6584 7.6412 11.7112 7.76654 11.804 7.85911C11.8969 7.95169 12.0224 8.0041 12.1535 8.00505C12.2846 8.006 12.4108 7.95541 12.505 7.86419L14.121 6.24219C15.395 4.96286 15.555 2.92086 14.323 1.68353C13.0896 0.445525 11.0516 0.606859 9.77631 1.88619L6.54564 5.13086C5.27164 6.41019 5.11164 8.45219 6.34364 9.68886C6.38965 9.73671 6.44474 9.77492 6.50567 9.80126C6.56661 9.82759 6.63218 9.84153 6.69856 9.84226C6.76494 9.84299 6.83081 9.83049 6.89231 9.8055C6.95381 9.7805 7.00971 9.74351 7.05676 9.69668C7.10382 9.64985 7.14107 9.59412 7.16636 9.53273C7.19164 9.47135 7.20445 9.40555 7.20404 9.33917C7.20362 9.27278 7.18999 9.20715 7.16394 9.14609C7.13789 9.08503 7.09994 9.02976 7.05231 8.98352C6.27631 8.20486 6.29764 6.79686 7.25431 5.83686L10.4856 2.59219Z" fill="#797979"/>
<path d="M9.65567 6.31113C9.56196 6.21715 9.43476 6.16425 9.30204 6.16406C9.16933 6.16388 9.04198 6.21642 8.948 6.31013C8.85403 6.40384 8.80113 6.53104 8.80094 6.66375C8.80075 6.79647 8.85329 6.92382 8.947 7.01779C9.723 7.79646 9.70234 9.20379 8.745 10.1645L5.51367 13.4085C4.557 14.3685 3.15834 14.3885 2.38434 13.6111C1.60834 12.8325 1.62967 11.4245 2.58634 10.4645L4.20234 8.84246C4.24869 8.79593 4.28543 8.74072 4.31045 8.67999C4.33547 8.61926 4.34829 8.5542 4.34816 8.48852C4.34804 8.42283 4.33498 8.35782 4.30973 8.29719C4.28448 8.23655 4.24754 8.18148 4.201 8.13513C4.15447 8.08877 4.09927 8.05203 4.03854 8.02701C3.97781 8.00199 3.91274 7.98918 3.84706 7.9893C3.78138 7.98942 3.71636 8.00248 3.65573 8.02773C3.5951 8.05298 3.54003 8.08993 3.49367 8.13646L1.87767 9.75846C0.603671 11.0385 0.443671 13.0798 1.67567 14.3171C2.909 15.5558 4.947 15.3938 6.22234 14.1145L9.45367 10.8698C10.7277 9.59113 10.8877 7.54779 9.65567 6.31113Z" fill="#797979"/>
</g>
<defs>
<clipPath id="clip0_1666_54155">
<rect width="16" height="16" fill="white"/>
</clipPath>
</defs>
</svg>
