<svg width="22" height="20" viewBox="0 0 22 20" fill="none" xmlns="http://www.w3.org/2000/svg">
<path d="M20.7852 10.0019H7.78516M20.7852 17.6209H7.78516M20.7852 2.38281H7.78516" stroke="black" stroke-width="1.14286" stroke-linecap="round" stroke-linejoin="round"/>
<path fill-rule="evenodd" clip-rule="evenodd" d="M2.21271 4.28609C3.14128 4.28609 4.06985 3.33371 4.06985 2.38132C4.06985 1.42894 3.14128 0.476562 2.21271 0.476562C1.28414 0.476562 0.357422 1.42894 0.357422 2.38132C0.357422 3.33371 1.28414 4.28609 2.21271 4.28609ZM2.21271 11.9051C3.14128 11.9051 4.06985 10.9528 4.06985 10.0004C4.06985 9.04799 3.14128 8.09561 2.21271 8.09561C1.28414 8.09561 0.357422 9.04799 0.357422 10.0004C0.357422 10.9528 1.28414 11.9051 2.21271 11.9051ZM2.21271 19.5242C3.14128 19.5242 4.06985 18.5718 4.06985 17.6194C4.06985 16.667 3.14128 15.7147 2.21271 15.7147C1.28414 15.7147 0.357422 16.667 0.357422 17.6194C0.357422 18.5718 1.28414 19.5242 2.21271 19.5242Z" fill="black"/>
</svg>
