<svg width="16" height="16" viewBox="0 0 16 16" fill="none" xmlns="http://www.w3.org/2000/svg">
<path d="M2.66602 6.76187C2.66602 3.76359 5.05383 1.33301 7.99935 1.33301C10.9449 1.33301 13.3327 3.76359 13.3327 6.76187C13.3327 9.73667 11.6305 13.2079 8.97462 14.4493C8.35555 14.7387 7.64315 14.7387 7.02408 14.4493C4.36823 13.2079 2.66602 9.73667 2.66602 6.76187Z" stroke="#6A6A75"/>
<path d="M8 8.66699C9.10457 8.66699 10 7.77156 10 6.66699C10 5.56242 9.10457 4.66699 8 4.66699C6.89543 4.66699 6 5.56242 6 6.66699C6 7.77156 6.89543 8.66699 8 8.66699Z" stroke="#6A6A75"/>
</svg>
