<svg width="128" height="100" viewBox="0 0 128 100" fill="none" xmlns="http://www.w3.org/2000/svg">
<path d="M51.4233 99.9792C38.0803 100.359 25.3661 95.5237 15.6694 86.3429C5.95221 77.1841 0.400446 64.7663 0.0209189 51.4233C-0.360177 38.0803 4.47644 25.3661 13.6557 15.6694C22.8161 5.95221 35.2322 0.400446 48.5753 0.0209189C61.9199 -0.360177 74.6325 4.47644 84.3308 13.6557C94.048 22.8349 99.5982 35.2322 99.9792 48.5753C100.359 61.9199 95.5237 74.6325 86.3429 84.3308C77.1841 94.0464 64.7663 99.5982 51.4233 99.9792ZM48.6615 3.01636C36.1168 3.37393 24.4502 8.60419 15.834 17.727C7.21782 26.8481 2.65879 38.7938 3.01636 51.3386C3.37393 63.8834 8.60419 75.5484 17.727 84.1661C26.8481 92.7823 38.7938 97.3398 51.3386 96.9822C63.8834 96.6247 75.5484 91.3944 84.1661 82.2732C92.7823 73.1505 97.3398 61.2063 96.9822 48.6615C96.6247 36.1168 91.3944 24.4502 82.2732 15.834C73.1505 7.21782 61.2063 2.65879 48.6615 3.01636Z" fill="black"/>
<path d="M78.6842 83.867C78.8947 84.4063 79 84.9456 79 85.4848C79 86.496 78.5263 87 77.5815 87H62.1937C60.7728 87 59.8254 86.3259 59.3518 84.9777L49.7231 56.8767C49.5126 56.4755 49.3021 56.2732 49.0916 56.2732C48.8309 56.2732 48.4625 56.644 47.9889 57.3839L42.3851 66.584C42.0706 67.0559 41.914 67.7958 41.914 68.8053V84.066C41.914 85.1446 41.7035 85.9054 41.2824 86.3451C40.8614 86.7817 40.2023 87 39.3076 87H26.1302C25.3408 87 24.7882 86.7994 24.4712 86.3965C24.1566 85.9904 24 85.3484 24 84.4705V14.3241C24 13.5842 24.1303 13.0128 24.391 12.6099C24.6541 12.2038 25.0238 12 25.4987 12H40.4905C41.4391 12 41.914 12.7094 41.914 14.1251V39.6965C41.914 40.5054 42.0443 40.9099 42.3049 40.9099C42.5154 40.9099 42.7786 40.6755 43.0969 40.2036L57.6175 14.1251C58.0887 13.3161 58.5473 12.7608 58.9959 12.4558C59.4432 12.1525 60.1149 12 61.0108 12H73.0053C73.6368 12 74.1356 12.1525 74.504 12.4558C74.8711 12.7608 75.0553 13.1813 75.0553 13.7206C75.0553 14.1925 74.9225 14.5969 74.6593 14.934L61.7176 35.2473C61.3492 35.7866 61.1662 36.3612 61.1662 36.9679C61.1662 37.4398 61.2715 37.9438 61.482 38.4831L78.6842 83.867Z" fill="black"/>
<path d="M100.501 16C100.05 16 99.6001 16.011 99.1505 16.0331C98.7009 16.0552 98.253 16.0883 97.805 16.1325C97.357 16.1767 96.9106 16.2319 96.4642 16.2981C96.0193 16.3644 95.5761 16.4401 95.1344 16.5284C94.6943 16.6168 94.2542 16.7146 93.8188 16.8234C93.3819 16.9338 92.9481 17.0537 92.5175 17.1846C92.0868 17.314 91.6593 17.456 91.235 17.6074C90.8123 17.7588 90.3927 17.9213 89.9762 18.0932C89.5598 18.2652 89.1497 18.4482 88.7427 18.6406C88.3357 18.8331 87.9335 19.035 87.536 19.2463C87.14 19.4593 86.7488 19.6817 86.3623 19.912C85.9759 20.1439 85.5957 20.3852 85.2219 20.6345C84.848 20.8853 84.4805 21.144 84.1177 21.4121C83.7564 21.6803 83.4015 21.9563 83.0545 22.2419C82.7059 22.5274 82.3652 22.8208 82.0323 23.1236C81.6995 23.4265 81.373 23.7357 81.0543 24.0543C80.7357 24.373 80.4265 24.6979 80.1236 25.0323C79.8224 25.3652 79.5274 25.7059 79.2419 26.0545C78.9563 26.4015 78.6803 26.7564 78.4121 27.1177C78.144 27.4789 77.8853 27.848 77.6345 28.2219C77.3852 28.5957 77.1439 28.9759 76.912 29.3623C76.6817 29.7488 76.4593 30.14 76.2479 30.536C76.035 30.9335 75.8331 31.3357 75.6406 31.7427C75.4482 32.1497 75.2652 32.5598 75.0932 32.9762C74.9213 33.3927 74.7588 33.8123 74.6074 34.235C74.456 34.6593 74.3156 35.0868 74.1846 35.5175C74.0537 35.9481 73.9338 36.3819 73.825 36.8172C73.7146 37.2542 73.6168 37.6927 73.5284 38.1344C73.4401 38.5761 73.3644 39.0193 73.2981 39.4642C73.2319 39.9106 73.1767 40.357 73.1325 40.805C73.0883 41.253 73.0552 41.7009 73.0331 42.1505C73.011 42.6001 73 43.0496 73 43.4992C73 43.9504 73.011 44.3999 73.0331 44.8495C73.0552 45.299 73.0883 45.747 73.1325 46.195C73.1767 46.643 73.2319 47.0894 73.2981 47.5343C73.3644 47.9807 73.4401 48.4239 73.5284 48.864C73.6168 49.3057 73.7146 49.7458 73.825 50.1812C73.9338 50.6181 74.0537 51.0519 74.1846 51.4825C74.3156 51.9132 74.456 52.3407 74.6074 52.765C74.7588 53.1877 74.9213 53.6073 75.0932 54.0238C75.2652 54.4386 75.4482 54.8503 75.6406 55.2573C75.8331 55.6643 76.035 56.0665 76.2479 56.4625C76.4593 56.86 76.6817 57.2512 76.912 57.6376C77.1439 58.0241 77.3852 58.4043 77.6345 58.7781C77.8853 59.152 78.144 59.5195 78.4121 59.8807C78.6803 60.2436 78.9563 60.5985 79.2419 60.9455C79.5274 61.2941 79.8224 61.6348 80.1236 61.9677C80.4265 62.3005 80.7357 62.627 81.0543 62.9457C81.373 63.2627 81.6995 63.5735 82.0323 63.8764C82.3652 64.1776 82.7059 64.4726 83.0545 64.7581C83.4015 65.0437 83.7564 65.3197 84.1177 65.5879C84.4805 65.856 84.848 66.1147 85.2219 66.3655C85.5957 66.6148 85.9759 66.8561 86.3623 67.088C86.7488 67.3183 87.14 67.5407 87.536 67.7521C87.9335 67.965 88.3357 68.1669 88.7427 68.3594C89.1497 68.5518 89.5598 68.7348 89.9762 68.9068C90.3927 69.0787 90.8123 69.2412 91.235 69.3926C91.6593 69.544 92.0868 69.6844 92.5175 69.8154C92.9481 69.9463 93.3819 70.0662 93.8188 70.175C94.2542 70.2854 94.6943 70.3832 95.1344 70.4716C95.5761 70.5599 96.0193 70.6356 96.4642 70.7019C96.9106 70.7681 97.357 70.8233 97.805 70.8675C98.253 70.9117 98.7009 70.9448 99.1505 70.9669C99.6001 70.989 100.05 71 100.501 71C100.95 71 101.4 70.989 101.849 70.9669C102.299 70.9448 102.747 70.9117 103.195 70.8675C103.643 70.8233 104.089 70.7681 104.536 70.7019C104.981 70.6356 105.424 70.5599 105.866 70.4716C106.306 70.3832 106.746 70.2854 107.181 70.175C107.618 70.0662 108.052 69.9463 108.483 69.8154C108.913 69.6844 109.341 69.544 109.765 69.3926C110.188 69.2412 110.607 69.0787 111.024 68.9068C111.44 68.7348 111.85 68.5518 112.257 68.3594C112.664 68.1669 113.067 67.965 113.464 67.7521C113.86 67.5407 114.251 67.3183 114.638 67.088C115.024 66.8561 115.404 66.6148 115.778 66.3655C116.152 66.1147 116.52 65.856 116.882 65.5879C117.244 65.3197 117.598 65.0437 117.946 64.7581C118.294 64.4726 118.635 64.1776 118.968 63.8764C119.301 63.5735 119.627 63.2627 119.946 62.9457C120.264 62.627 120.573 62.3005 120.876 61.9677C121.178 61.6348 121.473 61.2941 121.758 60.9455C122.044 60.5985 122.32 60.2436 122.588 59.8807C122.856 59.5195 123.115 59.152 123.366 58.7781C123.615 58.4043 123.856 58.0241 124.088 57.6376C124.318 57.2512 124.541 56.86 124.752 56.4625C124.965 56.0665 125.167 55.6643 125.359 55.2573C125.552 54.8503 125.735 54.4386 125.907 54.0238C126.079 53.6073 126.241 53.1877 126.393 52.765C126.544 52.3407 126.684 51.9132 126.815 51.4825C126.946 51.0519 127.066 50.6181 127.175 50.1812C127.285 49.7458 127.383 49.3057 127.472 48.864C127.56 48.4239 127.636 47.9807 127.702 47.5343C127.768 47.0894 127.823 46.643 127.867 46.195C127.912 45.747 127.945 45.299 127.967 44.8495C127.989 44.3999 128 43.9504 128 43.4992C128 43.0496 127.989 42.6001 127.967 42.1505C127.945 41.7009 127.912 41.253 127.867 40.805C127.823 40.357 127.768 39.9106 127.702 39.4642C127.636 39.0193 127.56 38.5761 127.472 38.1344C127.383 37.6927 127.285 37.2542 127.175 36.8172C127.066 36.3819 126.946 35.9481 126.815 35.5175C126.684 35.0868 126.544 34.6593 126.393 34.235C126.241 33.8123 126.079 33.3927 125.907 32.9762C125.735 32.5598 125.552 32.1497 125.359 31.7427C125.167 31.3357 124.965 30.9335 124.752 30.536C124.541 30.14 124.318 29.7488 124.088 29.3623C123.856 28.9759 123.615 28.5957 123.366 28.2219C123.115 27.848 122.856 27.4789 122.588 27.1177C122.32 26.7564 122.044 26.4015 121.758 26.0545C121.473 25.7059 121.178 25.3652 120.876 25.0323C120.573 24.6979 120.264 24.373 119.946 24.0543C119.627 23.7357 119.301 23.4265 118.968 23.1236C118.635 22.8208 118.294 22.5274 117.946 22.2419C117.598 21.9563 117.244 21.6803 116.882 21.4121C116.52 21.144 116.152 20.8853 115.778 20.6345C115.404 20.3852 115.024 20.1439 114.638 19.912C114.251 19.6817 113.86 19.4593 113.464 19.2463C113.067 19.035 112.664 18.8331 112.257 18.6406C111.85 18.4482 111.44 18.2652 111.024 18.0932C110.607 17.9213 110.188 17.7588 109.765 17.6074C109.341 17.456 108.913 17.314 108.483 17.1846C108.052 17.0537 107.618 16.9338 107.181 16.8234C106.746 16.7146 106.306 16.6168 105.866 16.5284C105.424 16.4401 104.981 16.3644 104.536 16.2981C104.089 16.2319 103.643 16.1767 103.195 16.1325C102.747 16.0883 102.299 16.0552 101.849 16.0331C101.4 16.011 100.95 16 100.501 16Z" fill="#FFDE59"/>
<path d="M93.7371 30.9609C93.8344 30.9609 93.8842 31.0346 93.8842 31.1805V40.377C93.8842 40.4444 93.8616 40.5009 93.8178 40.5463C93.7762 40.5887 93.7229 40.6091 93.6564 40.6091H92.3089C92.2484 40.6091 92.201 40.5965 92.1666 40.5714C92.131 40.5463 92.0907 40.4946 92.0432 40.4146L89.3387 35.5654C89.3126 35.52 89.2889 35.5011 89.2676 35.509C89.2486 35.5184 89.2391 35.5451 89.2391 35.5905V40.3205C89.245 40.4256 89.2308 40.5009 89.1964 40.5463C89.1608 40.5887 89.0979 40.6091 89.0066 40.6091H87.6686C87.5037 40.6091 87.4219 40.5244 87.4219 40.3519V31.262C87.4219 31.0613 87.493 30.9609 87.6354 30.9609H89.2391C89.3245 30.9609 89.3874 30.9766 89.4289 31.0048C89.4728 31.0346 89.5214 31.0974 89.576 31.193L91.9341 35.5404C91.9744 35.6156 92.0112 35.6533 92.0432 35.6533C92.0741 35.6533 92.0907 35.5968 92.0907 35.4839V31.2307C92.0907 31.0519 92.163 30.9609 92.3089 30.9609H93.7371Z" fill="black"/>
<path d="M98.2318 40.7476C97.5165 40.7476 96.8914 40.5468 96.3576 40.1453C95.8227 39.7407 95.4099 39.1667 95.1193 38.4265C94.831 37.6831 94.6875 36.8127 94.6875 35.8168C94.6875 34.8225 94.8322 33.9506 95.124 33.2009C95.4182 32.4481 95.8322 31.8679 96.3671 31.457C96.9009 31.043 97.5225 30.8359 98.2318 30.8359C98.9305 30.8359 99.5461 31.043 100.077 31.457C100.609 31.8679 101.019 32.4481 101.311 33.2009C101.605 33.9506 101.752 34.8225 101.752 35.8168C101.752 36.8049 101.606 37.6721 101.316 38.4202C101.028 39.1651 100.618 39.7407 100.087 40.1453C99.5556 40.5468 98.9364 40.7476 98.2318 40.7476ZM98.2318 38.715C98.5189 38.715 98.749 38.6241 98.9198 38.439C99.0906 38.2508 99.214 37.9497 99.2899 37.5357C99.3682 37.1185 99.4085 36.5571 99.4085 35.8545C99.4085 34.7802 99.316 34.0086 99.1333 33.5397C98.9494 33.0723 98.6493 32.8371 98.2318 32.8371C97.8048 32.8371 97.4976 33.0723 97.3113 33.5397C97.1239 34.0086 97.0314 34.7802 97.0314 35.8545C97.0314 36.5571 97.0693 37.1185 97.1453 37.5357C97.2236 37.9497 97.3505 38.2508 97.5248 38.439C97.698 38.6241 97.9341 38.715 98.2318 38.715Z" fill="black"/>
<path d="M112.406 30.9609C112.503 30.9609 112.579 30.9954 112.634 31.0613C112.691 31.124 112.719 31.2119 112.719 31.3248C112.719 31.3593 112.712 31.411 112.7 31.4816L110.703 40.2829C110.671 40.3958 110.628 40.4805 110.575 40.5338C110.524 40.584 110.449 40.6091 110.352 40.6091H108.99C108.8 40.6091 108.683 40.5009 108.639 40.2829L107.614 35.7035C107.595 35.5952 107.573 35.5404 107.548 35.5404C107.529 35.5404 107.498 35.6062 107.457 35.7348L106.447 40.2829C106.418 40.3958 106.376 40.4805 106.319 40.5338C106.264 40.584 106.188 40.6091 106.091 40.6091H104.682C104.583 40.6091 104.507 40.584 104.454 40.5338C104.403 40.4805 104.362 40.3958 104.331 40.2829L102.324 31.4816C102.311 31.411 102.305 31.3593 102.305 31.3248C102.305 31.2119 102.331 31.124 102.385 31.0613C102.442 30.9954 102.519 30.9609 102.618 30.9609H104.241C104.338 30.9609 104.409 30.9845 104.454 31.0299C104.501 31.0723 104.536 31.1397 104.558 31.2307L105.598 36.0548C105.617 36.1598 105.64 36.2116 105.669 36.2116C105.688 36.2116 105.703 36.1786 105.716 36.1112L106.75 31.2307C106.781 31.0519 106.886 30.9609 107.064 30.9609H108.44C108.537 30.9609 108.608 30.9845 108.653 31.0299C108.701 31.0723 108.735 31.1397 108.758 31.2307L109.839 36.1739C109.851 36.2288 109.87 36.2602 109.896 36.268C109.921 36.2775 109.939 36.2539 109.948 36.199L110.95 31.2307C110.98 31.0519 111.085 30.9609 111.263 30.9609H112.406Z" fill="black"/>
<path d="M87.3594 44.262C87.3594 44.1742 87.3795 44.1037 87.4211 44.0488C87.4649 43.9907 87.5266 43.9609 87.6061 43.9609H93.4895C93.5655 43.9609 93.6236 43.9907 93.6651 44.0488C93.709 44.1037 93.7315 44.1742 93.7315 44.262V45.8053C93.7315 45.9731 93.6604 46.0562 93.518 46.0562H91.7767C91.6972 46.0562 91.6581 46.0985 91.6581 46.1816V53.3205C91.6581 53.4177 91.6403 53.4899 91.6059 53.5401C91.5739 53.5871 91.53 53.6091 91.473 53.6091H89.6036C89.4826 53.6091 89.4233 53.5244 89.4233 53.3519V46.2381C89.4233 46.1173 89.3877 46.0562 89.3189 46.0562H87.5871C87.4353 46.0562 87.3594 45.9731 87.3594 45.8053V44.262Z" fill="black"/>
<path d="M96.5623 43.9609C96.6785 43.9609 96.7378 44.0519 96.7378 44.2307V53.2327C96.7378 53.3707 96.7105 53.4695 96.6572 53.5275C96.6062 53.5824 96.5255 53.6091 96.4152 53.6091H94.7735C94.6751 53.6091 94.6051 53.584 94.5647 53.5338C94.5268 53.4805 94.5078 53.3958 94.5078 53.2829V44.262C94.5078 44.1664 94.5232 44.0927 94.5553 44.0425C94.5897 43.9892 94.6359 43.9609 94.6929 43.9609H96.5623Z" fill="black"/>
<path d="M101.039 43.8359C101.582 43.8359 102.075 43.9645 102.515 44.2186C102.953 44.4742 103.314 44.8271 103.596 45.2788C103.878 45.7304 104.061 46.248 104.147 46.8282C104.166 46.9333 104.175 47.0149 104.175 47.0729C104.175 47.1529 104.163 47.2046 104.142 47.2297C104.119 47.2548 104.078 47.2721 104.019 47.2799L102.296 47.4242C102.232 47.4242 102.19 47.4101 102.168 47.3803C102.149 47.3521 102.13 47.2846 102.111 47.1795C102.051 46.7624 101.942 46.433 101.784 46.1947C101.629 45.9563 101.401 45.8371 101.101 45.8371C100.712 45.8371 100.413 46.0629 100.204 46.5146C99.9951 46.9663 99.8908 47.6986 99.8908 48.7102C99.8908 49.7609 99.9868 50.5075 100.18 50.9497C100.372 51.3935 100.675 51.6147 101.086 51.6147C101.434 51.6147 101.732 51.4986 101.978 51.2634C102.225 51.0297 102.43 50.6392 102.595 50.0903C102.614 50.015 102.669 49.9774 102.761 49.9774C102.805 49.9774 102.842 49.9821 102.87 49.9899L104.099 50.3099C104.197 50.3569 104.246 50.4573 104.246 50.611C104.246 50.8541 104.133 51.2304 103.905 51.7401C103.679 52.2467 103.326 52.7093 102.842 53.1265C102.36 53.5405 101.753 53.7476 101.02 53.7476C100.324 53.7476 99.7128 53.528 99.1885 53.0889C98.6666 52.6497 98.261 52.0475 97.9739 51.2822C97.6892 50.5137 97.5469 49.6386 97.5469 48.66C97.5469 47.6908 97.6892 46.8408 97.9739 46.1131C98.261 45.3854 98.6678 44.8255 99.1933 44.4319C99.7211 44.0351 100.337 43.8359 101.039 43.8359Z" fill="black"/>
<path d="M105.016 44.262C105.016 44.0613 105.077 43.9609 105.201 43.9609H110.515C110.631 43.9609 110.69 44.0519 110.69 44.2307L110.681 45.7425C110.681 45.9778 110.595 46.0938 110.425 46.0938H107.473C107.322 46.0938 107.246 46.1754 107.246 46.3385V47.4425C107.246 47.5304 107.261 47.5994 107.293 47.6496C107.327 47.6966 107.371 47.7186 107.426 47.7186H109.196C109.331 47.7186 109.4 47.8048 109.4 47.9758V49.588C109.4 49.7385 109.34 49.8138 109.224 49.8138H107.407C107.36 49.8138 107.319 49.8311 107.288 49.864C107.26 49.8985 107.246 49.9424 107.246 49.9957V51.2943C107.246 51.3664 107.253 51.4135 107.269 51.4386C107.288 51.4637 107.319 51.4762 107.364 51.4762H110.562C110.707 51.4762 110.78 51.5577 110.78 51.7209V53.3205C110.78 53.4083 110.759 53.4805 110.719 53.5338C110.681 53.584 110.622 53.6091 110.543 53.6091H105.281C105.183 53.6091 105.113 53.584 105.073 53.5338C105.035 53.4805 105.016 53.3958 105.016 53.2829V44.262Z" fill="black"/>
<path d="M113.048 43.9609C113.829 43.9609 114.315 43.9656 114.505 43.9735C115.783 44.0331 116.749 44.491 117.404 45.3473C118.061 46.2005 118.391 47.339 118.391 48.7599C118.391 49.7134 118.242 50.554 117.945 51.2817C117.651 52.0094 117.211 52.5803 116.626 52.9943C116.044 53.4052 115.333 53.6091 114.496 53.6091H111.91C111.811 53.6091 111.739 53.5808 111.691 53.5213C111.646 53.4585 111.625 53.3582 111.625 53.2201V44.2871C111.625 44.1664 111.644 44.0833 111.682 44.0362C111.722 43.986 111.792 43.9609 111.891 43.9609H113.048ZM113.955 45.9997C113.923 45.9997 113.898 46.0154 113.879 46.0436C113.862 46.0687 113.855 46.1158 113.855 46.1816V51.3696C113.855 51.4495 113.865 51.5044 113.883 51.5327C113.905 51.5577 113.942 51.5703 113.993 51.5703H114.064C114.711 51.5703 115.205 51.3476 115.544 50.8991C115.882 50.4521 116.052 49.726 116.052 48.7223C116.052 47.8534 115.924 47.2073 115.667 46.7839C115.411 46.3573 115.036 46.1158 114.543 46.0562L113.955 45.9997Z" fill="black"/>
</svg>
