<svg width="16" height="16" viewBox="0 0 16 16" fill="none" xmlns="http://www.w3.org/2000/svg">
<g clip-path="url(#clip0_1244_116841)">
<path d="M14.1338 12.2427L14.1216 11.3008L13.58 11.3076C13.5333 11.1381 13.4625 10.9759 13.3698 10.8258L13.7477 10.4444L13.0618 9.78685L12.684 10.1682C12.529 10.081 12.3623 10.0155 12.1888 9.97386L12.1818 9.44141L11.2242 9.45347L11.2312 9.98619C11.0588 10.0321 10.8939 10.1017 10.7413 10.1929L10.3536 9.82121L9.68504 10.4958L10.0728 10.8675C9.98405 11.02 9.91753 11.1839 9.87517 11.3546L9.33384 11.3614L9.3461 12.3033L9.8877 12.2965C9.93517 12.4683 10.0061 12.6299 10.0978 12.7783L9.71997 13.1597L10.4058 13.8173L10.7837 13.4359C10.937 13.5222 11.1032 13.588 11.2789 13.6303L11.2858 14.1627L12.2434 14.1506L12.2365 13.6179C12.4088 13.572 12.5737 13.5024 12.7264 13.4112L13.1141 13.7829L13.7826 13.1083L13.3949 12.7366C13.4826 12.5858 13.5496 12.4224 13.5925 12.2495L14.1338 12.2427ZM11.7384 12.5785C11.6322 12.5811 11.5266 12.5631 11.4276 12.5253C11.3286 12.4875 11.2382 12.4308 11.1617 12.3584C11.0852 12.286 11.0241 12.1993 10.9819 12.1035C10.9397 12.0076 10.9172 11.9045 10.9159 11.8001C10.9145 11.6957 10.9343 11.592 10.974 11.4951C11.0137 11.3983 11.0725 11.3101 11.1471 11.2358C11.2217 11.1615 11.3106 11.1025 11.4086 11.0622C11.5065 11.022 11.6117 11.0013 11.7178 11.0013C11.9287 11.0013 12.1311 11.083 12.2811 11.2288C12.4311 11.3745 12.5168 11.5725 12.5195 11.7799C12.5222 11.9873 12.4417 12.1874 12.2955 12.3368C12.1493 12.4863 11.9492 12.5731 11.7384 12.5785ZM6.66718 12.2427L6.65491 11.3008L6.11331 11.3076C6.06661 11.1381 5.99587 10.9759 5.90318 10.8258L6.28104 10.4444L5.59518 9.78685L5.21731 10.1682C5.06231 10.081 4.89562 10.0155 4.72211 9.97386L4.71518 9.44141L3.75758 9.45347L3.76452 9.98619C3.59217 10.0321 3.42727 10.1017 3.27465 10.1929L2.88692 9.82121L2.21839 10.4958L2.60612 10.8675C2.5174 11.02 2.45088 11.1839 2.40852 11.3546L1.86719 11.3614L1.87945 12.3033L2.42105 12.2965C2.46852 12.4683 2.53945 12.6299 2.63119 12.7783L2.25332 13.1597L2.93919 13.8173L3.31705 13.4359C3.47038 13.5222 3.63652 13.588 3.81225 13.6303L3.81918 14.1627L4.77678 14.1506L4.76985 13.6179C4.94219 13.572 5.1071 13.5024 5.25971 13.4112L5.64745 13.7829L6.31598 13.1083L5.92824 12.7366C6.01598 12.5858 6.08291 12.4224 6.12584 12.2495L6.66718 12.2427ZM4.27172 12.5785C4.16557 12.5811 4.05994 12.5631 3.96095 12.5253C3.86197 12.4875 3.77159 12.4308 3.69508 12.3584C3.61857 12.286 3.55743 12.1993 3.51523 12.1035C3.47303 12.0076 3.4506 11.9045 3.44924 11.8001C3.44788 11.6957 3.46762 11.592 3.50731 11.4951C3.547 11.3983 3.60586 11.3101 3.68047 11.2358C3.75507 11.1615 3.84394 11.1025 3.94191 11.0622C4.03988 11.022 4.145 11.0013 4.25118 11.0013C4.46205 11.0013 4.66441 11.083 4.81445 11.2288C4.96449 11.3745 5.05014 11.5725 5.05284 11.7799C5.05554 11.9873 4.97508 12.1874 4.82888 12.3368C4.68268 12.4863 4.48251 12.5731 4.27172 12.5785Z" fill="black"/>
<path d="M12.5333 8.39345H8.93333L7.73333 7.60657V8.39345H3.46668C3.01114 8.39198 2.55982 8.47939 2.13885 8.65061C1.71788 8.82183 1.3356 9.07347 1.01415 9.39096C0.691343 9.70712 0.435498 10.0831 0.261422 10.4972C0.0873457 10.9113 -0.00150274 11.3552 1.92272e-05 11.8033C1.92272e-05 13.6834 1.55522 15.2131 3.46668 15.2131H6.8L8 16V15.2131H12.5333C12.9889 15.2146 13.4402 15.1272 13.8612 14.956C14.2821 14.7847 14.6644 14.5331 14.9858 14.2156C15.3087 13.8994 15.5645 13.5234 15.7386 13.1094C15.9127 12.6953 16.0015 12.2514 16 11.8033C16 9.92315 14.4448 8.39345 12.5333 8.39345ZM14.6088 13.8447C14.3367 14.1133 14.0132 14.3262 13.657 14.471C13.3007 14.6159 12.9188 14.6898 12.5333 14.6885H8V13.9016L6.8 14.6885H3.46668C1.84935 14.6885 0.533351 13.3941 0.533351 11.8033C0.533351 11.0311 0.838151 10.3058 1.39122 9.76184C1.66329 9.49324 1.9868 9.28037 2.34305 9.13553C2.69929 8.9907 3.0812 8.91677 3.46668 8.91804H7.73333V9.70493L8.93333 8.91804H12.5333C14.1507 8.91804 15.4666 10.2125 15.4666 11.8033C15.4666 12.5755 15.1618 13.3007 14.6088 13.8447ZM12.8 7.86886V6.0328H13.6L12.5333 4.45903L11.4667 6.0328H12.2667V7.86886H12.8ZM5.68081 1.64277L5.25921 1.32146C5.14212 1.47004 5.03767 1.62787 4.94694 1.79333L5.41654 2.04225C5.49281 1.90323 5.58161 1.76893 5.68081 1.64277ZM11.28 4.51647L10.7755 4.34598C10.7229 4.4964 10.6578 4.64229 10.5808 4.78218L11.0499 5.03214C11.1408 4.8669 11.2181 4.69352 11.28 4.51647ZM10.7365 5.50349L10.3157 5.18113C10.2168 5.30598 10.1067 5.42401 9.98773 5.53208L10.3493 5.91739C10.4897 5.7901 10.6192 5.65167 10.7365 5.50349ZM9.89813 6.26336L9.60586 5.82427C9.4712 5.91109 9.328 5.98768 9.18026 6.05168L9.39573 6.53168C9.5704 6.45596 9.73844 6.36621 9.89813 6.26336ZM9.3824 0.281722C9.207 0.206732 9.02558 0.146197 8.84 0.100739L8.71146 0.609853C8.86828 0.648328 9.0216 0.699475 9.16986 0.762771L9.3824 0.281722ZM6.59787 0.290378L6.81414 0.769853C6.96188 0.705662 7.11476 0.653551 7.2712 0.61405L7.1392 0.105723C6.9544 0.152411 6.77227 0.214313 6.59787 0.290378ZM11.4667 3.40251L11.34 3.39936L10.9333 3.40985C10.9333 3.56906 10.92 3.72906 10.8939 3.88487L11.42 3.97037C11.4509 3.78624 11.4667 3.59765 11.4667 3.40251ZM6.82507 6.05431C6.677 5.99055 6.53456 5.91483 6.3992 5.82795L6.10747 6.26703C6.2672 6.36985 6.43654 6.45955 6.6112 6.53483L6.82507 6.05431ZM4.57894 2.85615L5.10534 2.9406C5.13147 2.78401 5.17094 2.629 5.22267 2.47897L4.71761 2.30979C4.65637 2.4879 4.61 2.67062 4.57894 2.85615ZM6.096 0.560017C5.93734 0.662574 5.78561 0.779296 5.64561 0.906771L6.00774 1.29208C6.1264 1.18402 6.25467 1.08513 6.38907 0.998049L6.096 0.560017ZM5.65574 5.92159L6.0168 5.53523C5.89761 5.42759 5.78764 5.31047 5.68801 5.18506L5.26801 5.50821C5.38481 5.65562 5.51547 5.79437 5.65574 5.92159ZM5.10721 3.89064C5.08054 3.7351 5.06694 3.57536 5.06667 3.41562L4.53334 3.41667C4.53361 3.605 4.54988 3.79385 4.58134 3.97772L5.10721 3.89064ZM5.42214 4.78742C5.34498 4.64783 5.27969 4.50219 5.22694 4.35201L4.72267 4.52303C4.78481 4.70008 4.86241 4.87319 4.95361 5.03791L5.42214 4.78742ZM10.3389 0.893132C10.1979 0.766419 10.0466 0.651321 9.8864 0.549001L9.59573 0.988607C9.7304 1.0749 9.85946 1.173 9.9792 1.28054L10.3389 0.893132ZM7.71813 6.80867L7.7608 6.28565C7.5997 6.27305 7.43994 6.24726 7.2832 6.20854L7.15334 6.71713C7.3376 6.76276 7.52747 6.79345 7.71813 6.80867ZM11.4176 2.83542C11.3858 2.64987 11.3381 2.46728 11.2752 2.28959L10.7715 2.46165C10.8245 2.61195 10.8651 2.76697 10.8917 2.92251L11.4176 2.83542ZM7.70347 0.0123456L7.748 0.534837C7.90921 0.521549 8.07125 0.521111 8.23253 0.533525L8.27547 0.0105096C8.08506 -0.00409155 7.89377 -0.00347752 7.70347 0.0123456ZM10.3085 1.62913C10.4083 1.75398 10.4979 1.88749 10.5752 2.02677L11.0429 1.7747C10.9512 1.61006 10.8459 1.45311 10.728 1.30546L10.3085 1.62913ZM8.28987 6.80814C8.48022 6.79256 8.66894 6.76159 8.85413 6.71555L8.72346 6.20696C8.5672 6.24578 8.40667 6.27227 8.2456 6.28565L8.28987 6.80814ZM7.46667 1.83608H8.53333V3.14756H7.46667V1.83608Z" fill="black"/>
<path d="M9.59842 1.83594H8.79842V3.14741C8.79842 3.21698 8.77033 3.28369 8.72032 3.33288C8.67031 3.38207 8.60248 3.40971 8.53176 3.40971H7.46509C7.39437 3.40971 7.32654 3.38207 7.27653 3.33288C7.22652 3.28369 7.19843 3.21698 7.19843 3.14741V1.83594H6.39843V4.98348H9.59842V1.83594ZM3.73177 7.60642V5.77036H4.53177L3.4651 4.19659L2.39844 5.77036H3.19844V7.60642H3.73177Z" fill="black"/>
</g>
<defs>
<clipPath id="clip0_1244_116841">
<rect width="16" height="16" fill="white"/>
</clipPath>
</defs>
</svg>
