<svg width="50" height="55" viewBox="0 0 50 55" fill="none" xmlns="http://www.w3.org/2000/svg">
<path d="M43.27 29.786C43.7564 30.2842 44.0048 30.9183 44.0048 31.572V37.6967C44.004 38.3768 43.7405 39.0288 43.272 39.5095C42.8036 39.9901 42.1687 40.2601 41.5067 40.2601H40.0093V43.8229C40.0093 44.9038 39.7345 45.7432 39.1893 46.3033C38.6897 46.8165 37.9946 47.4098 37.0291 47.4098H11.6527C10.8386 47.4098 9.87902 46.972 9.22804 46.3033C8.57706 45.6345 8.14062 44.6577 8.14062 43.8229V9.10971C8.14062 8.11938 8.72842 7.42342 9.22804 6.91165C9.77322 6.35156 10.5991 6.08737 11.6527 6.08737H28.2725C28.3357 6.08737 28.3989 6.06473 28.4606 6.06322C28.537 6.0602 28.612 6.03906 28.6884 6.03906C28.9367 6.03906 29.2673 6.0602 29.6141 6.22475L29.7361 6.28061C30.0476 6.42403 30.4047 6.58858 30.7118 6.95694L39.4435 17.4883C39.708 17.8069 39.8505 18.1556 39.9608 18.4636C40.1018 18.8561 40.0401 19.1927 40.021 19.4403C40.0166 19.5068 40.0078 19.5747 40.0078 19.6411V29.0599H41.5052C42.1415 29.0599 42.7836 29.2879 43.2686 29.7875L43.27 29.786ZM29.0469 7.6544V16.3969C29.0469 16.8498 29.2791 17.3857 29.62 17.7374C29.9654 18.0907 30.4797 18.3368 30.9161 18.3368H38.1401L29.598 7.96992C29.5128 7.86726 29.3585 7.79329 29.1086 7.67856L29.0469 7.6544ZM38.5236 43.8259V40.2616H21.1073C20.444 40.2612 19.8078 39.9916 19.3371 39.5115C18.8665 39.0313 18.5995 38.3796 18.5945 37.6982V31.5735C18.5945 30.9198 18.8502 30.2873 19.3366 29.7891C19.8215 29.2909 20.471 29.0614 21.1073 29.0614H38.5236V19.863H30.9161C30.0785 19.863 29.1968 19.4615 28.5679 18.8168C27.9419 18.1752 27.5598 17.2604 27.5598 16.3969V7.61213H11.6542C11.2118 7.61213 10.624 7.66346 10.3037 7.99106C9.85992 8.44697 9.67623 8.77004 9.67623 9.10971V43.8229C9.67623 44.2456 9.94221 44.8525 10.3052 45.2238C10.6667 45.5952 11.2427 45.8836 11.6542 45.8836H37.0277C37.3598 45.8836 37.6919 45.6798 38.1371 45.2238C38.456 44.8962 38.5236 44.2773 38.5236 43.8229V43.8259ZM23.9978 17.5729C24.0727 17.6484 24.1433 17.7601 24.155 17.8491C24.1932 18.1541 24.1653 18.45 24.0257 18.6644C23.9486 18.7783 23.8336 18.8594 23.7024 18.8923C23.5962 18.9191 23.487 18.9318 23.3777 18.9301C22.662 18.9301 21.5276 18.5587 20.6062 18.0243C19.3968 18.21 18.017 18.5481 16.8047 18.9542C15.7555 20.8413 14.9943 21.6837 14.336 21.6837C14.2133 21.6826 14.0925 21.6521 13.9833 21.5946L13.7202 21.4587C13.5557 21.3636 13.5321 21.1538 13.5645 20.9908C13.6659 20.4805 14.2772 19.8374 15.1985 19.2697C15.3073 19.2033 15.7702 18.9512 15.7893 18.9406L16.0597 18.7927C16.3212 18.3322 16.6092 17.7873 16.9266 17.1472L16.9678 17.0671C17.2705 16.4557 17.6114 15.7643 17.8862 15.0774L17.9832 14.8328C17.6011 13.3292 17.391 12.1698 17.5953 11.3938C17.6629 11.1462 17.9185 10.9802 18.233 10.9802H18.2374L18.4035 10.9862C18.6841 10.9726 18.8649 11.2036 18.956 11.4225L18.9854 11.498C19.0077 11.5593 19.0225 11.6232 19.0295 11.6882C19.1176 12.3555 18.7797 14.3256 18.7797 14.3256C18.7631 14.4018 18.7455 14.4778 18.7268 14.5536C19.0383 15.4322 19.5379 16.2293 20.136 16.806C20.3564 17.0203 20.6415 17.1985 20.9148 17.3615C21.4723 17.2765 22.0352 17.2336 22.5988 17.2332C23.3145 17.2438 23.7862 17.3585 23.9978 17.5729ZM14.1949 21.1689C14.5182 21.0179 15.009 20.5394 15.7408 19.3362C15.6588 19.4176 15.575 19.4972 15.4895 19.5747C14.7886 20.1635 14.3139 20.8322 14.1964 21.1689H14.1949ZM18.3447 11.3289C18.2477 11.3289 18.2565 12.1049 18.2565 12.1049C18.2565 12.5125 18.3138 13.1345 18.4329 13.53C18.5798 13.2628 18.6959 12.902 18.6856 12.3887C18.6753 11.8754 18.5548 11.3289 18.3447 11.3289ZM17.1059 18.3413C17.9141 18.0212 18.8311 17.7586 19.8921 17.5412C19.2631 17.0363 18.7427 16.403 18.3638 15.6813C18.1845 16.1583 17.9435 16.7395 17.5629 17.4808C17.4072 17.7842 17.2543 18.0696 17.1074 18.3413H17.1059ZM23.795 18.2794C23.8597 18.2371 23.8538 18.0379 23.4776 17.9382C23.1014 17.8401 22.9868 17.8416 22.6018 17.8416C22.3916 17.8416 22.1565 17.8507 21.9008 17.8703C22.5665 18.1647 23.0426 18.3443 23.4262 18.3443C23.5521 18.3479 23.6774 18.3258 23.795 18.2794ZM25.4335 35.1152H27.1351C27.4232 35.1152 27.6509 35.0895 27.8184 35.0382C27.9943 34.9817 28.1562 34.887 28.2931 34.7604C28.4629 34.602 28.5942 34.405 28.6766 34.1852C28.7693 33.9487 28.8162 33.6959 28.8147 33.4409C28.8147 33.1269 28.7457 32.8371 28.6061 32.5683C28.446 32.2397 28.1678 31.9879 27.8302 31.8664C27.6348 31.7999 27.3115 31.7667 26.8603 31.7667H24.3725V36.9116H25.4335V35.1152ZM25.4335 34.1973V32.6846H26.8956C27.0808 32.6846 27.2145 32.7027 27.2997 32.7389C27.5334 32.8371 27.6509 33.0575 27.6509 33.4032C27.6509 33.7202 27.573 33.9452 27.4187 34.0735C27.3144 34.155 27.1322 34.1973 26.875 34.1973H25.4335ZM29.4863 31.7667V36.9116H31.5994C32.0623 36.9116 32.4076 36.8905 32.6339 36.8467C32.8602 36.8029 33.0689 36.7199 33.257 36.5961C33.5568 36.3953 33.7698 36.0844 33.8992 35.6632C34.0285 35.251 34.0931 34.8147 34.0931 34.3498C34.0931 33.8833 34.027 33.444 33.8918 33.0318C33.8101 32.7753 33.671 32.542 33.4858 32.3507C33.3005 32.1593 33.0742 32.0151 32.825 31.9298C32.5355 31.8211 32.127 31.7667 31.5994 31.7667H29.4863ZM30.5473 32.6846H31.5994C32.0079 32.6846 32.3062 32.7722 32.4958 32.9473C32.6449 33.1049 32.7531 33.2986 32.8103 33.5104C32.8896 33.7625 32.9278 34.0388 32.9278 34.3437C32.9278 34.6154 32.8955 34.8721 32.8279 35.1136C32.7603 35.3567 32.6721 35.5439 32.5634 35.6783C32.3841 35.8896 32.0638 35.9953 31.5994 35.9953H30.5473V32.6846ZM38.7969 33.8727H35.8256V33.5949C35.8359 33.1888 35.9799 32.9261 36.2577 32.8084C36.3973 32.7359 36.7132 32.6952 37.207 32.6846H38.794V31.7667H37.0688C36.4869 31.7667 36.0358 31.8392 35.714 31.9826C35.393 32.1268 35.1325 32.3837 34.9792 32.7072C34.844 32.9488 34.7735 33.456 34.7706 34.2275V36.9116H35.8227V34.7906H38.794V33.8727H38.7969Z" fill="#DF0C0C"/>
</svg>
