<svg width="8" height="12" viewBox="0 0 8 12" fill="none" xmlns="http://www.w3.org/2000/svg">
<path d="M3.99724 5.99495L2.60538 7.37327C1.2301 8.73518 0.54245 9.41614 0.734962 10.0037C0.75151 10.0542 0.772059 10.1033 0.796419 10.1506C1.07981 10.7008 2.05229 10.7008 3.99724 10.7008C5.9422 10.7008 6.91467 10.7008 7.19807 10.1506C7.22243 10.1033 7.24298 10.0542 7.25952 10.0037C7.45203 9.41614 6.76439 8.73518 5.3891 7.37327L3.99724 5.99495ZM3.99724 5.99495L5.3891 4.61662C6.76439 3.25471 7.45203 2.57375 7.25952 1.98623C7.24298 1.93573 7.22243 1.8866 7.19807 1.8393C6.91467 1.28906 5.9422 1.28906 3.99724 1.28906C2.05229 1.28906 1.07981 1.28906 0.796419 1.8393C0.772059 1.8866 0.75151 1.93573 0.734962 1.98623C0.54245 2.57375 1.2301 3.25471 2.60539 4.61662L3.99724 5.99495Z" stroke="white"/>
</svg>
