<svg width="32" height="31" viewBox="0 0 32 31" fill="none" xmlns="http://www.w3.org/2000/svg">
<ellipse cx="16.1124" cy="15.2734" rx="15.1534" ry="15" fill="#FF814A"/>
<rect width="17.8276" height="17.6471" transform="translate(7.19727 6.44531)" fill="#FF814A"/>
<path d="M16.1109 15.2652L14.3533 16.9881C12.6166 18.6905 11.7483 19.5417 11.9914 20.2761C12.0123 20.3392 12.0382 20.4006 12.069 20.4597C12.4268 21.1475 13.6549 21.1475 16.1109 21.1475C18.567 21.1475 19.795 21.1475 20.1529 20.4597C20.1837 20.4006 20.2096 20.3392 20.2305 20.2761C20.4736 19.5417 19.6052 18.6905 17.8686 16.9881L16.1109 15.2652ZM16.1109 15.2652L17.8686 13.5423C19.6052 11.8399 20.4736 10.9887 20.2305 10.2543C20.2096 10.1911 20.1837 10.1297 20.1529 10.0706C19.795 9.38281 18.567 9.38281 16.1109 9.38281C13.6549 9.38281 12.4268 9.38281 12.069 10.0706C12.0382 10.1297 12.0123 10.1911 11.9914 10.2543C11.7483 10.9887 12.6166 11.8399 14.3533 13.5423L16.1109 15.2652Z" stroke="white"/>
</svg>
