<svg width="20" height="20" viewBox="0 0 20 20" fill="none" xmlns="http://www.w3.org/2000/svg">
<rect width="20" height="20" fill="#FF814A"/>
<path d="M9.99967 9.99479L8.02788 11.9474C6.07955 13.8768 5.10539 14.8415 5.37811 15.6738C5.40155 15.7453 5.43066 15.8149 5.46517 15.8819C5.86665 16.6615 7.24432 16.6615 9.99967 16.6615C12.755 16.6615 14.1327 16.6615 14.5342 15.8819C14.5687 15.8149 14.5978 15.7453 14.6212 15.6738C14.894 14.8415 13.9198 13.8768 11.9715 11.9474L9.99967 9.99479ZM9.99967 9.99479L11.9715 8.04217C13.9198 6.11279 14.894 5.1481 14.6212 4.31578C14.5978 4.24424 14.5687 4.17464 14.5342 4.10763C14.1327 3.32812 12.755 3.32812 9.99967 3.32812C7.24432 3.32812 5.86665 3.32812 5.46517 4.10763C5.43066 4.17464 5.40155 4.24424 5.37811 4.31578C5.10539 5.1481 6.07955 6.11279 8.02788 8.04217L9.99967 9.99479Z" stroke="white"/>
</svg>
