<svg width="16" height="16" viewBox="0 0 16 16" fill="none" xmlns="http://www.w3.org/2000/svg">
<rect width="14.1176" height="14.1176" transform="translate(0.9375 0.9375)" fill="#FF814A"/>
<path d="M7.99724 7.99495L6.60538 9.37327C5.2301 10.7352 4.54245 11.4161 4.73496 12.0037C4.75151 12.0542 4.77206 12.1033 4.79642 12.1506C5.07981 12.7008 6.05229 12.7008 7.99724 12.7008C9.9422 12.7008 10.9147 12.7008 11.1981 12.1506C11.2224 12.1033 11.243 12.0542 11.2595 12.0037C11.452 11.4161 10.7644 10.7352 9.3891 9.37327L7.99724 7.99495ZM7.99724 7.99495L9.3891 6.61662C10.7644 5.25471 11.452 4.57375 11.2595 3.98623C11.243 3.93573 11.2224 3.8866 11.1981 3.8393C10.9147 3.28906 9.9422 3.28906 7.99724 3.28906C6.05229 3.28906 5.07981 3.28906 4.79642 3.8393C4.77206 3.8866 4.75151 3.93573 4.73496 3.98623C4.54245 4.57375 5.2301 5.25471 6.60539 6.61662L7.99724 7.99495Z" stroke="white"/>
</svg>
