<svg width="50" height="50" viewBox="0 0 50 50" fill="none" xmlns="http://www.w3.org/2000/svg">
<path d="M28.9625 3.625V8.09844C34.275 8.12813 40.4578 8.04375 45.7656 8.12344C46.7688 8.12344 46.8125 9.01094 46.825 9.78594C46.9094 19.0703 46.8047 28.6219 46.875 37.9109C46.8563 38.2766 46.8656 39.6297 46.8547 40.0141C46.8203 41.3 46.1766 41.3563 44.8906 41.3953C44.6844 41.3953 44.0781 41.4047 43.8781 41.4141C38.9078 41.3891 33.9375 41.4 28.9625 41.4V46.3719L3.125 42.3953V7.6125L28.9625 3.625Z" fill="#D33922"/>
<path d="M28.9624 9.59375H45.3687V39.9062H28.9624V35.9406H40.8906V33.9484H28.9624V31.4641H40.8906V29.4766H28.9671C28.9692 28.5016 28.9661 27.5276 28.9578 26.5547C29.9337 26.9064 30.9758 27.0363 32.0082 26.935C33.0407 26.8336 34.0376 26.5036 34.9265 25.9688C35.8326 25.3736 36.5832 24.5704 37.1157 23.6262C37.6482 22.6819 37.9471 21.6239 37.9874 20.5406C35.8 20.525 33.6234 20.5312 31.4468 20.5312C31.4468 18.3687 31.4718 16.2078 31.4015 14.05C30.5859 14.2062 29.7718 14.3781 28.9609 14.5516V9.59531" fill="white"/>
<path d="M32.4468 13.0078C34.1417 13.114 35.74 13.8332 36.9435 15.0313C38.147 16.2294 38.8735 17.8244 38.9874 19.5187C36.8 19.5437 34.6234 19.5344 32.4421 19.5344V13.0078" fill="#D33922"/>
<path d="M11.0938 16.7591C13.7922 16.8887 17.0625 15.6903 19.3 17.7137C21.4422 20.3137 20.875 25.095 17.7 26.6497C16.5456 27.1068 15.2941 27.2638 14.0625 27.1059C14.0625 29.0497 14.0532 30.9934 14.0625 32.9356C13.0761 32.8502 12.0901 32.7674 11.1047 32.6872C11.0594 27.3747 11.05 22.0622 11.1047 16.7497" fill="white"/>
<path d="M14.0516 19.4503C15.0313 19.405 16.2391 19.2269 16.9047 20.1456C17.1718 20.6456 17.3168 21.2017 17.328 21.7684C17.3391 22.3351 17.216 22.8965 16.9688 23.4066C16.4016 24.43 15.1203 24.3316 14.1313 24.4503C14.0266 22.7847 14.0375 21.1206 14.0516 19.4503Z" fill="#D33922"/>
</svg>
