<svg width="50" height="50" viewBox="0 0 50 50" fill="none" xmlns="http://www.w3.org/2000/svg">
<path d="M21.0938 40.5234C21.7647 40.3514 22.3593 39.9608 22.7837 39.4133C23.2081 38.8659 23.4381 38.1927 23.4375 37.5V21.875C23.4381 21.1823 23.2081 20.5091 22.7837 19.9617C22.3593 19.4142 21.7647 19.0236 21.0938 18.8516C20.8393 18.7818 20.5764 18.7476 20.3125 18.75H4.6875C4.27709 18.7499 3.87067 18.8306 3.49148 18.9876C3.11228 19.1446 2.76774 19.3748 2.47753 19.665C2.18733 19.9552 1.95715 20.2998 1.80014 20.679C1.64314 21.0582 1.56238 21.4646 1.5625 21.875V37.5C1.56239 37.9104 1.64314 38.3168 1.80015 38.696C1.95715 39.0752 2.18734 39.4198 2.47754 39.71C2.76775 40.0002 3.11229 40.2303 3.49148 40.3873C3.87067 40.5444 4.27709 40.6251 4.6875 40.625H20.3125C20.5764 40.6274 20.8393 40.5932 21.0938 40.5234ZM8.59375 37.5H5.46875C5.26356 37.4969 5.0678 37.4133 4.92377 37.2671C4.77975 37.1209 4.69902 36.9239 4.69903 36.7187C4.69903 36.5135 4.77977 36.3165 4.92381 36.1704C5.06784 36.0242 5.2636 35.9405 5.4688 35.9375H8.59375C8.79894 35.9405 8.9947 36.0242 9.13873 36.1704C9.28276 36.3166 9.3635 36.5135 9.3635 36.7187C9.3635 36.924 9.28276 37.1209 9.13873 37.2671C8.9947 37.4133 8.79894 37.497 8.59375 37.5ZM10.1562 34.375H5.46875C5.26356 34.3719 5.0678 34.2883 4.92377 34.1421C4.77975 33.9959 4.69902 33.7989 4.69903 33.5937C4.69903 33.3885 4.77977 33.1915 4.92381 33.0454C5.06784 32.8992 5.2636 32.8155 5.4688 32.8125H10.1562C10.3614 32.8155 10.5572 32.8992 10.7012 33.0454C10.8453 33.1916 10.926 33.3885 10.926 33.5937C10.926 33.799 10.8453 33.9959 10.7012 34.1421C10.5572 34.2883 10.3614 34.372 10.1562 34.375ZM17.1875 22.6562C17.1857 23.2773 16.9382 23.8724 16.499 24.3115C16.0599 24.7507 15.4648 24.9982 14.8438 25H10.1562C9.53521 24.9982 8.94012 24.7507 8.50098 24.3115C8.06183 23.8724 7.81432 23.2773 7.8125 22.6562V20.3125H9.375V22.6562C9.37562 22.8633 9.45813 23.0616 9.60451 23.208C9.75088 23.3544 9.94924 23.4369 10.1562 23.4375H14.8438C15.0508 23.4369 15.2491 23.3544 15.3955 23.208C15.5419 23.0616 15.6244 22.8633 15.625 22.6562V20.3125H17.1875V22.6562ZM28.125 13.2812H35.9375C36.5584 13.279 37.1532 13.0313 37.5923 12.5923C38.0313 12.1532 38.279 11.5584 38.2812 10.9375V7.03125C38.2794 6.41021 38.0319 5.81512 37.5928 5.37597C37.1536 4.93682 36.5585 4.68931 35.9375 4.6875H28.125C27.504 4.68931 26.9089 4.93682 26.4697 5.37597C26.0306 5.81512 25.7831 6.41021 25.7812 7.03125V10.9375C25.7839 11.5583 26.0317 12.1529 26.4707 12.5918C26.9096 13.0308 27.5042 13.2786 28.125 13.2812Z" fill="#D8A353"/>
<path d="M44.5312 7.8125H39.8438V10.9375H42.9688C43.3828 10.9387 43.7795 11.1037 44.0723 11.3965C44.365 11.6892 44.53 12.086 44.5312 12.5V40.625C44.53 41.039 44.365 41.4357 44.0723 41.7285C43.7795 42.0213 43.3828 42.1863 42.9688 42.1875C38.98 42.1905 19.2501 42.1844 15.7031 42.1875C15.8833 43.0698 16.3627 43.8627 17.0603 44.4322C17.7579 45.0016 18.6308 45.3126 19.5312 45.3125H44.5312C45.5671 45.3121 46.5605 44.9005 47.293 44.168C48.0255 43.4355 48.4371 42.4421 48.4375 41.4062V11.7188C48.4371 10.6829 48.0255 9.68951 47.293 8.95703C46.5605 8.22455 45.5671 7.81287 44.5312 7.8125ZM19.5312 12.5C19.5325 12.086 19.6975 11.6892 19.9902 11.3965C20.283 11.1037 20.6797 10.9387 21.0938 10.9375H24.2188V7.8125H19.5312C18.4954 7.81287 17.502 8.22455 16.7695 8.95703C16.037 9.68951 15.6254 10.6829 15.625 11.7188V17.1875H19.5312V12.5Z" fill="#D8A353"/>
<path d="M21.0938 17.25C22.1866 17.4345 23.1787 18.0004 23.8938 18.8472C24.609 19.6939 25.0009 20.7667 25 21.875V37.5C25.0011 38.6535 24.5753 39.7667 23.8047 40.625H42.9688V12.5H39.5156C39.2076 13.1933 38.7063 13.7831 38.0717 14.1988C37.4371 14.6145 36.6961 14.8384 35.9375 14.8438H28.125C27.367 14.8401 26.6263 14.6168 25.9926 14.2008C25.3589 13.7848 24.8595 13.194 24.5547 12.5H21.0938V17.25ZM34.9922 18.9766C35.1397 18.8302 35.3391 18.7481 35.5469 18.7481C35.7547 18.7481 35.9541 18.8302 36.1016 18.9766L37.1094 19.9922L40.0703 17.0234C40.2184 16.8811 40.4164 16.8025 40.6218 16.8046C40.8271 16.8066 41.0235 16.8891 41.1688 17.0344C41.314 17.1796 41.3965 17.376 41.3985 17.5814C41.4006 17.7867 41.322 17.9847 41.1797 18.1328L37.6641 21.6484C37.5157 21.7932 37.3166 21.8742 37.1094 21.8742C36.9021 21.8742 36.703 21.7932 36.5547 21.6484L34.9922 20.0859C34.8458 19.9384 34.7637 19.7391 34.7637 19.5312C34.7637 19.3234 34.8458 19.1241 34.9922 18.9766ZM34.9922 26.0078C35.1397 25.8614 35.3391 25.7793 35.5469 25.7793C35.7547 25.7793 35.9541 25.8614 36.1016 26.0078L37.1094 27.0234L40.0703 24.0547C40.2184 23.9124 40.4164 23.8338 40.6218 23.8358C40.8271 23.8379 41.0235 23.9204 41.1688 24.0656C41.314 24.2108 41.3965 24.4072 41.3985 24.6126C41.4006 24.818 41.322 25.016 41.1797 25.1641L37.6641 28.6797C37.5157 28.8244 37.3166 28.9054 37.1094 28.9054C36.9021 28.9054 36.703 28.8244 36.5547 28.6797L34.9922 27.1172C34.8458 26.9697 34.7637 26.7703 34.7637 26.5625C34.7637 26.3547 34.8458 26.1553 34.9922 26.0078ZM34.9922 33.0391C35.1397 32.8927 35.3391 32.8106 35.5469 32.8106C35.7547 32.8106 35.9541 32.8927 36.1016 33.0391L37.1094 34.0547L40.0703 31.0859C40.2184 30.9436 40.4164 30.865 40.6218 30.8671C40.8271 30.8691 41.0235 30.9516 41.1688 31.0969C41.314 31.2421 41.3965 31.4385 41.3985 31.6439C41.4006 31.8492 41.322 32.0472 41.1797 32.1953L37.6641 35.7109C37.5157 35.8557 37.3166 35.9367 37.1094 35.9367C36.9021 35.9367 36.703 35.8557 36.5547 35.7109L34.9922 34.1484C34.8458 34.0009 34.7637 33.8016 34.7637 33.5938C34.7637 33.3859 34.8458 33.1866 34.9922 33.0391ZM26.1719 19.5312C26.2368 19.5327 32.4437 19.5302 32.4219 19.5312C32.6271 19.5343 32.8229 19.618 32.9669 19.7642C33.1109 19.9103 33.1916 20.1073 33.1916 20.3125C33.1916 20.5178 33.1109 20.7147 32.9668 20.8609C32.8228 21.0071 32.627 21.0907 32.4218 21.0938H26.1719C25.9667 21.0907 25.7709 21.0071 25.6269 20.8609C25.4829 20.7147 25.4021 20.5177 25.4021 20.3125C25.4021 20.1073 25.4829 19.9103 25.6269 19.7641C25.7709 19.6179 25.9667 19.5343 26.1719 19.5312ZM26.1719 26.5625C26.2368 26.5639 32.4437 26.5615 32.4219 26.5625C32.6271 26.5656 32.8229 26.6492 32.9669 26.7954C33.1109 26.9416 33.1916 27.1386 33.1916 27.3438C33.1916 27.549 33.1109 27.746 32.9668 27.8922C32.8228 28.0383 32.627 28.122 32.4218 28.125H26.1719C25.9667 28.122 25.7709 28.0383 25.6269 27.8921C25.4829 27.7459 25.4021 27.549 25.4021 27.3438C25.4021 27.1385 25.4829 26.9416 25.6269 26.7954C25.7709 26.6492 25.9667 26.5655 26.1719 26.5625ZM26.1719 33.5938C26.2368 33.5952 32.4437 33.5927 32.4219 33.5938C32.6271 33.5968 32.8229 33.6805 32.9669 33.8267C33.1109 33.9728 33.1916 34.1698 33.1916 34.375C33.1916 34.5803 33.1109 34.7772 32.9668 34.9234C32.8228 35.0696 32.627 35.1532 32.4218 35.1562H26.1719C25.9667 35.1532 25.7709 35.0696 25.6269 34.9234C25.4829 34.7772 25.4021 34.5802 25.4021 34.375C25.4021 34.1698 25.4829 33.9728 25.6269 33.8266C25.7709 33.6804 25.9667 33.5968 26.1719 33.5938Z" fill="#D8A353"/>
</svg>
