<svg width="15" height="16" viewBox="0 0 15 16" fill="none" xmlns="http://www.w3.org/2000/svg">
<path d="M11.6229 5.21972L11.9473 4.89531C12.4848 4.35781 13.3563 4.35781 13.8938 4.89531C14.4313 5.4328 14.4313 6.30426 13.8938 6.84174L13.5694 7.16619M11.6229 5.21972C11.6229 5.21972 11.6635 5.90908 12.2717 6.51735C12.88 7.12559 13.5694 7.16619 13.5694 7.16619M11.6229 5.21972L8.64047 8.20212C8.43845 8.40414 8.33744 8.50515 8.25057 8.61652C8.14816 8.74791 8.06031 8.89008 7.98863 9.04044C7.92787 9.16798 7.88265 9.30343 7.79235 9.57447L7.50311 10.4422L7.40952 10.7229M13.5694 7.16619L10.587 10.1486C10.3849 10.3506 10.2839 10.4516 10.1726 10.5385C10.0412 10.6409 9.899 10.7288 9.74864 10.8004C9.6211 10.8612 9.48565 10.9064 9.21461 10.9967L8.34689 11.286L8.06619 11.3796M7.40952 10.7229L7.31593 11.0037C7.27148 11.137 7.3062 11.2841 7.4056 11.3835C7.505 11.4829 7.65207 11.5176 7.78542 11.4731L8.06619 11.3796M7.40952 10.7229L8.06619 11.3796" stroke="#2D2D2D"/>
<path d="M4.5 8.69727H6.25" stroke="#2D2D2D" stroke-linecap="round"/>
<path d="M4.5 5.90234H9.05" stroke="#2D2D2D" stroke-linecap="round"/>
<path d="M4.5 11.4922H5.55" stroke="#2D2D2D" stroke-linecap="round"/>
<path d="M12.7799 1.8201C11.9598 1 10.6398 1 8 1H6.6C3.96013 1 2.6402 1 1.8201 1.8201C1 2.6402 1 3.96013 1 6.6V9.4C1 12.0398 1 13.3598 1.8201 14.1799C2.6402 15 3.96013 15 6.6 15H8C10.6398 15 11.9598 15 12.7799 14.1799C13.4401 13.5197 13.5688 12.5357 13.5939 10.8" stroke="#2D2D2D" stroke-linecap="round"/>
</svg>
