<svg width="20" height="20" viewBox="0 0 20 20" fill="none" xmlns="http://www.w3.org/2000/svg">
<path d="M15.5291 13.0636L16.9594 8.77254C18.209 5.02389 18.8338 3.14956 17.8444 2.16016C16.855 1.17078 14.9807 1.79556 11.232 3.04511L6.94091 4.47547C3.91538 5.48398 2.40262 5.98824 1.97273 6.72769C1.56378 7.43114 1.56378 8.29995 1.97273 9.00337C2.40262 9.74287 3.91538 10.2471 6.94091 11.2556C7.4267 11.4175 7.6696 11.4985 7.87263 11.6345C8.06938 11.7661 8.23841 11.9352 8.3701 12.132C8.50602 12.335 8.58702 12.5779 8.74894 13.0636C9.75744 16.0892 10.2617 17.602 11.0012 18.0318C11.7046 18.4408 12.5734 18.4408 13.2769 18.0318C14.0164 17.602 14.5206 16.0892 15.5291 13.0636Z" stroke="white" stroke-width="1.25"/>
<path d="M14.8252 5.17188L11.3164 8.64198" stroke="white" stroke-width="1.25" stroke-linecap="round"/>
</svg>
