<svg width="16" height="16" viewBox="0 0 16 16" fill="none" xmlns="http://www.w3.org/2000/svg">
<path d="M14.4999 10.625H3.78743C3.99618 10.2162 4.20805 9.79062 4.41618 9.35687C4.50502 9.37143 4.5949 9.37875 4.68493 9.37875C5.5743 9.37875 6.62805 8.68375 7.83055 7.3025C7.89305 7.49 7.96805 7.69312 8.06055 7.9C8.49118 8.86562 9.04055 9.36187 9.6943 9.375H9.71868C10.2693 9.375 10.8256 9.01437 11.4062 8.27625C11.7706 8.7925 12.6012 9.375 14.4999 9.375C14.5994 9.375 14.6948 9.33549 14.7651 9.26516C14.8354 9.19484 14.8749 9.09946 14.8749 9C14.8749 8.90054 14.8354 8.80516 14.7651 8.73483C14.6948 8.66451 14.5994 8.625 14.4999 8.625C12.0193 8.625 11.8824 7.58687 11.8749 7.49625C11.8779 7.41564 11.8541 7.33632 11.8071 7.27071C11.7602 7.20511 11.6928 7.15694 11.6156 7.13375C11.536 7.1102 11.451 7.11327 11.3734 7.14249C11.2958 7.17171 11.2298 7.22548 11.1856 7.29562C10.4256 8.4625 9.93118 8.62875 9.70868 8.625C9.03493 8.61187 8.5143 7.145 8.36743 6.4375C8.35307 6.36767 8.3191 6.30337 8.2695 6.25216C8.21991 6.20094 8.15674 6.16493 8.08741 6.14833C8.01807 6.13173 7.94544 6.13525 7.87803 6.15846C7.81062 6.18167 7.75122 6.22361 7.7068 6.27937C6.53993 7.74125 5.49993 8.5625 4.76118 8.62C6.24993 5.365 6.7018 3.29375 6.1393 2.29875C5.96493 1.99125 5.60368 1.625 4.8693 1.625C3.9318 1.625 3.1818 2.53875 2.81805 4.13125C2.39243 5.99625 2.63243 8.25 3.72618 9.0625C3.4668 9.6025 3.20118 10.13 2.94368 10.625H1.49993C1.40047 10.625 1.30509 10.6645 1.23476 10.7348C1.16444 10.8052 1.12493 10.9005 1.12493 11C1.12493 11.0995 1.16444 11.1948 1.23476 11.2652C1.30509 11.3355 1.40047 11.375 1.49993 11.375H2.54743C1.79055 12.7862 1.18743 13.7912 1.17868 13.8069C1.15154 13.8491 1.13316 13.8963 1.12461 13.9458C1.11607 13.9953 1.11754 14.0459 1.12894 14.0948C1.14034 14.1437 1.16144 14.1898 1.19098 14.2304C1.22053 14.2709 1.25791 14.3052 1.30093 14.331C1.34395 14.3569 1.39172 14.3738 1.44141 14.3809C1.4911 14.388 1.5417 14.385 1.59022 14.3721C1.63874 14.3592 1.68418 14.3368 1.72385 14.306C1.76352 14.2753 1.79662 14.2369 1.82118 14.1931C1.83118 14.1769 2.54368 12.9887 3.3968 11.375H14.4999C14.5994 11.375 14.6948 11.3355 14.7651 11.2652C14.8354 11.1948 14.8749 11.0995 14.8749 11C14.8749 10.9005 14.8354 10.8052 14.7651 10.7348C14.6948 10.6645 14.5994 10.625 14.4999 10.625ZM3.5493 4.29812C3.81555 3.13 4.33368 2.375 4.8693 2.375C5.2693 2.375 5.4093 2.53187 5.48618 2.66812C5.73618 3.10562 5.86118 4.4275 4.05618 8.35562C3.4118 7.71187 3.17055 5.95625 3.5493 4.29812Z" fill="#797979"/>
</svg>
