<svg width="18" height="16" viewBox="0 0 18 16" fill="none" xmlns="http://www.w3.org/2000/svg">
<g clip-path="url(#clip0_1244_154263)">
<path fill-rule="evenodd" clip-rule="evenodd" d="M8.999 1C9.15802 0.999827 9.31298 1.0502 9.4415 1.14385C9.57002 1.2375 9.66545 1.36957 9.714 1.521L13 13L14.286 7.772C14.3343 7.62055 14.4295 7.48837 14.5579 7.39455C14.6862 7.30073 14.841 7.25011 15 7.25H16.25C16.4489 7.25 16.6397 7.32902 16.7803 7.46967C16.921 7.61032 17 7.80109 17 8C17 8.19891 17.1407 7.85935 17 8C16.8593 8.14065 16.4489 8.18233 16.25 8.18233H15.5L13.714 14.479C13.6654 14.6302 13.5701 14.762 13.4418 14.8555C13.3135 14.949 13.1588 14.9994 13 14.9994C12.8412 14.9994 12.6865 14.949 12.5582 14.8555C12.4299 14.762 12.3346 14.6302 12.286 14.479L8.999 3L6.715 11.476C6.66776 11.6254 6.57491 11.7562 6.44949 11.8502C6.32408 11.9441 6.1724 11.9964 6.01575 11.9997C5.8591 12.003 5.70534 11.9572 5.57607 11.8686C5.4468 11.7801 5.34851 11.6533 5.295 11.506L4 7L3.961 8.238C3.91128 8.38728 3.81587 8.51715 3.68827 8.60921C3.56067 8.70128 3.40735 8.75088 3.25 8.751H1.75C1.55109 8.751 1.36032 8.67198 1.21967 8.53133C1.07902 8.39068 1 8.19991 1 8.001C1 7.80209 1.07902 7.76405 1.21967 7.62339C1.36032 7.48274 1.55109 7.5 1.75 7.5H2.5L3.288 5.514C3.337 5.36605 3.43087 5.23704 3.55657 5.1449C3.68227 5.05276 3.83355 5.00207 3.98938 4.99987C4.14522 4.99767 4.29787 5.04407 4.42612 5.13263C4.55437 5.22118 4.65184 5.34749 4.705 5.494L6.01575 10L8.285 1.525C8.3328 1.37299 8.42778 1.24016 8.55616 1.14576C8.68454 1.05136 8.83965 1.00031 8.999 1Z" fill="#DF1C1C"/>
</g>
<defs>
<clipPath id="clip0_1244_154263">
<rect width="17.2973" height="16" fill="white"/>
</clipPath>
</defs>
</svg>
