<svg width="20" height="20" viewBox="0 0 20 20" fill="none" xmlns="http://www.w3.org/2000/svg">
<path d="M11.5471 3.2113C11.7098 3.04857 11.7098 2.78476 11.5471 2.62204C11.3844 2.45932 11.1206 2.45932 10.9578 2.62204L10.0026 3.57731L9.0473 2.62204C8.88459 2.45932 8.62076 2.45932 8.45805 2.62204C8.2953 2.78476 8.2953 3.04857 8.45805 3.2113L9.4133 4.16657L8.45797 5.12187C8.29526 5.28458 8.29526 5.54842 8.45797 5.71113C8.62072 5.87388 8.88451 5.87388 9.04726 5.71113L10.0026 4.75583L10.9579 5.71113C11.1206 5.87388 11.3844 5.87388 11.5471 5.71113C11.7098 5.54842 11.7098 5.28458 11.5471 5.12187L10.5918 4.16657L11.5471 3.2113Z" fill="#2D2D2D"/>
<path fill-rule="evenodd" clip-rule="evenodd" d="M2.78491 11.0203L4.16667 11.4809V15C4.16667 15.1776 4.27921 15.3357 4.44704 15.3937L9.86037 17.2676C9.94317 17.2971 10.0358 17.3007 10.1256 17.2723L10.1317 17.2703L10.138 17.2682L15.553 15.3937C15.7208 15.3357 15.8333 15.1776 15.8333 15V11.4809L17.2151 11.0203C17.3443 10.9772 17.4444 10.8737 17.483 10.743C17.5215 10.6124 17.4938 10.4711 17.4087 10.3647L15.742 8.28136C15.6915 8.21816 15.6251 8.1727 15.552 8.14757L10.1363 6.27291C10.048 6.24236 9.952 6.24236 9.86371 6.27291L4.44796 8.14761C4.37487 8.1727 4.30854 8.21816 4.25796 8.28136L2.59131 10.3647C2.5062 10.4711 2.47848 10.6124 2.51707 10.743C2.55565 10.8737 2.65567 10.9772 2.78491 11.0203ZM8.883 12.7389L9.58333 11.7385V16.2898L5 14.7033V11.7587L8.40992 12.8953C8.58483 12.9536 8.77729 12.89 8.883 12.7389ZM5.85712 8.54166L10 9.97574L14.1429 8.54166L10 7.10757L5.85712 8.54166ZM11.117 12.7389L10.4167 11.7385V16.2898L15 14.7033V11.7587L11.5901 12.8953C11.4152 12.9536 11.2227 12.89 11.117 12.7389ZM4.72496 9.03161L3.61532 10.4187L5.91171 11.1841L8.37858 12.0064L9.34217 10.6299L9.28587 10.6104L4.72496 9.03161ZM16.3847 10.4187L15.275 9.03161L10.6579 10.6299L11.6215 12.0064L16.3847 10.4187Z" fill="#2D2D2D"/>
</svg>
