<svg width="17" height="16" viewBox="0 0 17 16" fill="none" xmlns="http://www.w3.org/2000/svg">
<path d="M1.91406 13C1.91406 13.5304 2.12478 14.0391 2.49985 14.4142C2.87492 14.7893 3.38363 15 3.91406 15H6.91406C7.4445 15 7.9532 14.7893 8.32828 14.4142C8.70335 14.0391 8.91406 13.5304 8.91406 13V10C8.91406 9.46957 8.70335 8.96086 8.32828 8.58579C7.9532 8.21071 7.4445 8 6.91406 8H3.91406C3.38363 8 2.87492 8.21071 2.49985 8.58579C2.12478 8.96086 1.91406 9.46957 1.91406 10V13ZM2.91406 10C2.91406 9.73478 3.01942 9.48043 3.20696 9.29289C3.39449 9.10536 3.64885 9 3.91406 9H6.91406C7.17928 9 7.43363 9.10536 7.62117 9.29289C7.80871 9.48043 7.91406 9.73478 7.91406 10V13C7.91406 13.2652 7.80871 13.5196 7.62117 13.7071C7.43363 13.8946 7.17928 14 6.91406 14H3.91406C3.64885 14 3.39449 13.8946 3.20696 13.7071C3.01942 13.5196 2.91406 13.2652 2.91406 13V10ZM11.9141 15H14.9141C15.4445 15 15.9532 14.7893 16.3283 14.4142C16.7033 14.0391 16.9141 13.5304 16.9141 13V10C16.9141 9.46957 16.7033 8.96086 16.3283 8.58579C15.9532 8.21071 15.4445 8 14.9141 8H11.9141C11.3836 8 10.8749 8.21071 10.4998 8.58579C10.1248 8.96086 9.91406 9.46957 9.91406 10V13C9.91406 13.5304 10.1248 14.0391 10.4998 14.4142C10.8749 14.7893 11.3836 15 11.9141 15ZM10.9141 10C10.9141 9.73478 11.0194 9.48043 11.207 9.29289C11.3945 9.10536 11.6488 9 11.9141 9H14.9141C15.1793 9 15.4336 9.10536 15.6212 9.29289C15.8087 9.48043 15.9141 9.73478 15.9141 10V13C15.9141 13.2652 15.8087 13.5196 15.6212 13.7071C15.4336 13.8946 15.1793 14 14.9141 14H11.9141C11.6488 14 11.3945 13.8946 11.207 13.7071C11.0194 13.5196 10.9141 13.2652 10.9141 13V10ZM11.9141 7H14.9141C15.4445 7 15.9532 6.78929 16.3283 6.41421C16.7033 6.03914 16.9141 5.53043 16.9141 5V2C16.9141 1.46957 16.7033 0.960859 16.3283 0.585786C15.9532 0.210714 15.4445 0 14.9141 0H11.9141C11.3836 0 10.8749 0.210714 10.4998 0.585786C10.1248 0.960859 9.91406 1.46957 9.91406 2V5C9.91406 5.53043 10.1248 6.03914 10.4998 6.41421C10.8749 6.78929 11.3836 7 11.9141 7ZM10.9141 2C10.9141 1.73478 11.0194 1.48043 11.207 1.29289C11.3945 1.10536 11.6488 1 11.9141 1H14.9141C15.1793 1 15.4336 1.10536 15.6212 1.29289C15.8087 1.48043 15.9141 1.73478 15.9141 2V5C15.9141 5.26522 15.8087 5.51957 15.6212 5.70711C15.4336 5.89464 15.1793 6 14.9141 6H11.9141C11.6488 6 11.3945 5.89464 11.207 5.70711C11.0194 5.51957 10.9141 5.26522 10.9141 5V2ZM3.91406 7H6.91406C7.4445 7 7.9532 6.78929 8.32828 6.41421C8.70335 6.03914 8.91406 5.53043 8.91406 5V2C8.91406 1.46957 8.70335 0.960859 8.32828 0.585786C7.9532 0.210714 7.4445 0 6.91406 0H3.91406C3.38363 0 2.87492 0.210714 2.49985 0.585786C2.12478 0.960859 1.91406 1.46957 1.91406 2V5C1.91406 5.53043 2.12478 6.03914 2.49985 6.41421C2.87492 6.78929 3.38363 7 3.91406 7ZM2.91406 2C2.91406 1.73478 3.01942 1.48043 3.20696 1.29289C3.39449 1.10536 3.64885 1 3.91406 1H6.91406C7.17928 1 7.43363 1.10536 7.62117 1.29289C7.80871 1.48043 7.91406 1.73478 7.91406 2V5C7.91406 5.26522 7.80871 5.51957 7.62117 5.70711C7.43363 5.89464 7.17928 6 6.91406 6H3.91406C3.64885 6 3.39449 5.89464 3.20696 5.70711C3.01942 5.51957 2.91406 5.26522 2.91406 5V2ZM5.17106 13.168L3.64906 11.646L4.38706 10.908L5.17106 11.696L6.87606 10L7.61406 10.738L5.17106 13.168Z" fill="black"/>
</svg>
