<svg width="16" height="16" viewBox="0 0 16 16" fill="none" xmlns="http://www.w3.org/2000/svg">
<path d="M15.6335 6.81778C15.396 6.55636 15.075 6.40903 14.7401 6.40769C14.4043 6.40769 14.0878 6.55293 13.8466 6.81778L13.3178 7.40302V0.967561C13.3178 0.433587 12.9261 0 12.4436 0H4.73425C4.25181 0 3.86007 0.433587 3.86007 0.967561V7.79175C3.86007 7.96476 3.90446 8.12495 3.97586 8.26592C3.51272 8.43038 3.08624 8.71446 2.73309 9.10533L1.91102 10.0152C1.63506 9.84221 1.26262 9.87852 1.03297 10.1327L0.0854615 11.1814C0.0583889 11.211 0.0368944 11.2463 0.0222242 11.2851C0.00755402 11.324 0 11.3657 0 11.4078C0 11.4499 0.00755402 11.4916 0.0222242 11.5305C0.0368944 11.5694 0.0583889 11.6046 0.0854615 11.6342C0.199317 11.7602 0.382645 11.7602 0.494571 11.6342L1.44208 10.5855C1.45544 10.5705 1.47136 10.5586 1.48892 10.5504C1.50648 10.5423 1.52533 10.5381 1.54436 10.5381C1.5634 10.5381 1.58224 10.5423 1.5998 10.5504C1.61736 10.5586 1.63328 10.5705 1.64664 10.5855L4.89249 14.1781C4.94846 14.24 4.94846 14.3425 4.89249 14.4045L3.94498 15.4532C3.91791 15.4828 3.89642 15.5181 3.88175 15.5569C3.86708 15.5958 3.85952 15.6375 3.85952 15.6796C3.85952 15.7217 3.86708 15.7634 3.88175 15.8023C3.89642 15.8412 3.91791 15.8764 3.94498 15.906C4.00095 15.968 4.07621 16 4.14954 16C4.22287 16 4.29813 15.968 4.35409 15.906L5.3016 14.8573C5.54089 14.5924 5.5737 14.1909 5.40967 13.8833L5.62966 13.6398C5.74931 13.5074 5.90562 13.4369 6.07351 13.4369H10.3325C11.1411 13.4369 11.9265 13.0674 12.4861 12.4202L15.6471 8.7764C16.1237 8.23388 16.116 7.35389 15.6335 6.81778ZM11.199 8.75718H12.0944L11.3861 9.54105C11.3861 9.52183 11.3881 9.50474 11.3881 9.48552C11.3881 9.21853 11.3167 8.97077 11.199 8.75718ZM9.26533 0.640769V2.64424L8.77131 2.20638C8.71921 2.15939 8.6536 2.1359 8.58992 2.1359C8.52623 2.1359 8.46255 2.15939 8.40852 2.20638L7.9145 2.64424V0.640769H9.26533ZM4.44093 7.79175V0.967561C4.44093 0.788146 4.57215 0.640769 4.73618 0.640769H7.33557V3.31064C7.33557 3.43452 7.39925 3.54559 7.4996 3.59899C7.59995 3.65238 7.71959 3.63743 7.80643 3.56054L8.58992 2.86637L9.3734 3.56054C9.4255 3.60753 9.48918 3.63102 9.5548 3.63102C9.63147 3.63069 9.70492 3.59682 9.75914 3.53681C9.81336 3.4768 9.84396 3.39551 9.84426 3.31064V0.640769H12.4436C12.6057 0.640769 12.7389 0.78601 12.7389 0.967561V7.79175C12.7389 7.97117 12.6077 8.11854 12.4436 8.11854H10.3325C10.2668 8.10672 10.2003 8.1003 10.1337 8.09932H4.93109C4.84811 8.09932 4.76513 8.10573 4.68215 8.11213C4.54514 8.08437 4.44093 7.95194 4.44093 7.79175ZM15.2322 8.33427L12.0712 11.9781C11.8462 12.2368 11.5765 12.4427 11.2781 12.5836C10.9798 12.7245 10.6588 12.7975 10.3344 12.7983H6.07544C5.75317 12.7983 5.4502 12.9371 5.22055 13.1892L5.01793 13.4134L2.34135 10.4467L3.14413 9.55814C3.56289 9.09465 4.10129 8.81485 4.68215 8.7529C4.69952 8.75504 4.71689 8.75931 4.73425 8.75931H10.2804C10.5814 8.83407 10.8091 9.13096 10.8091 9.48765C10.8091 9.88279 10.5313 10.2032 10.18 10.2309C10.1492 10.2331 10.1164 10.2352 10.0855 10.2352H7.23908C7.07891 10.2352 6.94962 10.3783 6.94962 10.5556C6.94962 10.7329 7.07891 10.876 7.23908 10.876H10.1337C10.1839 10.876 10.2341 10.8717 10.2823 10.8653C10.7976 10.814 11.2781 10.5684 11.6486 10.1583L14.2538 7.27273C14.385 7.12962 14.5567 7.04846 14.7401 7.04846C14.9195 7.04846 15.0971 7.12962 15.2244 7.27059C15.485 7.56107 15.4907 8.03738 15.2322 8.33427ZM5.40581 6.72807C5.40581 6.55079 5.53511 6.40769 5.69528 6.40769H6.46718C6.62735 6.40769 6.75664 6.55079 6.75664 6.72807C6.75664 6.90535 6.62735 7.04846 6.46718 7.04846H5.69528C5.53511 7.04846 5.40581 6.90535 5.40581 6.72807ZM5.40581 5.44654C5.40581 5.26926 5.53511 5.12615 5.69528 5.12615H7.23908C7.39925 5.12615 7.52855 5.26926 7.52855 5.44654C7.52855 5.62382 7.39925 5.76692 7.23908 5.76692H5.69528C5.53511 5.76692 5.40581 5.62382 5.40581 5.44654Z" fill="black"/>
</svg>
