<svg width="50" height="50" viewBox="0 0 50 50" fill="none" xmlns="http://www.w3.org/2000/svg">
<path d="M39.7729 39.2105H34.9808C35.0755 38.9845 35.1282 38.7365 35.1282 38.4764V21.5294C35.1282 20.4784 34.2731 19.6234 33.2222 19.6234H26.6791C26.6858 19.569 26.6904 19.5141 26.6904 19.4579V9.81152C26.6904 9.07412 26.0904 8.47422 25.3531 8.47422H15.7066C15.6505 8.47422 15.5956 8.47881 15.5413 8.48555V8.44551C15.5413 7.31777 15.2061 6.26318 14.5715 5.3957C14.0424 4.67217 12.8063 3.5957 11.5696 3.5957H10.5014C10.3062 3.35381 10.0077 3.19863 9.67344 3.19863H2.58916C1.37695 3.19863 0.390625 4.18496 0.390625 5.39727C0.390625 6.60957 1.37695 7.5958 2.58916 7.5958H9.67344C10.0077 7.5958 10.3061 7.44053 10.5013 7.19873H11.0782C11.5493 7.19873 11.9418 7.50596 12.0548 7.96357C12.0919 8.11406 12.1107 8.27402 12.1107 8.43906C12.1105 12.3813 12.1105 23.3647 12.1105 30.1952V33.3198C9.31689 33.9548 6.97314 36.1085 6.24844 39.0758C5.7542 41.0998 6.07783 43.1951 7.15947 44.9757C8.24121 46.7563 9.95166 48.0091 11.9756 48.5034C12.5947 48.6546 13.2146 48.727 13.8255 48.7269C17.3363 48.7269 20.534 46.3353 21.4032 42.7762C21.4142 42.7313 21.4226 42.6861 21.4327 42.6411H39.7729C40.7188 42.6411 41.4882 41.8717 41.4882 40.9259C41.4882 39.9801 40.7187 39.2105 39.7729 39.2105ZM9.56553 6.42373H2.58916C2.02314 6.42373 1.5625 5.96318 1.5625 5.39707C1.5625 4.83096 2.02305 4.37041 2.58916 4.37041H9.56553V6.42373ZM28.1468 20.7954V29.0656L25.0416 27.2729C24.8603 27.1683 24.6368 27.1683 24.4557 27.2729L21.3506 29.0657V20.7954H28.1468ZM19.1344 9.64609H21.9252V12.9543L20.8228 12.3178C20.6414 12.2131 20.4182 12.2131 20.2368 12.3178L19.1344 12.9543V9.64609ZM15.5411 14.9875V9.81084C15.5416 9.72148 15.6172 9.64609 15.7065 9.64609H17.9625V13.9692C17.9625 14.1786 18.0742 14.372 18.2555 14.4767C18.4366 14.5813 18.6601 14.5813 18.8414 14.4767L20.5298 13.5019L22.2182 14.4767C22.3089 14.529 22.41 14.5552 22.5111 14.5552C22.6123 14.5552 22.7135 14.529 22.8041 14.4767C22.9854 14.372 23.0971 14.1785 23.0971 13.9692V9.64609H25.3531C25.4429 9.64609 25.5186 9.72188 25.5186 9.81152V19.4579C25.5186 19.5476 25.4429 19.6233 25.3531 19.6233H15.7066C15.617 19.6233 15.5412 19.5476 15.5412 19.4579V14.9874L15.5411 14.9875ZM11.0781 6.02676H10.7374V4.76758H11.5695C12.2221 4.76758 13.1594 5.45 13.6256 6.0875C14.1122 6.75283 14.3694 7.56826 14.3693 8.44551V9.81016C14.3693 9.81064 14.3693 9.81113 14.3693 9.81162V21.5295C14.3693 21.5302 14.3693 21.5308 14.3693 21.5313V33.1464C14.004 33.1207 13.641 33.1202 13.2824 33.1455V30.195C13.2824 23.3646 13.2824 12.3812 13.2826 8.43887C13.2826 8.1791 13.2522 7.92451 13.1924 7.68232C12.9517 6.70752 12.0823 6.02666 11.0782 6.02666L11.0781 6.02676ZM20.2646 42.4982C19.5262 45.5229 16.8091 47.5551 13.8255 47.5549C13.3066 47.5549 12.7793 47.4934 12.2533 47.3649C10.5335 46.945 9.08008 45.8805 8.16084 44.3673C7.2417 42.8542 6.9667 41.0736 7.38672 39.3537C8.1252 36.3292 10.8422 34.2972 13.8259 34.2972C14.3447 34.2972 14.8721 34.3587 15.398 34.4871C18.9484 35.354 21.1316 38.9479 20.2646 42.4982ZM20.4921 36.8764C19.4104 35.0957 17.7 33.843 15.676 33.3486C15.6311 33.3377 15.5861 33.3295 15.5411 33.3193V21.5296C15.5411 21.1248 15.8704 20.7955 16.2753 20.7955H20.1788V30.0807C20.1788 30.29 20.2905 30.4834 20.4718 30.5881C20.5625 30.6404 20.6636 30.6666 20.7647 30.6666C20.8659 30.6666 20.9671 30.6404 21.0577 30.5881L24.7487 28.4569L28.4398 30.588C28.6212 30.6927 28.8446 30.6927 29.0258 30.588C29.207 30.4833 29.3188 30.2898 29.3188 30.0806V20.7955H33.2223C33.6272 20.7955 33.9564 21.1248 33.9564 21.5296V38.4766C33.9564 38.8814 33.6272 39.2107 33.2223 39.2107H21.4366C21.2525 38.3974 20.9378 37.61 20.4922 36.8765L20.4921 36.8764ZM39.7729 41.4693H21.6065C21.6327 41.106 21.6336 40.7431 21.6088 40.3825H39.7729C40.0726 40.3825 40.3163 40.6263 40.3163 40.9259C40.3163 41.2255 40.0726 41.4693 39.7729 41.4693ZM14.9918 36.1507C13.716 35.8393 12.3957 36.0431 11.2737 36.7249C10.1516 37.4065 9.36201 38.4845 9.05049 39.76C8.73906 41.0354 8.94287 42.3559 9.62461 43.478C10.3063 44.6002 11.3843 45.3896 12.6597 45.7012C13.0495 45.7964 13.4435 45.8434 13.8347 45.8434C14.7237 45.8434 15.5985 45.6004 16.3777 45.1271C17.4999 44.4454 18.2895 43.3675 18.601 42.092C18.9124 40.8165 18.7086 39.4961 18.0269 38.3739C17.3451 37.2518 16.2672 36.4622 14.9918 36.1507ZM17.4625 41.814C17.2253 42.7854 16.624 43.6063 15.7694 44.1255C14.9146 44.6445 13.9092 44.7998 12.9377 44.5627C11.9663 44.3255 11.1453 43.7243 10.6262 42.8696C10.107 42.015 9.95176 41.0094 10.189 40.038C10.4262 39.0665 11.0274 38.2456 11.8821 37.7265C12.4756 37.3659 13.1418 37.1809 13.8189 37.1809C14.1168 37.1809 14.4169 37.2167 14.7137 37.2892C15.6851 37.5264 16.5061 38.1276 17.0252 38.9823C17.5443 39.8369 17.6997 40.8426 17.4625 41.814ZM14.5572 37.9301C12.9053 37.527 11.2333 38.5425 10.8298 40.1945C10.4265 41.8464 11.4422 43.5185 13.0942 43.922C13.3391 43.9816 13.5842 44.0103 13.8256 44.0103C15.2138 44.0103 16.4781 43.0645 16.8217 41.6575C17.0171 40.8573 16.8892 40.0288 16.4615 39.3248C16.0339 38.6208 15.3576 38.1255 14.5573 37.9301H14.5572ZM15.6831 41.3795C15.4331 42.4036 14.3968 43.0337 13.3722 42.7834C12.3479 42.5333 11.7182 41.4966 11.9683 40.4725C12.1813 39.5999 12.965 39.0137 13.8258 39.0137C13.9754 39.0137 14.1276 39.0314 14.2793 39.0686C14.7755 39.1896 15.1947 39.4968 15.4599 39.9332C15.7251 40.3696 15.8043 40.8833 15.6831 41.3795ZM40.2765 1.27344C35.1303 1.27344 30.9436 5.46016 30.9436 10.6063C30.9436 15.7525 35.1303 19.9393 40.2765 19.9393C45.4227 19.9393 49.6094 15.7525 49.6094 10.6063C49.6094 5.46016 45.4227 1.27344 40.2765 1.27344ZM40.2765 18.7675C35.7765 18.7675 32.1154 15.1064 32.1154 10.6064C32.1154 6.10645 35.7765 2.44541 40.2765 2.44541C44.7765 2.44541 48.4375 6.10645 48.4375 10.6064C48.4375 15.1064 44.7765 18.7675 40.2765 18.7675ZM44.5413 6.38584C43.7606 5.81387 42.6604 5.9834 42.0891 6.76318L39.3791 10.4489L38.4644 9.20498C37.8925 8.42471 36.7922 8.25518 36.0115 8.82705C35.2313 9.39912 35.0616 10.4995 35.6338 11.2799C35.6338 11.2802 35.6341 11.2804 35.6343 11.2806L37.9638 14.4489C38.2408 14.8271 38.6486 15.0745 39.1119 15.1459C39.2024 15.1599 39.293 15.1668 39.3827 15.1668C39.7529 15.1668 40.1123 15.0499 40.4163 14.8271C40.5699 14.7146 40.7032 14.5791 40.8126 14.4244L44.9194 8.83887C45.4913 8.0583 45.3218 6.95791 44.5414 6.38594L44.5413 6.38584ZM43.9746 8.14541L39.8647 13.7352C39.8621 13.7388 39.8594 13.7424 39.8568 13.7461C39.8206 13.7979 39.7758 13.8435 39.7237 13.8817C39.5981 13.9738 39.4445 14.0117 39.2903 13.9877C39.1364 13.9641 39.001 13.8818 38.9084 13.7556L36.5785 10.5866C36.389 10.3273 36.4454 9.96211 36.7044 9.77227C36.9637 9.58223 37.3292 9.63857 37.5198 9.89853L38.9071 11.7853C39.0176 11.9354 39.1929 12.024 39.3792 12.024C39.5655 12.024 39.7408 11.9354 39.8513 11.7852L43.0338 7.45664C43.2237 7.19736 43.5894 7.14111 43.8487 7.33105C44.108 7.52109 44.1643 7.88672 43.9748 8.14541H43.9746Z" fill="#D8A353"/>
</svg>
