<svg width="16" height="16" viewBox="0 0 16 16" fill="none" xmlns="http://www.w3.org/2000/svg">
<path d="M6.8566 2.57542L1.20993 12.0021C1.09351 12.2037 1.03191 12.4323 1.03126 12.6651C1.0306 12.8979 1.09092 13.1268 1.20621 13.3291C1.3215 13.5314 1.48775 13.6999 1.6884 13.818C1.88906 13.9361 2.11713 13.9995 2.34993 14.0021H13.6433C13.8761 13.9995 14.1041 13.9361 14.3048 13.818C14.5054 13.6999 14.6717 13.5314 14.787 13.3291C14.9023 13.1268 14.9626 12.8979 14.9619 12.6651C14.9613 12.4323 14.8997 12.2037 14.7833 12.0021L9.1366 2.57542C9.01775 2.37949 8.85041 2.2175 8.65073 2.10508C8.45104 1.99266 8.22575 1.93359 7.9966 1.93359C7.76744 1.93359 7.54215 1.99266 7.34247 2.10508C7.14278 2.2175 6.97544 2.37949 6.8566 2.57542Z" stroke="#797979" stroke-linecap="round" stroke-linejoin="round"/>
<path d="M8 6V8.66667" stroke="#797979" stroke-linecap="round" stroke-linejoin="round"/>
<path d="M8 11.332H8.00667" stroke="#797979" stroke-linecap="round" stroke-linejoin="round"/>
</svg>
