<svg width="20" height="20" viewBox="0 0 20 20" fill="none" xmlns="http://www.w3.org/2000/svg">
<g clip-path="url(#clip0_1668_68830)">
<path d="M11.1709 7.31871H13.5088C13.5826 7.31871 13.6534 7.28939 13.7056 7.23719C13.7578 7.185 13.7871 7.11421 13.7871 7.04039C13.7871 6.96658 13.7578 6.89578 13.7056 6.84359C13.6534 6.79139 13.5826 6.76207 13.5088 6.76207H11.1709C11.0971 6.76207 11.0263 6.79139 10.9741 6.84359C10.9219 6.89578 10.8926 6.96658 10.8926 7.04039C10.8926 7.11421 10.9219 7.185 10.9741 7.23719C11.0263 7.28939 11.0971 7.31871 11.1709 7.31871ZM10.002 2.2256C10.057 2.2256 10.1108 2.20928 10.1566 2.17869C10.2023 2.14811 10.238 2.10464 10.2591 2.05379C10.2802 2.00293 10.2857 1.94697 10.2749 1.89298C10.2642 1.83899 10.2377 1.7894 10.1988 1.75048C10.1598 1.71155 10.1102 1.68504 10.0563 1.67431C10.0023 1.66357 9.9463 1.66908 9.89544 1.69014C9.84459 1.71121 9.80112 1.74688 9.77054 1.79265C9.73996 1.83842 9.72363 1.89223 9.72363 1.94728C9.72363 2.02109 9.75296 2.09189 9.80515 2.14408C9.85735 2.19628 9.92814 2.2256 10.002 2.2256ZM10.0067 11.2499L8.49524 12.7613L8.02287 12.289C7.97049 12.2378 7.9 12.2092 7.8267 12.2096C7.7534 12.21 7.68321 12.2393 7.63138 12.2911C7.57954 12.3429 7.55025 12.4131 7.54986 12.4864C7.54947 12.5597 7.57801 12.6302 7.62929 12.6826L8.29841 13.3517C8.32425 13.3776 8.35494 13.3981 8.38871 13.4121C8.42247 13.4261 8.45867 13.4333 8.49522 13.4333C8.53177 13.4333 8.56796 13.4261 8.60173 13.4121C8.6355 13.3981 8.66618 13.3776 8.69203 13.3517L10.4003 11.6434C10.4516 11.5911 10.4801 11.5206 10.4797 11.4473C10.4793 11.374 10.45 11.3038 10.3982 11.2519C10.3464 11.2001 10.2762 11.1708 10.2029 11.1704C10.1296 11.17 10.0591 11.1986 10.0067 11.2499ZM11.1709 8.43199H13.5088C13.5826 8.43199 13.6534 8.40267 13.7056 8.35047C13.7578 8.29828 13.7871 8.22749 13.7871 8.15367C13.7871 8.07986 13.7578 8.00907 13.7056 7.95687C13.6534 7.90468 13.5826 7.87535 13.5088 7.87535H11.1709C11.0971 7.87535 11.0263 7.90468 10.9741 7.95687C10.9219 8.00907 10.8926 8.07986 10.8926 8.15367C10.8926 8.22749 10.9219 8.29828 10.9741 8.35047C11.0263 8.40267 11.0971 8.43199 11.1709 8.43199ZM11.1709 13.4418H13.5088C13.5826 13.4418 13.6534 13.4124 13.7056 13.3602C13.7578 13.308 13.7871 13.2373 13.7871 13.1634C13.7871 13.0896 13.7578 13.0188 13.7056 12.9666C13.6534 12.9144 13.5826 12.8851 13.5088 12.8851H11.1709C11.0971 12.8851 11.0263 12.9144 10.9741 12.9666C10.9219 13.0188 10.8926 13.0896 10.8926 13.1634C10.8926 13.2373 10.9219 13.308 10.9741 13.3602C11.0263 13.4124 11.0971 13.4418 11.1709 13.4418ZM6.49512 14.3047H9.05244C9.12625 14.3047 9.19704 14.2754 9.24924 14.2232C9.30143 14.171 9.33076 14.1002 9.33076 14.0264C9.33076 13.9526 9.30143 13.8818 9.24924 13.8296C9.19704 13.7774 9.12625 13.7481 9.05244 13.7481H6.77344V11.4655H9.05244C9.12625 11.4655 9.19704 11.4362 9.24924 11.384C9.30143 11.3318 9.33076 11.261 9.33076 11.1872C9.33076 11.1134 9.30143 11.0426 9.24924 10.9904C9.19704 10.9382 9.12625 10.9089 9.05244 10.9089H6.49512C6.4213 10.9089 6.35051 10.9382 6.29832 10.9904C6.24612 11.0426 6.2168 11.1134 6.2168 11.1872V14.0264C6.2168 14.1002 6.24612 14.171 6.29832 14.2232C6.35051 14.2754 6.4213 14.3047 6.49512 14.3047ZM11.1709 12.3285H13.5088C13.5826 12.3285 13.6534 12.2992 13.7056 12.247C13.7578 12.1948 13.7871 12.124 13.7871 12.0502C13.7871 11.9763 13.7578 11.9056 13.7056 11.8534C13.6534 11.8012 13.5826 11.7718 13.5088 11.7718H11.1709C11.0971 11.7718 11.0263 11.8012 10.9741 11.8534C10.9219 11.9056 10.8926 11.9763 10.8926 12.0502C10.8926 12.124 10.9219 12.1948 10.9741 12.247C11.0263 12.2992 11.0971 12.3285 11.1709 12.3285ZM6.49512 9.29493H9.05244C9.12625 9.29493 9.19704 9.26561 9.24924 9.21342C9.30143 9.16122 9.33076 9.09043 9.33076 9.01661C9.33076 8.9428 9.30143 8.87201 9.24924 8.81981C9.19704 8.76762 9.12625 8.73829 9.05244 8.73829H6.77344V6.45573H9.05244C9.12625 6.45573 9.19704 6.42641 9.24924 6.37421C9.30143 6.32202 9.33076 6.25123 9.33076 6.17741C9.33076 6.1036 9.30143 6.03281 9.24924 5.98061C9.19704 5.92842 9.12625 5.89909 9.05244 5.89909H6.49512C6.4213 5.89909 6.35051 5.92842 6.29832 5.98061C6.24612 6.03281 6.2168 6.1036 6.2168 6.17741V9.01661C6.2168 9.09043 6.24612 9.16122 6.29832 9.21342C6.35051 9.26561 6.4213 9.29493 6.49512 9.29493ZM15.5498 2.13282H12.7555C12.7166 1.98875 12.6314 1.86147 12.513 1.77062C12.3946 1.67978 12.2496 1.63041 12.1004 1.63014H11.5199C11.4948 1.62917 11.4708 1.62016 11.4512 1.60444C11.4317 1.58872 11.4178 1.56713 11.4115 1.54286C11.3192 1.24102 11.1324 0.976793 10.8786 0.789058C10.6249 0.601323 10.3176 0.5 10.002 0.5C9.68631 0.5 9.37901 0.601323 9.12527 0.789058C8.87152 0.976793 8.68475 1.24102 8.59243 1.54286C8.58614 1.56712 8.57221 1.58871 8.55269 1.60443C8.53317 1.62015 8.50911 1.62916 8.48407 1.63014H7.90353C7.7543 1.63041 7.6093 1.67978 7.4909 1.77062C7.3725 1.86147 7.28729 1.98875 7.2484 2.13282H4.4541C4.08515 2.13324 3.73143 2.27998 3.47055 2.54087C3.20966 2.80176 3.06291 3.15548 3.0625 3.52443V18.1084C3.06291 18.4774 3.20966 18.8311 3.47055 19.092C3.73143 19.3529 4.08515 19.4996 4.4541 19.5H15.5498C15.9188 19.4996 16.2725 19.3529 16.5334 19.092C16.7942 18.8311 16.941 18.4774 16.9414 18.1084V3.52443C16.941 3.15548 16.7942 2.80176 16.5334 2.54087C16.2725 2.27998 15.9188 2.13324 15.5498 2.13282ZM7.78096 2.30935C7.78099 2.27686 7.79391 2.2457 7.81689 2.22272C7.83987 2.19973 7.87103 2.18681 7.90353 2.18678H8.48403C8.62846 2.18633 8.76888 2.13923 8.88435 2.05248C8.99983 1.96573 9.08418 1.84399 9.12484 1.7054C9.18235 1.51763 9.2986 1.35328 9.45649 1.23651C9.61438 1.11975 9.80558 1.05673 10.002 1.05673C10.1983 1.05673 10.3895 1.11975 10.5474 1.23651C10.7053 1.35328 10.8216 1.51763 10.8791 1.7054C10.9197 1.84399 11.0041 1.96573 11.1196 2.05248C11.235 2.13923 11.3754 2.18633 11.5199 2.18678H12.1004C12.1329 2.18681 12.164 2.19973 12.187 2.22272C12.21 2.2457 12.2229 2.27686 12.2229 2.30935V3.92443C12.2229 3.95693 12.21 3.98809 12.187 4.01107C12.164 4.03405 12.1329 4.04697 12.1004 4.047H7.90353C7.87103 4.04697 7.83987 4.03405 7.81689 4.01107C7.79391 3.98809 7.78099 3.95693 7.78096 3.92443V2.30935ZM7.27237 4.17384C7.32245 4.30044 7.40938 4.40909 7.52191 4.48572C7.63444 4.56236 7.76739 4.60343 7.90353 4.60364H12.1004C12.2365 4.60343 12.3695 4.56236 12.482 4.48572C12.5945 4.40909 12.6815 4.30044 12.7315 4.17384H14.4365C14.5595 4.17398 14.6774 4.22289 14.7644 4.30986C14.8513 4.39682 14.9003 4.51472 14.9004 4.63771V15.2324H13.3232C13.1511 15.2326 12.986 15.3011 12.8643 15.4229C12.7425 15.5446 12.674 15.7097 12.6738 15.8818V17.459H5.56738C5.4444 17.4589 5.32649 17.4099 5.23953 17.323C5.15257 17.236 5.10365 17.1181 5.10352 16.9951V4.63771C5.10365 4.51472 5.15257 4.39682 5.23953 4.30986C5.32649 4.22289 5.4444 4.17398 5.56738 4.17384H7.27237ZM14.5068 15.7891L13.2305 17.0654V15.8818C13.2305 15.8573 13.2403 15.8337 13.2577 15.8163C13.2751 15.7989 13.2986 15.7891 13.3232 15.7891H14.5068ZM16.3848 18.1084C16.3845 18.3298 16.2965 18.542 16.1399 18.6985C15.9834 18.8551 15.7712 18.9431 15.5498 18.9434H4.4541C4.23273 18.9431 4.0205 18.8551 3.86397 18.6985C3.70743 18.542 3.61939 18.3298 3.61914 18.1084V3.52443C3.61939 3.30306 3.70743 3.09082 3.86397 2.93429C4.0205 2.77776 4.23273 2.68971 4.4541 2.68947H7.22432V3.6172H5.56738C5.29682 3.6175 5.03743 3.72512 4.84611 3.91644C4.65479 4.10775 4.54718 4.36715 4.54688 4.63771V16.9951C4.54718 17.2657 4.65479 17.5251 4.84611 17.7164C5.03743 17.9077 5.29682 18.0153 5.56738 18.0156H12.9521C12.9615 18.0156 12.9707 18.0152 12.9799 18.0142C12.9867 18.0136 12.9933 18.0124 12.9998 18.0113C13.0022 18.0108 13.0046 18.0107 13.007 18.0101C13.0148 18.0086 13.0224 18.0066 13.0299 18.0044C13.031 18.0041 13.0322 18.0039 13.0333 18.0035C13.041 18.0012 13.0485 17.9984 13.0558 17.9954C13.0568 17.9951 13.0579 17.9948 13.0589 17.9943C13.0658 17.9914 13.0727 17.9882 13.0794 17.9847C13.0807 17.9839 13.0821 17.9834 13.0835 17.9827C13.0897 17.9793 13.0956 17.9756 13.1015 17.9719C13.1033 17.9708 13.1052 17.9698 13.1069 17.9686C13.1125 17.9648 13.1179 17.9608 13.1232 17.9566C13.125 17.9551 13.127 17.9539 13.1288 17.9524C13.1358 17.9466 13.1426 17.9405 13.149 17.9341L15.3755 15.7076C15.3819 15.7012 15.388 15.6944 15.3938 15.6874C15.3952 15.6856 15.3965 15.6836 15.398 15.6818C15.4021 15.6764 15.4063 15.6711 15.41 15.6655C15.4112 15.6638 15.4122 15.6619 15.4133 15.6601C15.4171 15.6543 15.4207 15.6483 15.424 15.6421C15.4248 15.6407 15.4254 15.6393 15.426 15.638C15.4295 15.6313 15.4328 15.6245 15.4357 15.6175C15.4362 15.6165 15.4365 15.6154 15.4368 15.6144C15.4398 15.6071 15.4426 15.5996 15.4449 15.5919C15.4453 15.5908 15.4455 15.5896 15.4458 15.5885C15.448 15.581 15.45 15.5733 15.4516 15.5655C15.4521 15.5632 15.4522 15.5608 15.4527 15.5585C15.4538 15.5519 15.455 15.5453 15.4557 15.5385C15.4565 15.5293 15.457 15.5201 15.457 15.5108V4.63771C15.4567 4.36715 15.3491 4.10775 15.1578 3.91644C14.9665 3.72512 14.7071 3.6175 14.4365 3.6172H12.7796V2.68947H15.5498C15.7712 2.68971 15.9834 2.77776 16.1399 2.93429C16.2965 3.09082 16.3845 3.30306 16.3848 3.52443V18.1084ZM8.02291 7.27926C7.97064 7.22744 7.89997 7.19844 7.82637 7.1986C7.75276 7.19876 7.68222 7.22806 7.63017 7.28011C7.57812 7.33215 7.54881 7.40269 7.54864 7.47629C7.54848 7.5499 7.57748 7.62057 7.62929 7.67285L8.29841 8.34197C8.32425 8.36781 8.35494 8.38831 8.38871 8.4023C8.42247 8.41629 8.45867 8.42349 8.49522 8.42349C8.53177 8.42349 8.56796 8.41629 8.60173 8.4023C8.6355 8.38831 8.66618 8.36781 8.69203 8.34197L10.4003 6.63367C10.4516 6.58129 10.4801 6.5108 10.4797 6.4375C10.4793 6.36419 10.45 6.29401 10.3982 6.24218C10.3464 6.19034 10.2762 6.16105 10.2029 6.16066C10.1296 6.16027 10.0591 6.18881 10.0067 6.24009L8.49524 7.75156L8.02291 7.27926Z" fill="#2D2D2D"/>
</g>
<defs>
<clipPath id="clip0_1668_68830">
<rect width="19" height="19" fill="white" transform="translate(0.5 0.5)"/>
</clipPath>
</defs>
</svg>
