<svg width="50" height="50" viewBox="0 0 50 50" fill="none" xmlns="http://www.w3.org/2000/svg">
<path d="M29.0457 0L45.4092 16.666V44.166C45.4092 47.3885 42.8457 50 39.682 50H10.2275C7.06377 50 4.5 47.3862 4.5 44.166V5.83398C4.50024 2.61152 7.06396 0 10.2277 0H29.0457Z" fill="#5895FF"/>
<path d="M45.4182 16.666H35.0707C31.9092 16.666 29.0547 13.7612 29.0547 10.5385V0L45.4182 16.666Z" fill="white" fill-opacity="0.4"/>
<path d="M20.8693 35.4141V37.498H12.6875V35.4141H20.8693ZM29.0513 31.248V33.332H12.6875V31.248H29.0513ZM29.0513 27.082V29.1641H12.6875V27.082H29.0513ZM29.0513 22.9141V24.998H12.6875V22.9141H29.0513Z" fill="white"/>
</svg>
