<svg width="16" height="16" viewBox="0 0 16 16" fill="none" xmlns="http://www.w3.org/2000/svg">
<path fill-rule="evenodd" clip-rule="evenodd" d="M5.28933 2H10.7107C11.3013 2 11.8107 2 12.2187 2.0492C12.6553 2.102 13.0747 2.2214 13.414 2.5274C13.754 2.8334 13.8867 3.2102 13.9453 3.6032C14 3.9704 14 4.4288 14 4.9604V5.57C14 5.72913 13.9298 5.88174 13.8047 5.99426C13.6797 6.10679 13.5101 6.17 13.3333 6.17C13.1565 6.17 12.987 6.10679 12.8619 5.99426C12.7369 5.88174 12.6667 5.72913 12.6667 5.57V5C12.6667 4.4174 12.6653 4.0406 12.624 3.7634C12.5847 3.503 12.522 3.4214 12.4713 3.3758C12.4207 3.3302 12.33 3.2738 12.0407 3.2384C11.7333 3.2012 11.314 3.2 10.6667 3.2H8.66667V13.4C8.66667 13.5591 8.59643 13.7117 8.4714 13.8243C8.34638 13.9368 8.17681 14 8 14C7.82319 14 7.65362 13.9368 7.5286 13.8243C7.40357 13.7117 7.33333 13.5591 7.33333 13.4V3.2H5.33333C4.686 3.2 4.26733 3.2012 3.95933 3.2384C3.67 3.2738 3.57933 3.3302 3.52867 3.3758C3.478 3.4214 3.41533 3.503 3.376 3.7634C3.33467 4.04 3.33333 4.4174 3.33333 5V5.57C3.33333 5.72913 3.2631 5.88174 3.13807 5.99426C3.01305 6.10679 2.84348 6.17 2.66667 6.17C2.48986 6.17 2.32029 6.10679 2.19526 5.99426C2.07024 5.88174 2 5.72913 2 5.57V4.9604C2 4.4288 2 3.9704 2.05467 3.6032C2.11333 3.2102 2.246 2.8328 2.586 2.5274C2.926 2.2214 3.34467 2.102 3.78133 2.0492C4.18933 2 4.69867 2 5.28933 2Z" fill="#797979"/>
<path d="M4.66797 14H11.3346" stroke="#797979" stroke-linecap="round" stroke-linejoin="round"/>
</svg>
