<svg width="10" height="10" viewBox="0 0 10 10" fill="none" xmlns="http://www.w3.org/2000/svg">
<path d="M2.49479 1.66732C2.49479 2.12756 2.1217 2.50065 1.66146 2.50065C1.20122 2.50065 0.828125 2.12756 0.828125 1.66732C0.828125 1.20708 1.20122 0.833984 1.66146 0.833984C2.1217 0.833984 2.49479 1.20708 2.49479 1.66732Z" stroke="#6A6A75" stroke-width="0.8"/>
<path d="M2.49479 8.33333C2.49479 8.79358 2.1217 9.16667 1.66146 9.16667C1.20122 9.16667 0.828125 8.79358 0.828125 8.33333C0.828125 7.87308 1.20122 7.5 1.66146 7.5C2.1217 7.5 2.49479 7.87308 2.49479 8.33333Z" stroke="#6A6A75" stroke-width="0.8"/>
<path d="M5.83073 8.33333C5.83073 8.79358 5.45765 9.16667 4.9974 9.16667C4.53715 9.16667 4.16406 8.79358 4.16406 8.33333C4.16406 7.87308 4.53715 7.5 4.9974 7.5C5.45765 7.5 5.83073 7.87308 5.83073 8.33333Z" stroke="#6A6A75" stroke-width="0.8"/>
<path d="M5.83073 1.66732C5.83073 2.12756 5.45765 2.50065 4.9974 2.50065C4.53715 2.50065 4.16406 2.12756 4.16406 1.66732C4.16406 1.20708 4.53715 0.833984 4.9974 0.833984C5.45765 0.833984 5.83073 1.20708 5.83073 1.66732Z" stroke="#6A6A75" stroke-width="0.8"/>
<path d="M9.16667 1.66732C9.16667 2.12756 8.79358 2.50065 8.33333 2.50065C7.87308 2.50065 7.5 2.12756 7.5 1.66732C7.5 1.20708 7.87308 0.833984 8.33333 0.833984C8.79358 0.833984 9.16667 1.20708 9.16667 1.66732Z" stroke="#6A6A75" stroke-width="0.8"/>
<path d="M1.66406 2.49805V7.49805" stroke="#6A6A75" stroke-width="0.8" stroke-linecap="round"/>
<path d="M5 2.49805V7.49805" stroke="#6A6A75" stroke-width="0.8" stroke-linecap="round"/>
<path d="M8.33073 2.49805V3.33138C8.33073 4.11706 8.33073 4.50988 8.08665 4.75396C7.84256 4.99805 7.44973 4.99805 6.66406 4.99805H1.66406" stroke="#6A6A75" stroke-width="0.8" stroke-linecap="round"/>
</svg>
