<svg width="14" height="14" viewBox="0 0 14 14" fill="none" xmlns="http://www.w3.org/2000/svg">
<path d="M13.4662 3.57034C13.4518 3.57034 13.4303 3.57034 13.4087 3.57034C9.6102 3.22522 5.81886 3.09498 2.06339 3.44011L0.598557 3.57034C0.296973 3.59639 0.0312913 3.40103 0.00256898 3.12754C-0.0261533 2.85404 0.189264 2.61962 0.483668 2.59357L1.9485 2.46334C5.76859 2.1117 9.63892 2.24845 13.5164 2.59357C13.8108 2.61962 14.0263 2.86056 13.9975 3.12754C13.976 3.3815 13.739 3.57034 13.4662 3.57034Z" fill="#DF1C1C"/>
<path d="M4.4922 2.91077C4.46348 2.91077 4.43476 2.91077 4.39885 2.90426C4.11163 2.85867 3.91057 2.60471 3.96084 2.34424L4.11881 1.4912C4.2337 0.866067 4.39167 0 6.06472 0H7.94603C9.62628 0 9.78426 0.898626 9.89196 1.49771L10.0499 2.34424C10.1002 2.61122 9.89915 2.86518 9.61192 2.90426C9.31752 2.94984 9.03748 2.76751 8.99439 2.50704L8.83642 1.6605C8.73589 1.09398 8.71435 0.983279 7.95321 0.983279H6.0719C5.31079 0.983279 5.29643 1.07444 5.18872 1.65399L5.02356 2.50052C4.98048 2.74146 4.7507 2.91077 4.4922 2.91077Z" fill="#DF1C1C"/>
<path d="M9.31048 14H4.70055C2.19453 14 2.094 12.7432 2.01501 11.7274L1.54827 5.16997C1.52673 4.90299 1.75651 4.66857 2.05091 4.64903C2.3525 4.63601 2.60382 4.83788 2.62536 5.10486L3.0921 11.6622C3.17108 12.652 3.19981 13.0232 4.70055 13.0232H9.31048C10.8184 13.0232 10.8471 12.652 10.9189 11.6622L11.3857 5.10486C11.4072 4.83788 11.6657 4.63601 11.9601 4.64903C12.2545 4.66857 12.4843 4.89647 12.4628 5.16997L11.996 11.7274C11.917 12.7432 11.8165 14 9.31048 14Z" fill="#DF1C1C"/>
<path d="M8.19531 10.4221H5.80418C5.50976 10.4221 5.26562 10.2007 5.26562 9.9337C5.26562 9.66671 5.50976 9.44531 5.80418 9.44531H8.19531C8.48972 9.44531 8.73386 9.66671 8.73386 9.9337C8.73386 10.2007 8.48972 10.4221 8.19531 10.4221Z" fill="#DF1C1C"/>
<path d="M8.80071 7.81271H5.21042C4.91601 7.81271 4.67188 7.5913 4.67188 7.32432C4.67188 7.05734 4.91601 6.83594 5.21042 6.83594H8.80071C9.09511 6.83594 9.33925 7.05734 9.33925 7.32432C9.33925 7.5913 9.09511 7.81271 8.80071 7.81271Z" fill="#DF1C1C"/>
</svg>
