<svg width="50" height="50" viewBox="0 0 50 50" fill="none" xmlns="http://www.w3.org/2000/svg">
<path d="M47.6526 28.9063V34.6016C47.6526 35.4304 47.3234 36.2252 46.7373 36.8113C46.1513 37.3973 45.3564 37.7266 44.5276 37.7266H41.6448C41.6448 36.6678 41.2242 35.6523 40.4755 34.9037C39.7268 34.155 38.7114 33.7344 37.6526 33.7344C36.5938 33.7344 35.5784 34.155 34.8297 34.9037C34.081 35.6523 33.6604 36.6678 33.6604 37.7266H31.012V14.5781H37.0667C37.5833 14.5774 38.0921 14.7047 38.5475 14.9487C39.0028 15.1928 39.3906 15.5459 39.676 15.9766L44.137 22.6953L47.1292 27.2031C47.4652 27.708 47.6471 28.2998 47.6526 28.9063ZM14.5823 14.1563C14.5823 14.2969 14.5823 14.4375 14.5823 14.5781C14.527 16.1771 13.8458 17.6904 12.6855 18.7921C11.5252 19.8937 9.97862 20.4955 8.37889 20.4678C6.77916 20.4402 5.25431 19.7853 4.13278 18.6442C3.01126 17.5031 2.38281 15.9672 2.38281 14.3672C2.38281 12.7672 3.01126 11.2313 4.13278 10.0902C5.25431 8.94911 6.77916 8.2942 8.37889 8.26654C9.97862 8.23888 11.5252 8.84068 12.6855 9.94231C13.8458 11.0439 14.527 12.5572 14.5823 14.1563Z" fill="#FCD307"/>
<path d="M9.37595 11.875C9.58315 11.875 9.78186 11.7927 9.92837 11.6462C10.0749 11.4997 10.1572 11.301 10.1572 11.0938C10.1572 10.8865 10.0749 10.6878 9.92837 10.5413C9.78186 10.3948 9.58315 10.3125 9.37595 10.3125C8.71271 10.3138 8.06 10.4784 7.47546 10.7918C6.89093 11.1052 6.39257 11.5577 6.02438 12.1094L5.87595 11.7578C5.83542 11.6634 5.7767 11.5779 5.70314 11.5062C5.62958 11.4346 5.54262 11.3781 5.44722 11.34C5.35182 11.3019 5.24986 11.283 5.14715 11.2843C5.04444 11.2856 4.94299 11.3071 4.8486 11.3477C4.75422 11.3882 4.66873 11.4469 4.59704 11.5205C4.52535 11.594 4.46884 11.681 4.43076 11.7764C4.39267 11.8718 4.37374 11.9737 4.37506 12.0765C4.37638 12.1792 4.39792 12.2806 4.43845 12.375L5.4072 14.6563C5.46819 14.796 5.56874 14.9148 5.69645 14.9981C5.82417 15.0814 5.97347 15.1255 6.12595 15.125C6.17777 15.1324 6.23037 15.1324 6.2822 15.125C6.46132 15.0885 6.62196 14.9903 6.73616 14.8475C6.85036 14.7048 6.91088 14.5265 6.9072 14.3438C6.90926 13.6896 7.17002 13.0629 7.63255 12.6004C8.09509 12.1378 8.72183 11.8771 9.37595 11.875ZM7.61032 18.1875C8.26831 18.1848 8.91563 18.021 9.49576 17.7105C10.0759 17.4 10.5712 16.9522 10.9384 16.4062L11.0869 16.7578C11.1693 16.9469 11.3231 17.0958 11.5149 17.1719C11.7066 17.248 11.9207 17.2452 12.1103 17.1641C12.3008 17.0831 12.4515 16.9299 12.5291 16.738C12.6067 16.5461 12.605 16.3313 12.5244 16.1406L11.5556 13.8594C11.4851 13.6938 11.3596 13.5577 11.2003 13.474C11.041 13.3903 10.8577 13.3641 10.6814 13.3999C10.505 13.4358 10.3464 13.5314 10.2324 13.6706C10.1184 13.8098 10.056 13.9841 10.0556 14.1641C10.0556 14.8188 9.79553 15.4468 9.33255 15.9097C8.86957 16.3727 8.24164 16.6328 7.58688 16.6328C7.37968 16.6328 7.18097 16.7151 7.03446 16.8616C6.88794 17.0081 6.80563 17.2069 6.80563 17.4141C6.80563 17.6213 6.88794 17.82 7.03446 17.9665C7.18097 18.113 7.37968 18.1953 7.58688 18.1953L7.61032 18.1875Z" fill="#2D2D2D"/>
<path d="M47.7792 26.7738L44.7948 22.266L42.3807 18.6254L40.326 15.5473C39.8655 14.8583 39.1938 14.3375 38.412 14.0629C37.9842 13.9048 37.5321 13.8228 37.076 13.8207H14.5682C14.524 13.8169 14.4796 13.8169 14.4354 13.8207H14.2948C14.2464 13.8391 14.2015 13.8655 14.162 13.8988C14.1203 13.9176 14.081 13.9412 14.0448 13.9691C14.0015 14.0151 13.9623 14.0648 13.9276 14.1176C13.9276 14.1176 13.8807 14.1723 13.8651 14.2035C13.8228 14.2947 13.7964 14.3925 13.787 14.4926C13.7725 14.7048 13.7464 14.916 13.7088 15.1254C13.5704 15.8461 13.2854 16.5308 12.8715 17.1369C12.4576 17.743 11.9236 18.2576 11.3026 18.6488C10.4495 19.1706 9.46661 19.4413 8.46666 19.4301C8.10691 19.4263 7.7484 19.3871 7.39635 19.3129C6.09543 19.0553 4.93731 18.3219 4.14837 17.2559C3.35943 16.1899 2.99637 14.8681 3.13017 13.5486C3.26396 12.2292 3.88499 11.0072 4.87187 10.1213C5.85874 9.23536 7.14052 8.74934 8.46666 8.75819C9.4018 8.76083 10.32 9.00811 11.13 9.47546C11.94 9.94281 12.6136 10.614 13.0838 11.4223C13.1349 11.5118 13.2031 11.5903 13.2847 11.6533C13.3662 11.7164 13.4594 11.7627 13.5588 11.7895C13.6583 11.8164 13.7621 11.8233 13.8643 11.8099C13.9665 11.7965 14.065 11.763 14.1542 11.7113C14.243 11.6596 14.3208 11.5909 14.3831 11.5091C14.4453 11.4273 14.4908 11.334 14.517 11.2345C14.5431 11.1351 14.5493 11.0315 14.5353 10.9296C14.5214 10.8278 14.4874 10.7297 14.4354 10.641C13.9259 9.81473 13.2475 9.10544 12.4447 8.55961C11.642 8.01378 10.7329 7.64373 9.7772 7.4737C8.82146 7.30368 7.84057 7.33751 6.89881 7.57299C5.95706 7.80847 5.07568 8.24029 4.31244 8.84013C3.5492 9.43998 2.92131 10.1943 2.46993 11.0538C2.01854 11.9132 1.75384 12.8583 1.69316 13.8271C1.63249 14.796 1.77721 15.7667 2.11785 16.6757C2.45848 17.5848 2.98735 18.4116 3.66979 19.1019V27.766C3.66979 27.9732 3.7521 28.1719 3.89861 28.3184C4.04512 28.4649 4.24384 28.5473 4.45104 28.5473C4.65824 28.5473 4.85695 28.4649 5.00346 28.3184C5.14998 28.1719 5.23229 27.9732 5.23229 27.766V20.2504L5.34948 20.3051L5.66198 20.4535L5.9276 20.5629L6.24791 20.6879L6.52135 20.7738L6.85729 20.8598L7.13854 20.9223L7.48229 20.9769H7.68541V29.8754C7.68541 30.0826 7.6031 30.2813 7.45659 30.4278C7.31008 30.5743 7.11136 30.6566 6.90416 30.6566H4.45104C4.24384 30.6566 4.04512 30.7389 3.89861 30.8855C3.7521 31.032 3.66979 31.2307 3.66979 31.4379V36.1957C3.66979 36.8173 3.91672 37.4134 4.35626 37.853C4.79579 38.2925 5.39194 38.5394 6.01354 38.5394H7.02916C7.17856 39.4466 7.58842 40.2907 8.20885 40.9691H6.45885C6.25165 40.9691 6.05294 41.0514 5.90642 41.198C5.75991 41.3445 5.6776 41.5432 5.6776 41.7504C5.6776 41.9576 5.75991 42.1563 5.90642 42.3028C6.05294 42.4493 6.25165 42.5316 6.45885 42.5316H11.7167C11.9784 42.5269 12.2395 42.5034 12.4979 42.4613H12.5917C12.8363 42.4128 13.0766 42.3449 13.3104 42.2582H13.4276C13.6496 42.1667 13.8661 42.0623 14.076 41.9457L14.1776 41.8832C14.4105 41.7411 14.6325 41.5818 14.8417 41.4066L14.9042 41.3519C15.0974 41.1835 15.2776 41.0007 15.4432 40.8051C15.6067 40.6069 15.753 40.3952 15.8807 40.1723L15.9276 40.0941C16.0463 39.881 16.1482 39.659 16.2323 39.4301C16.2356 39.3911 16.2356 39.3519 16.2323 39.3129C16.3185 39.0828 16.3813 38.8446 16.4198 38.6019C16.4152 38.584 16.4152 38.5652 16.4198 38.5473H32.9042C32.9088 38.5652 32.9088 38.584 32.9042 38.6019C32.9427 38.8446 33.0055 39.0828 33.0917 39.3129C33.0883 39.3519 33.0883 39.3911 33.0917 39.4301C33.1758 39.659 33.2777 39.881 33.3964 40.0941L33.4432 40.1723C33.5709 40.3952 33.7173 40.6069 33.8807 40.8051L34.037 40.9769H30.912C30.7048 40.9769 30.5061 41.0592 30.3595 41.2058C30.213 41.3523 30.1307 41.551 30.1307 41.7582C30.1307 41.9654 30.213 42.1641 30.3595 42.3106C30.5061 42.4571 30.7048 42.5394 30.912 42.5394H37.5526C38.8186 42.5394 40.0327 42.0365 40.9279 41.1413C41.8231 40.2461 42.326 39.032 42.326 37.766C42.326 36.5 41.8231 35.2859 40.9279 34.3907C40.0327 33.4955 38.8186 32.9926 37.5526 32.9926C37.2908 32.9973 37.0297 33.0208 36.7714 33.0629H36.6776C36.433 33.1114 36.1926 33.1793 35.9589 33.266H35.8417C35.6196 33.3575 35.4031 33.4619 35.1932 33.5785L35.0917 33.641C34.8844 33.7708 34.686 33.9143 34.4979 34.0707L34.4354 34.1254C34.2422 34.2938 34.062 34.4766 33.8964 34.6723C33.7329 34.8705 33.5865 35.0821 33.4589 35.3051L33.412 35.3832C33.2933 35.5963 33.1914 35.8183 33.1073 36.0473C33.104 36.0862 33.104 36.1255 33.1073 36.1644C33.0247 36.3957 32.962 36.6335 32.9198 36.8754C32.9244 36.8933 32.9244 36.9121 32.9198 36.9301H31.7948V32.2191H46.8729V34.6332C46.8732 34.788 46.8575 34.9425 46.826 35.0941C46.826 35.1566 46.826 35.2191 46.7714 35.2894C46.75 35.3665 46.7239 35.4422 46.6932 35.516C46.6641 35.5885 46.6302 35.659 46.5917 35.7269C46.5917 35.7894 46.5292 35.8519 46.4901 35.9066C46.4476 35.9723 46.4007 36.035 46.3495 36.0941C46.3026 36.1488 46.2635 36.2035 46.2167 36.2504L46.0526 36.3988C45.9992 36.4503 45.9418 36.4973 45.8807 36.5394C45.8256 36.5832 45.7652 36.6199 45.701 36.6488C45.6334 36.6925 45.5629 36.7316 45.4901 36.766L45.3026 36.8363L45.0682 36.9066H44.8573C44.7481 36.9147 44.6384 36.9147 44.5292 36.9066C44.322 36.9066 44.1232 36.9889 43.9767 37.1355C43.8302 37.282 43.7479 37.4807 43.7479 37.6879C43.7479 37.8951 43.8302 38.0938 43.9767 38.2403C44.1232 38.3868 44.322 38.4691 44.5292 38.4691H44.701H44.8026C44.8963 38.4691 44.9823 38.4691 45.076 38.4223C45.1945 38.409 45.3119 38.3881 45.4276 38.3598C45.5576 38.3289 45.6854 38.2898 45.8104 38.2426C45.9223 38.2078 46.0319 38.166 46.1385 38.1176C46.2545 38.0654 46.3667 38.0054 46.4745 37.9379C46.576 37.8754 46.6854 37.8207 46.7792 37.7504C46.8753 37.6811 46.9667 37.6054 47.0526 37.5238C47.1542 37.4379 47.2557 37.3598 47.3417 37.2738C47.4276 37.1879 47.4823 37.1019 47.5526 37.0082C47.64 36.9094 47.7209 36.805 47.7948 36.6957C47.8573 36.6019 47.9042 36.5004 47.9589 36.3988C48.0265 36.2857 48.0865 36.1683 48.1385 36.0473C48.1884 35.9198 48.2301 35.7893 48.2635 35.6566C48.2635 35.5473 48.3339 35.4457 48.3573 35.3363C48.4078 35.0789 48.434 34.8174 48.4354 34.5551V28.9066C48.4287 28.147 48.2006 27.4058 47.7792 26.7738ZM40.8651 37.7582C40.8651 38.3933 40.6768 39.0141 40.324 39.5421C39.9711 40.0701 39.4697 40.4817 38.8829 40.7247C38.2962 40.9677 37.6506 41.0313 37.0277 40.9074C36.4049 40.7835 35.8327 40.4777 35.3837 40.0287C34.9346 39.5796 34.6288 39.0075 34.5049 38.3846C34.381 37.7618 34.4446 37.1161 34.6876 36.5294C34.9307 35.9427 35.3422 35.4412 35.8703 35.0884C36.3983 34.7356 37.0191 34.5473 37.6542 34.5473C38.5058 34.5473 39.3225 34.8855 39.9246 35.4877C40.5268 36.0899 40.8651 36.9066 40.8651 37.7582ZM5.23229 36.1957V32.2191H6.90416C7.52576 32.2191 8.12191 31.9722 8.56144 31.5327C9.00098 31.0931 9.24791 30.497 9.24791 29.8754V21.0082H9.34948L9.70104 20.9457C9.88854 20.9457 10.0682 20.8754 10.2557 20.8285L10.6151 20.7191L10.9354 20.6176V33.0551L10.6698 33.1098L10.4979 33.1566C10.3722 33.1807 10.2492 33.2174 10.1307 33.266L10.0213 33.3129C9.86819 33.3666 9.71933 33.4319 9.57604 33.5082C9.41246 33.5891 9.25569 33.6832 9.10729 33.7894C8.9618 33.8775 8.82336 33.9768 8.69323 34.0863H8.64635C8.51354 34.2035 8.39635 34.3207 8.27916 34.4457C8.16198 34.5707 8.0526 34.7035 7.93541 34.8519C7.65871 35.2157 7.43755 35.6185 7.27916 36.0473C7.27916 36.1254 7.22448 36.1957 7.20104 36.266V36.3051C7.1568 36.4409 7.12029 36.5792 7.09166 36.7191V36.8441C7.0879 36.8753 7.0879 36.9067 7.09166 36.9379H6.01354C5.81293 36.9381 5.61991 36.8612 5.47447 36.723C5.32904 36.5849 5.24232 36.396 5.23229 36.1957ZM8.53698 37.7582C8.53581 37.5616 8.55412 37.3653 8.59166 37.1723V37.0629C8.59166 36.9926 8.63072 36.9223 8.64635 36.8598C8.64958 36.8312 8.64958 36.8024 8.64635 36.7738L8.70885 36.5941C8.8094 36.33 8.94898 36.0825 9.12291 35.8598C9.20885 35.7504 9.28698 35.6488 9.37291 35.5551C9.45885 35.4613 9.54479 35.3832 9.63854 35.3051C9.72084 35.2377 9.80692 35.1751 9.89635 35.1176C9.98975 35.0512 10.0891 34.9936 10.1932 34.9457C10.2858 34.8936 10.3825 34.8492 10.4823 34.8129C10.5448 34.8129 10.5448 34.8129 10.5917 34.766L10.7713 34.7113L10.9823 34.6566H11.0917H11.1776C11.3193 34.6304 11.4632 34.6173 11.6073 34.6176H11.7167C12.3517 34.6176 12.9725 34.8059 13.5006 35.1587C14.0286 35.5115 14.4402 36.013 14.6832 36.5997C14.9262 37.1865 14.9898 37.8321 14.8659 38.4549C14.742 39.0778 14.4362 39.6499 13.9871 40.099C13.5381 40.548 12.9659 40.8538 12.3431 40.9777C11.7202 41.1016 11.0746 41.0381 10.4879 40.795C9.90117 40.552 9.39969 40.1404 9.04687 39.6124C8.69404 39.0844 8.50573 38.4636 8.50573 37.8285L8.53698 37.7582ZM16.4588 36.9769C16.4554 36.9563 16.4554 36.9351 16.4588 36.9144C16.4197 36.7005 16.3675 36.4892 16.3026 36.2816C16.2861 36.2465 16.273 36.2099 16.2635 36.1723C16.1932 35.9848 16.1151 35.8051 16.0292 35.6254L15.9823 35.5316C15.878 35.3431 15.7632 35.1605 15.6385 34.9848L15.5604 34.8754C15.4278 34.7023 15.2843 34.5379 15.1307 34.3832C14.9733 34.2295 14.8063 34.086 14.6307 33.9535L14.5213 33.8754C14.3467 33.749 14.1641 33.6342 13.9745 33.5316L13.8729 33.4926C13.6972 33.4 13.5143 33.3216 13.326 33.2582H13.2245C13.0124 33.1905 12.7957 33.1383 12.576 33.1019H12.5135V32.2191H26.3729C26.5801 32.2191 26.7788 32.1368 26.9253 31.9903C27.0719 31.8438 27.1542 31.6451 27.1542 31.4379C27.1542 31.2307 27.0719 31.032 26.9253 30.8855C26.7788 30.7389 26.5801 30.6566 26.3729 30.6566H12.4979V19.7191L12.6776 19.5785L12.8963 19.4066L13.2792 19.0551L13.4432 18.891C13.6174 18.7099 13.7817 18.5195 13.9354 18.3207C14.085 18.1256 14.2232 17.9222 14.3495 17.7113L14.4667 17.5082C14.5525 17.3586 14.6307 17.2048 14.701 17.0473C14.7401 16.9691 14.7792 16.8832 14.8104 16.8051C14.8417 16.7269 14.9354 16.5004 14.9901 16.3441C15.0448 16.1879 15.0448 16.1801 15.0682 16.0941C15.0917 16.0082 15.1698 15.7348 15.2088 15.5551C15.2479 15.3754 15.2089 15.4301 15.2479 15.3676C15.287 15.3051 15.2479 15.3676 15.2479 15.3207H30.2323V36.9769H16.4588ZM31.7948 30.6566V15.3598H37.0682C37.4606 15.358 37.8474 15.4525 38.1947 15.635C38.5421 15.8175 38.8393 16.0825 39.0604 16.4066L41.6073 20.2348L42.7245 21.9144H38.6385C38.0169 21.9144 37.4208 21.6675 36.9813 21.228C36.5417 20.7884 36.2948 20.1923 36.2948 19.5707V17.8441C36.2948 17.6369 36.2125 17.4382 36.066 17.2917C35.9195 17.1452 35.7207 17.0629 35.5135 17.0629C35.3063 17.0629 35.1076 17.1452 34.9611 17.2917C34.8146 17.4382 34.7323 17.6369 34.7323 17.8441V19.5707C34.7323 20.6067 35.1438 21.6003 35.8764 22.3328C36.609 23.0654 37.6025 23.4769 38.6385 23.4769H43.7479L46.5135 27.6332C46.7532 28.0143 46.8779 28.4564 46.8729 28.9066V30.6254L31.7948 30.6566Z" fill="#2D2D2D"/>
<path d="M37.2702 25.8516H34.4577C34.2505 25.8516 34.0517 25.9339 33.9052 26.0804C33.7587 26.2269 33.6764 26.4256 33.6764 26.6328C33.6764 26.84 33.7587 27.0387 33.9052 27.1852C34.0517 27.3318 34.2505 27.4141 34.4577 27.4141H37.2702C37.4774 27.4141 37.6761 27.3318 37.8226 27.1852C37.9691 27.0387 38.0514 26.84 38.0514 26.6328C38.0514 26.4256 37.9691 26.2269 37.8226 26.0804C37.6761 25.9339 37.4774 25.8516 37.2702 25.8516ZM12.1452 37.1094C12.1053 37.0785 12.0603 37.0547 12.0123 37.0391C11.9658 37.0153 11.9157 36.9994 11.8639 36.9922C11.7663 36.9686 11.6646 36.9686 11.567 36.9922C11.5153 36.9994 11.4651 37.0153 11.4186 37.0391L11.278 37.1094L11.1608 37.2031C11.0876 37.2758 11.0294 37.3622 10.9898 37.4574C10.9501 37.5526 10.9297 37.6547 10.9297 37.7578C10.9297 37.8609 10.9501 37.9631 10.9898 38.0583C11.0294 38.1535 11.0876 38.2399 11.1608 38.3125C11.1979 38.3461 11.237 38.3774 11.278 38.4062C11.3215 38.4358 11.3688 38.4595 11.4186 38.4766C11.4651 38.5003 11.5153 38.5162 11.567 38.5234H11.7155H11.8639C11.9157 38.5162 11.9658 38.5003 12.0123 38.4766C12.0603 38.461 12.1053 38.4372 12.1452 38.4062C12.1898 38.3793 12.2317 38.3478 12.2702 38.3125C12.3434 38.2399 12.4015 38.1535 12.4412 38.0583C12.4808 37.9631 12.5012 37.8609 12.5012 37.7578C12.5012 37.6547 12.4808 37.5526 12.4412 37.4574C12.4015 37.3622 12.3434 37.2758 12.2702 37.2031L12.1452 37.1094ZM36.9342 37.5C36.8929 37.5935 36.8715 37.6946 36.8715 37.7969C36.8715 37.8991 36.8929 38.0002 36.9342 38.0937C36.9714 38.1896 37.0272 38.2773 37.0983 38.3516C37.1709 38.4248 37.2573 38.4829 37.3525 38.5226C37.4477 38.5622 37.5498 38.5827 37.653 38.5827C37.7561 38.5827 37.8582 38.5622 37.9534 38.5226C38.0486 38.4829 38.135 38.4248 38.2077 38.3516C38.2788 38.2773 38.3345 38.1896 38.3717 38.0937C38.413 38.0002 38.4344 37.8991 38.4344 37.7969C38.4344 37.6946 38.413 37.5935 38.3717 37.5C38.3322 37.4053 38.2767 37.3181 38.2077 37.2422C38.135 37.169 38.0486 37.1108 37.9534 37.0712C37.8582 37.0315 37.7561 37.0111 37.653 37.0111C37.5498 37.0111 37.4477 37.0315 37.3525 37.0712C37.2573 37.1108 37.1709 37.169 37.0983 37.2422C37.0272 37.3165 36.9714 37.4041 36.9342 37.5ZM27.6998 40.9687H25.778C25.5708 40.9687 25.3721 41.0511 25.2255 41.1976C25.079 41.3441 24.9967 41.5428 24.9967 41.75C24.9967 41.9572 25.079 42.1559 25.2255 42.3024C25.3721 42.4489 25.5708 42.5312 25.778 42.5312H27.6686C27.8758 42.5312 28.0745 42.4489 28.221 42.3024C28.3675 42.1559 28.4498 41.9572 28.4498 41.75C28.4498 41.5428 28.3675 41.3441 28.221 41.1976C28.0745 41.0511 27.8758 40.9687 27.6686 40.9687H27.6998Z" fill="#2D2D2D"/>
</svg>
