<svg xmlns="http://www.w3.org/2000/svg" xml:space="preserve" id="question-file" x="0" y="0" enable-background="new 0 0 24 24" version="1.1" viewBox="0 0 24 24">
  <path d="M21.71,5.29l-5-5C16.52,0.11,16.27,0,16,0H5C3.35,0,2,1.35,2,3v18c0,1.65,1.35,3,3,3h14c1.65,0,3-1.35,3-3V6
		C22,5.73,21.89,5.48,21.71,5.29z M19.59,6H16V2.41L19.59,6z M20,21c0,0.55-0.45,1-1,1H5c-0.55,0-1-0.45-1-1V3c0-0.55,0.45-1,1-1h9
		v5c0,0.55,0.45,1,1,1h5V21z"></path>
  <circle cx="12" cy="20" r="1"></circle>
  <path d="M12,18.05c-0.55,0-1-0.45-1-1c0-0.94,0.37-1.83,1.04-2.5l0.95-0.95c0.51-0.51,0.53-1.19,0.37-1.65
		c-0.08-0.25-0.36-0.83-1.08-0.93C12.18,11.01,12.09,11,12,11c-1.1,0-2,0.9-2,2c0,0.55-0.45,1-1,1s-1-0.45-1-1c0-2.21,1.79-4,4-4
		c0.18,0,0.36,0.01,0.54,0.04c1.28,0.17,2.29,1.02,2.71,2.27c0.44,1.32,0.12,2.73-0.85,3.7l-0.95,0.95
		C13.16,16.25,13,16.64,13,17.05C13,17.6,12.55,18.05,12,18.05z"></path>
</svg>
