<svg width="50" height="50" viewBox="0 0 50 50" fill="none" xmlns="http://www.w3.org/2000/svg">
<path d="M4.16675 10.4193C4.16675 9.86674 4.38624 9.33683 4.77694 8.94613C5.16764 8.55543 5.69755 8.33594 6.25008 8.33594H43.7501C44.3026 8.33594 44.8325 8.55543 45.2232 8.94613C45.6139 9.33683 45.8334 9.86674 45.8334 10.4193V39.5859C45.8334 40.1385 45.6139 40.6684 45.2232 41.0591C44.8325 41.4498 44.3026 41.6693 43.7501 41.6693H6.25008C5.69755 41.6693 5.16764 41.4498 4.77694 41.0591C4.38624 40.6684 4.16675 40.1385 4.16675 39.5859V10.4193Z" stroke="black" stroke-width="2" stroke-linejoin="round"/>
<path d="M37.5001 8.33594V41.6693M12.5001 8.33594V41.6693M39.5834 18.7526H45.8334M39.5834 31.2526H45.8334M4.16675 18.7526H10.4167M4.16675 16.6693V20.8359M9.37508 8.33594H15.6251M9.37508 41.6693H15.6251M34.3751 8.33594H40.6251M34.3751 41.6693H40.6251M4.16675 31.2526H10.4167M4.16675 29.1693V33.3359M45.8334 29.1693V33.3359M45.8334 16.6693V20.8359" stroke="black" stroke-width="2" stroke-linecap="round" stroke-linejoin="round"/>
<path d="M21.875 19.7969L30.2083 25.0052L21.875 30.2135V19.7969Z" stroke="black" stroke-width="2" stroke-linejoin="round"/>
</svg>
